<svg width="40" height="39" viewBox="0 0 40 39" fill="none" xmlns="https://www.w3.org/2000/svg">
<g clip-path="url(#clip0_57_477)">
<path d="M34.7677 0H5.23238C2.73951 0 0.71167 2.02784 0.71167 4.52071V34.056C0.71167 36.5488 2.73951 38.5767 5.23238 38.5767H34.7677C37.2605 38.5767 39.2884 36.5488 39.2884 34.056V4.52071C39.2884 2.02784 37.2605 0 34.7677 0ZM36.2746 34.056C36.2746 34.8868 35.5985 35.5629 34.7677 35.5629H25.8769V24.5625H30.7011L31.2632 19.8911H25.8769V14.843C25.8769 13.5545 26.8488 12.5826 28.1373 12.5826H31.5278V8.21262C30.6354 8.08665 28.914 7.91123 28.1373 7.91123C26.3799 7.91123 24.6184 8.65262 23.3046 9.94496C21.951 11.2765 21.2055 13.0206 21.2055 14.8562V19.8911H16.3081V24.5625H21.2055V35.5629H5.23238C4.40152 35.5629 3.72547 34.8868 3.72547 34.056V4.52071C3.72547 3.68985 4.40152 3.0138 5.23238 3.0138H34.7677C35.5985 3.0138 36.2746 3.68985 36.2746 4.52071V34.056Z" fill="#3A3939"/>
</g>
<defs>
<clipPath id="clip0_57_477">
<rect width="38.5767" height="38.5767" fill="white" transform="translate(0.71167)"/>
</clipPath>
</defs>
</svg>
