<svg width="24" height="24" viewBox="0 0 24 24" fill="none" xmlns="https://www.w3.org/2000/svg">
<g clip-path="url(#clip0_24_105)">
<path d="M21.1874 6.10352e-05H2.81244C1.26154 6.10352e-05 -6.10352e-05 1.26166 -6.10352e-05 2.81256V21.1876C-6.10352e-05 22.7385 1.26154 24.0001 2.81244 24.0001H21.1874C22.7383 24.0001 23.9999 22.7385 23.9999 21.1876V2.81256C23.9999 1.26166 22.7383 6.10352e-05 21.1874 6.10352e-05ZM22.1249 21.1876C22.1249 21.7045 21.7043 22.1251 21.1874 22.1251H15.6562V15.2813H18.6575L19.0072 12.3751H15.6562V9.23444C15.6562 8.4328 16.2608 7.82819 17.0624 7.82819H19.1718V5.10944C18.6166 5.03107 17.5457 4.92194 17.0624 4.92194C15.9691 4.92194 14.8732 5.38318 14.0558 6.18719C13.2137 7.01556 12.7499 8.10065 12.7499 9.24268V12.3751H9.70306V15.2813H12.7499V22.1251H2.81244C2.29553 22.1251 1.87494 21.7045 1.87494 21.1876V2.81256C1.87494 2.29565 2.29553 1.87506 2.81244 1.87506H21.1874C21.7043 1.87506 22.1249 2.29565 22.1249 2.81256V21.1876Z" fill="#3A3939"/>
</g>
<defs>
<clipPath id="clip0_24_105">
<rect width="24" height="24" fill="white"/>
</clipPath>
</defs>
</svg>
