<svg width="39" height="39" viewBox="0 0 39 39" fill="none" xmlns="https://www.w3.org/2000/svg">
<g clip-path="url(#clip0_57_473)">
<path d="M38.6738 11.3417C38.5835 9.29192 38.252 7.88275 37.7772 6.66169C37.2873 5.36556 36.5337 4.20514 35.5464 3.24047C34.5817 2.26079 33.4137 1.49954 32.1325 1.01736C30.9044 0.542532 29.5026 0.211066 27.4529 0.120693C25.3878 0.0226668 24.7323 0 19.4948 0C14.2572 0 13.6017 0.0226668 11.5443 0.11304C9.49456 0.203413 8.08539 0.535172 6.86462 1.0097C5.5682 1.49954 4.40777 2.25314 3.44311 3.24047C2.46343 4.20514 1.70247 5.37321 1.21999 6.65433C0.745169 7.88275 0.413703 9.28427 0.32333 11.334C0.225304 13.399 0.202637 14.0546 0.202637 19.2921C0.202637 24.5296 0.225304 25.1852 0.315676 27.2426C0.406049 29.2923 0.737809 30.7015 1.21263 31.9225C1.70247 33.2187 2.46343 34.3791 3.44311 35.3438C4.40777 36.3234 5.57585 37.0847 6.85697 37.5669C8.08539 38.0417 9.48691 38.3732 11.5369 38.4635C13.594 38.5542 14.2499 38.5766 19.4874 38.5766C24.7249 38.5766 25.3805 38.5542 27.4379 38.4635C29.4876 38.3732 30.8968 38.0417 32.1175 37.5669C34.7101 36.5645 36.7598 34.5148 37.7621 31.9225C38.2367 30.6941 38.5684 29.2923 38.6588 27.2426C38.7492 25.1852 38.7719 24.5296 38.7719 19.2921C38.7719 14.0546 38.7642 13.399 38.6738 11.3417ZM35.1999 27.0919C35.1169 28.9758 34.8004 29.9932 34.5367 30.6714C33.8885 32.352 32.5547 33.6858 30.8741 34.334C30.1958 34.5978 29.1711 34.9143 27.2945 34.997C25.2598 35.0876 24.6495 35.11 19.5024 35.11C14.3553 35.11 13.7374 35.0876 11.71 34.997C9.82603 34.9143 8.80867 34.5978 8.13043 34.334C7.29411 34.025 6.53286 33.5351 5.91497 32.8946C5.27441 32.269 4.78457 31.5154 4.47548 30.6791C4.21172 30.0009 3.89527 28.9758 3.81255 27.0995C3.72188 25.0648 3.69951 24.4543 3.69951 19.3071C3.69951 14.16 3.72188 13.5421 3.81255 11.515C3.89527 9.63104 4.21172 8.61369 4.47548 7.93545C4.78457 7.09884 5.27441 6.33788 5.92262 5.71969C6.54787 5.07913 7.30147 4.58929 8.13808 4.2805C8.81632 4.01674 9.84133 3.70028 11.7177 3.61727C13.7524 3.5269 14.3629 3.50423 19.5098 3.50423C24.6646 3.50423 25.2748 3.5269 27.3021 3.61727C29.1861 3.70028 30.2035 4.01674 30.8817 4.2805C31.7181 4.58929 32.4793 5.07913 33.0972 5.71969C33.7378 6.34524 34.2276 7.09884 34.5367 7.93545C34.8004 8.61369 35.1169 9.6384 35.1999 11.515C35.2903 13.5498 35.313 14.16 35.313 19.3071C35.313 24.4543 35.2903 25.0571 35.1999 27.0919Z" fill="#3A3939"/>
<path d="M19.4945 9.38232C14.0236 9.38232 9.58472 13.8209 9.58472 19.2921C9.58472 24.7634 14.0236 29.202 19.4945 29.202C24.9658 29.202 29.4043 24.7634 29.4043 19.2921C29.4043 13.8209 24.9658 9.38232 19.4945 9.38232ZM19.4945 25.7204C15.9453 25.7204 13.0663 22.8417 13.0663 19.2921C13.0663 15.7426 15.9453 12.8639 19.4945 12.8639C23.0441 12.8639 25.9228 15.7426 25.9228 19.2921C25.9228 22.8417 23.0441 25.7204 19.4945 25.7204Z" fill="#3A3939"/>
<path d="M32.11 8.99043C32.11 10.268 31.0741 11.3039 29.7962 11.3039C28.5186 11.3039 27.4827 10.268 27.4827 8.99043C27.4827 7.71255 28.5186 6.67694 29.7962 6.67694C31.0741 6.67694 32.11 7.71255 32.11 8.99043Z" fill="#3A3939"/>
</g>
<defs>
<clipPath id="clip0_57_473">
<rect width="38.5767" height="38.5767" fill="white" transform="translate(0.134888)"/>
</clipPath>
</defs>
</svg>
