<svg width="24" height="24" viewBox="0 0 24 24" fill="none" xmlns="https://www.w3.org/2000/svg">
<g clip-path="url(#clip0_24_101)">
<path d="M23.9765 7.05613C23.9203 5.78091 23.714 4.90422 23.4186 4.14455C23.1139 3.33818 22.645 2.61623 22.0308 2.01608C21.4306 1.40659 20.7039 0.932983 19.9069 0.632997C19.1428 0.33759 18.2707 0.131373 16.9955 0.0751489C15.7108 0.0141629 15.3029 6.10352e-05 12.0445 6.10352e-05C8.78601 6.10352e-05 8.37815 0.0141629 7.09818 0.0703873C5.82297 0.126612 4.94627 0.333012 4.18678 0.628236C3.38023 0.932983 2.65829 1.40182 2.05813 2.01608C1.44864 2.61623 0.975219 3.34294 0.67505 4.13997C0.379644 4.90422 0.173427 5.77615 0.117202 7.05136C0.0562161 8.3361 0.0421143 8.74396 0.0421143 12.0024C0.0421143 15.2609 0.0562161 15.6687 0.11244 16.9487C0.168665 18.2239 0.375065 19.1006 0.670472 19.8603C0.975219 20.6666 1.44864 21.3886 2.05813 21.9887C2.65829 22.5982 3.38499 23.0718 4.18202 23.3718C4.94627 23.6672 5.81821 23.8734 7.0936 23.9297C8.37339 23.9861 8.78143 24 12.0399 24C15.2983 24 15.7062 23.9861 16.9862 23.9297C18.2614 23.8734 19.1381 23.6672 19.8976 23.3718C21.5105 22.7482 22.7857 21.473 23.4093 19.8603C23.7045 19.096 23.9109 18.2239 23.9671 16.9487C24.0234 15.6687 24.0375 15.2609 24.0375 12.0024C24.0375 8.74396 24.0327 8.3361 23.9765 7.05613ZM21.8152 16.8549C21.7636 18.027 21.5667 18.66 21.4026 19.0819C20.9993 20.1275 20.1695 20.9573 19.124 21.3606C18.702 21.5247 18.0645 21.7215 16.897 21.773C15.6311 21.8294 15.2514 21.8433 12.0492 21.8433C8.847 21.8433 8.46258 21.8294 7.20129 21.773C6.02918 21.7215 5.39625 21.5247 4.97429 21.3606C4.45399 21.1683 3.98038 20.8635 3.59597 20.465C3.19745 20.0758 2.89271 19.607 2.70041 19.0867C2.53631 18.6647 2.33944 18.027 2.28798 16.8597C2.23157 15.5938 2.21765 15.214 2.21765 12.0117C2.21765 8.80952 2.23157 8.42511 2.28798 7.164C2.33944 5.99189 2.53631 5.35896 2.70041 4.937C2.89271 4.41651 3.19745 3.94309 3.60073 3.5585C3.98972 3.15998 4.45857 2.85523 4.97905 2.66312C5.40101 2.49902 6.03871 2.30215 7.20605 2.2505C8.47192 2.19428 8.85176 2.18017 12.0538 2.18017C15.2608 2.18017 15.6404 2.19428 16.9017 2.2505C18.0738 2.30215 18.7068 2.49902 19.1287 2.66312C19.649 2.85523 20.1226 3.15998 20.507 3.5585C20.9056 3.94767 21.2103 4.41651 21.4026 4.937C21.5667 5.35896 21.7636 5.99647 21.8152 7.164C21.8715 8.42987 21.8856 8.80952 21.8856 12.0117C21.8856 15.214 21.8715 15.589 21.8152 16.8549Z" fill="#3A3939"/>
<path d="M12.0444 5.83714C8.64074 5.83714 5.87915 8.59854 5.87915 12.0024C5.87915 15.4063 8.64074 18.1677 12.0444 18.1677C15.4483 18.1677 18.2097 15.4063 18.2097 12.0024C18.2097 8.59854 15.4483 5.83714 12.0444 5.83714ZM12.0444 16.0017C9.83628 16.0017 8.04516 14.2107 8.04516 12.0024C8.04516 9.79409 9.83628 8.00315 12.0444 8.00315C14.2527 8.00315 16.0437 9.79409 16.0437 12.0024C16.0437 14.2107 14.2527 16.0017 12.0444 16.0017Z" fill="#3A3939"/>
<path d="M19.893 5.59338C19.893 6.38821 19.2485 7.03268 18.4535 7.03268C17.6586 7.03268 17.0142 6.38821 17.0142 5.59338C17.0142 4.79836 17.6586 4.15407 18.4535 4.15407C19.2485 4.15407 19.893 4.79836 19.893 5.59338Z" fill="#3A3939"/>
</g>
<defs>
<clipPath id="clip0_24_101">
<rect width="24" height="24" fill="white"/>
</clipPath>
</defs>
</svg>
