<svg width="92" height="22" viewBox="0 0 92 22" fill="none" xmlns="https://www.w3.org/2000/svg">
<path d="M10.2487 21.9739C8.76598 21.9739 7.4316 21.7385 6.24549 21.2676C5.05938 20.7968 4.04769 20.1341 3.21044 19.2795C2.37318 18.4075 1.7278 17.3525 1.27428 16.1143C0.838214 14.876 0.620178 13.4983 0.620178 11.9811C0.620178 10.3941 0.864378 8.94655 1.35278 7.6386C1.84118 6.33063 2.52144 5.20578 3.39359 4.26404C4.28317 3.3223 5.33846 2.59856 6.55946 2.09281C7.7979 1.56962 9.15844 1.30803 10.6411 1.30803C11.6876 1.30803 12.6732 1.45627 13.5976 1.75274C14.5221 2.04921 15.525 2.5288 16.6066 3.19151L17.156 1.56962H18.0717L17.7316 7.58628H16.4757C16.4757 6.73175 16.31 5.99928 15.9786 5.3889C15.6646 4.76107 15.246 4.2466 14.7227 3.84549C14.1994 3.44438 13.5976 3.14791 12.9174 2.95607C12.2546 2.76423 11.5742 2.66832 10.8766 2.66832C9.81255 2.66832 8.86192 2.8776 8.02466 3.29615C7.1874 3.7147 6.48097 4.31636 5.90536 5.10114C5.32974 5.88592 4.88495 6.8451 4.57098 7.97867C4.27445 9.11225 4.12619 10.3941 4.12619 11.8241C4.12619 14.6319 4.71052 16.7944 5.87919 18.3117C7.04786 19.8114 8.73982 20.5614 10.9551 20.5614C11.7923 20.5614 12.5424 20.4654 13.2052 20.2736C13.868 20.0643 14.4262 19.794 14.8797 19.4626C15.3507 19.1138 15.6995 18.7214 15.9262 18.2855C16.1705 17.8321 16.2925 17.3612 16.2925 16.8729C16.2925 15.8613 16.0832 15.1812 15.6646 14.8324C15.2634 14.4662 14.6006 14.2831 13.6761 14.2831V13.289H21.1068V14.2831C20.6881 14.2831 20.3393 14.3179 20.0602 14.3877C19.7812 14.4575 19.5543 14.5883 19.38 14.7801C19.223 14.9545 19.1096 15.19 19.0398 15.4864C18.9875 15.7829 18.9613 16.1578 18.9613 16.6113V19.5411C18.6299 19.5411 18.3247 19.5586 18.0455 19.5934C17.7839 19.6109 17.5049 19.6719 17.2083 19.7765C16.9118 19.8637 16.5803 19.9945 16.214 20.169C15.8652 20.3259 15.4466 20.5439 14.9582 20.8229C14.3477 21.1717 13.6412 21.4507 12.8389 21.66C12.0539 21.8693 11.1905 21.9739 10.2487 21.9739Z" fill="#4C4C4C"/>
<path d="M27.2846 17.6315C27.2846 18.2942 27.3108 18.8261 27.3631 19.2272C27.4154 19.6283 27.5201 19.9422 27.6771 20.169C27.8515 20.3957 28.087 20.5526 28.3836 20.6398C28.6975 20.727 29.1074 20.7793 29.6132 20.7968V21.7123H22.3919V20.7968C22.9152 20.7793 23.3338 20.727 23.6478 20.6398C23.9618 20.5352 24.2059 20.3782 24.3804 20.169C24.5723 19.9596 24.6944 19.6719 24.7467 19.3057C24.8164 18.922 24.8514 18.4249 24.8514 17.8146V6.53991C24.8514 5.59816 24.8339 4.81339 24.799 4.18556C24.7816 3.54029 24.7467 3.10431 24.6944 2.8776C24.6071 2.47648 24.3978 2.20617 24.0665 2.06665C23.7525 1.92713 23.1768 1.85738 22.3396 1.85738V0.967962L27.2846 6.10352e-05V17.6315Z" fill="#4C4C4C"/>
<path d="M38.8281 7.58628C39.8224 7.58628 40.7642 7.7694 41.6539 8.13562C42.5434 8.48442 43.3197 8.97271 43.9825 9.60059C44.6627 10.2284 45.1947 10.9783 45.5785 11.8503C45.9796 12.7048 46.1803 13.6466 46.1803 14.6755C46.1803 15.7393 45.9796 16.7159 45.5785 17.6053C45.1947 18.4948 44.6627 19.2621 43.9825 19.9073C43.3197 20.5526 42.5434 21.0584 41.6539 21.4246C40.7642 21.7908 39.8224 21.9739 38.8281 21.9739C37.8513 21.9739 36.9182 21.7995 36.0285 21.4507C35.1564 21.0845 34.3889 20.5788 33.7261 19.9335C33.0633 19.2883 32.54 18.5209 32.1562 17.6315C31.7725 16.7247 31.5806 15.7393 31.5806 14.6755C31.5806 13.6466 31.7725 12.6961 32.1562 11.8241C32.54 10.9521 33.0633 10.2022 33.7261 9.57443C34.3889 8.94655 35.1564 8.45826 36.0285 8.10946C36.9182 7.76068 37.8513 7.58628 38.8281 7.58628ZM38.8281 8.84191C38.1828 8.84191 37.5897 8.98145 37.049 9.26045C36.5256 9.53953 36.0722 9.94065 35.6884 10.4638C35.3221 10.9696 35.0343 11.5886 34.825 12.3211C34.6331 13.0362 34.5372 13.8297 34.5372 14.7016C34.5372 15.6085 34.6331 16.4282 34.825 17.1606C35.0343 17.893 35.3221 18.5209 35.6884 19.0441C36.0722 19.5498 36.5256 19.9422 37.049 20.2213C37.5723 20.5003 38.1653 20.6398 38.8281 20.6398C39.4909 20.6398 40.0928 20.5003 40.6334 20.2213C41.1742 19.9422 41.6364 19.5411 42.0202 19.0179C42.4039 18.4948 42.7004 17.8669 42.9097 17.1344C43.119 16.402 43.2238 15.591 43.2238 14.7016C43.2238 13.8297 43.119 13.0362 42.9097 12.3211C42.7004 11.6061 42.4039 10.9957 42.0202 10.49C41.6364 9.96681 41.1742 9.56569 40.6334 9.2866C40.0928 8.9902 39.4909 8.84191 38.8281 8.84191Z" fill="#4C4C4C"/>
<path d="M53.2262 17.5268C53.2262 18.2593 53.2436 18.8348 53.2785 19.2534C53.3134 19.6719 53.4007 19.9945 53.5402 20.2213C53.6971 20.4306 53.9152 20.57 54.1943 20.6398C54.4734 20.7096 54.8658 20.7619 55.3717 20.7968V21.7123H48.412V20.7968C48.9179 20.7619 49.3191 20.7096 49.6155 20.6398C49.9121 20.57 50.1389 20.4306 50.2958 20.2213C50.4528 20.0119 50.5487 19.7155 50.5836 19.3318C50.636 18.9307 50.6621 18.3988 50.6621 17.7361V14.3877C50.6621 13.3936 50.6447 12.5653 50.6098 11.9026C50.5924 11.2399 50.5487 10.7865 50.479 10.5423C50.4267 10.3156 50.3656 10.1412 50.2958 10.0191C50.226 9.87958 50.1127 9.77495 49.9557 9.70522C49.7987 9.618 49.5893 9.56568 49.3277 9.54828C49.0835 9.51337 48.7609 9.49587 48.3597 9.49587V8.58033L52.6245 7.58628L52.9646 10.2022H53.0954C53.8803 9.31276 54.7001 8.65881 55.5548 8.24026C56.4269 7.80428 57.3863 7.58628 58.4329 7.58628C59.5318 7.58628 60.4562 7.81299 61.2063 8.26642C61.9564 8.70241 62.4797 9.33892 62.7762 10.1761H62.8808C63.5262 9.35642 64.3112 8.71985 65.2356 8.26642C66.1601 7.81299 67.1456 7.58628 68.1921 7.58628C69.012 7.58628 69.7533 7.72579 70.4161 8.00483C71.0964 8.26642 71.6109 8.63266 71.9598 9.1035C72.2738 9.50462 72.4918 10.0365 72.6139 10.6992C72.7535 11.3445 72.8232 12.2339 72.8232 13.3675V17.5268C72.8232 18.2418 72.8407 18.8087 72.8755 19.2272C72.9279 19.6457 73.0238 19.9684 73.1633 20.1951C73.3029 20.4218 73.5122 20.57 73.7913 20.6398C74.0879 20.7096 74.489 20.7619 74.9948 20.7968V21.7123H68.0352V20.7968C68.5236 20.7793 68.916 20.7357 69.2126 20.666C69.5091 20.5788 69.7359 20.4306 69.8928 20.2213C70.0498 19.9945 70.1457 19.6894 70.1806 19.3057C70.233 18.922 70.2591 18.3988 70.2591 17.7361V14.4401C70.2591 13.4459 70.2068 12.6089 70.1021 11.9288C69.9975 11.2312 69.8231 10.6731 69.5789 10.2545C69.3347 9.81852 69.012 9.50462 68.6108 9.31276C68.2271 9.12099 67.7561 9.02502 67.1979 9.02502C66.4305 9.02502 65.7066 9.24304 65.0263 9.67907C64.3635 10.0976 63.8401 10.6643 63.4564 11.3794C63.3692 11.5538 63.2907 11.7282 63.221 11.9026C63.1686 12.0596 63.125 12.2427 63.0902 12.4519C63.0552 12.6438 63.0291 12.8792 63.0117 13.1582C63.0117 13.4373 63.0117 13.7861 63.0117 14.2046V17.5268C63.0117 18.2418 63.0291 18.8087 63.064 19.2272C63.0988 19.6457 63.1861 19.9684 63.3256 20.1951C63.4826 20.4218 63.7093 20.57 64.0059 20.6398C64.3024 20.7096 64.7036 20.7619 65.2095 20.7968V21.7123H58.2498V20.7968C58.7381 20.7619 59.1306 20.7096 59.4271 20.6398C59.7237 20.57 59.9417 20.4306 60.0812 20.2213C60.2382 20.0119 60.3342 19.7155 60.369 19.3318C60.4214 18.9307 60.4476 18.3988 60.4476 17.7361V14.4401C60.4476 13.4285 60.3953 12.5827 60.2906 11.9026C60.1859 11.205 60.0115 10.6469 59.7673 10.2284C59.5405 9.79236 59.2352 9.48721 58.8515 9.31276C58.4678 9.12099 57.9968 9.02502 57.4387 9.02502C56.6538 9.02502 55.9124 9.24304 55.2147 9.67907C54.5345 10.0976 54.0198 10.6643 53.671 11.3794C53.5838 11.5538 53.5053 11.7282 53.4355 11.9026C53.3832 12.0596 53.3396 12.2427 53.3047 12.4519C53.2698 12.6438 53.2437 12.8792 53.2262 13.1582C53.2262 13.4373 53.2262 13.7861 53.2262 14.2046V17.5268Z" fill="#4C4C4C"/>
<path d="M80.4696 16.2451C80.4696 16.9078 80.5655 17.5182 80.7573 18.0762C80.9492 18.6168 81.2109 19.0877 81.5422 19.4888C81.8911 19.8725 82.3011 20.1776 82.772 20.4044C83.2603 20.6311 83.7837 20.7445 84.3419 20.7445C84.9523 20.7445 85.5018 20.6049 85.9902 20.3259C86.496 20.0469 86.9234 19.6545 87.2722 19.1487C87.6385 18.6256 87.9176 18.0064 88.1095 17.2914C88.3188 16.559 88.4234 15.748 88.4234 14.8586C88.4234 13.9692 88.3188 13.1582 88.1095 12.4258C87.9002 11.6758 87.6124 11.0393 87.2461 10.5161C86.8798 9.97547 86.4349 9.55694 85.9117 9.26045C85.4058 8.96404 84.8476 8.81577 84.2371 8.81577C83.522 8.81577 82.8853 8.9902 82.3271 9.33892C81.7691 9.67032 81.3417 10.1412 81.0451 10.7516C80.6614 11.5189 80.4696 12.574 80.4696 13.9169V16.2451ZM80.4172 9.70522H80.5219C81.0801 8.9727 81.6906 8.44082 82.3533 8.10946C83.0336 7.76068 83.8185 7.58628 84.7082 7.58628C85.65 7.58628 86.5222 7.7694 87.3246 8.13562C88.1444 8.50186 88.8508 9.00761 89.444 9.65291C90.0539 10.2981 90.525 11.0655 90.8565 11.9549C91.2056 12.8269 91.3798 13.7686 91.3798 14.7801C91.3798 15.809 91.2056 16.7682 90.8565 17.6576C90.5082 18.5296 90.0283 19.2883 89.4175 19.9335C88.8246 20.5788 88.1182 21.0845 87.2984 21.4507C86.4786 21.817 85.589 22.0001 84.6297 22.0001C83.6354 22.0001 82.7022 21.817 81.83 21.4507C80.9753 21.0845 80.2689 20.5875 79.7107 19.9596L78.4811 21.7123H77.9054V5.91208C77.9054 4.15068 77.7921 3.02583 77.5653 2.53752C77.5129 2.41544 77.4519 2.31952 77.3821 2.24977C77.3124 2.16257 77.2077 2.09281 77.0682 2.0405C76.9286 1.97073 76.7368 1.9097 76.4926 1.85738C76.2484 1.80506 75.9169 1.75274 75.4983 1.70042V1.04644L80.4172 6.10352e-05V9.70522Z" fill="#4C4C4C"/>
</svg>