<svg width="39" height="39" viewBox="0 0 39 39" fill="none" xmlns="https://www.w3.org/2000/svg">
<g clip-path="url(#clip0_57_479)">
<path d="M25.5148 17.5548L16.9923 12.8916C16.5022 12.6235 15.923 12.6335 15.4427 12.9181C14.9621 13.203 14.6754 13.7063 14.6754 14.2649V23.5112C14.6754 24.0671 14.9603 24.5695 15.4377 24.8547C15.687 25.0037 15.9633 25.0784 16.2403 25.0784C16.494 25.0784 16.7483 25.0157 16.9823 24.8898L25.5051 20.307C26.011 20.0347 26.3268 19.5088 26.3292 18.934C26.3312 18.3592 26.0193 17.8309 25.5148 17.5548ZM16.9361 22.348V15.4375L23.3057 18.9228L16.9361 22.348Z" fill="#3A3939"/>
<path d="M38.5814 11.5675L38.5797 11.5499C38.547 11.2394 38.2218 8.47749 36.8791 7.07272C35.3272 5.42042 33.5677 5.2197 32.7216 5.12346C32.6515 5.11551 32.5874 5.10815 32.53 5.1005L32.4626 5.09344C27.3627 4.7226 19.6607 4.67198 19.5836 4.67168L19.5768 4.67139L19.57 4.67168C19.4929 4.67198 11.7909 4.7226 6.64511 5.09344L6.57712 5.1005C6.52238 5.10786 6.46204 5.11463 6.39641 5.12228C5.55996 5.21882 3.81937 5.41983 2.26302 7.13187C0.984217 8.52164 0.614555 11.2243 0.576588 11.5281L0.572174 11.5675C0.560695 11.6967 0.288452 14.7726 0.288452 17.8606V20.7473C0.288452 23.8352 0.560695 26.9111 0.572174 27.0406L0.574234 27.0601C0.606903 27.3656 0.931829 30.0768 2.26832 31.4822C3.72754 33.0791 5.57262 33.2905 6.56505 33.4041C6.72192 33.422 6.85701 33.4373 6.94914 33.4535L7.03831 33.4659C9.98295 33.7461 19.2154 33.8841 19.6068 33.8897L19.6186 33.89L19.6304 33.8897C19.7075 33.8894 27.4092 33.8388 32.5091 33.4679L32.5765 33.4609C32.6409 33.4523 32.7133 33.4447 32.7928 33.4364C33.6245 33.3481 35.3557 33.1648 36.8906 31.476C38.1694 30.0859 38.5393 27.3832 38.577 27.0798L38.5814 27.0403C38.5929 26.9108 38.8654 23.8352 38.8654 20.7473V17.8606C38.8651 14.7726 38.5929 11.697 38.5814 11.5675ZM36.6045 20.7473C36.6045 23.6054 36.3549 26.5488 36.3314 26.819C36.2354 27.5633 35.8455 29.2733 35.2224 29.9505C34.2617 31.0074 33.2749 31.1122 32.5544 31.1884C32.4673 31.1976 32.3866 31.2064 32.3137 31.2155C27.3809 31.5722 19.9697 31.627 19.6283 31.629C19.2454 31.6234 10.1481 31.4842 7.29319 31.2191C7.14692 31.1952 6.98887 31.177 6.82229 31.1581C5.9773 31.0613 4.82064 30.9289 3.93121 29.9505L3.91031 29.9282C3.29814 29.2904 2.91935 27.6914 2.82311 26.8278C2.80516 26.6236 2.5491 23.6454 2.5491 20.7473V17.8606C2.5491 15.0057 2.79809 12.0655 2.82223 11.7897C2.93671 10.913 3.33404 9.30658 3.93121 8.65732C4.92129 7.56835 5.96523 7.44768 6.6557 7.36792C6.72163 7.36026 6.78314 7.3532 6.83994 7.34584C11.8445 6.98737 19.309 6.93409 19.5768 6.93203C19.8446 6.9338 27.3064 6.98737 32.2666 7.34584C32.3275 7.3535 32.394 7.36115 32.4655 7.36939C33.1757 7.45033 34.2491 7.57276 35.2342 8.62347L35.2433 8.63318C35.8555 9.27097 36.2342 10.898 36.3305 11.7788C36.3476 11.9716 36.6045 14.9563 36.6045 17.8606V20.7473Z" fill="#3A3939"/>
</g>
<defs>
<clipPath id="clip0_57_479">
<rect width="38.5768" height="38.5767" fill="white" transform="translate(0.28833)"/>
</clipPath>
</defs>
</svg>
