<svg width="24" height="24" viewBox="0 0 24 24" fill="none" xmlns="https://www.w3.org/2000/svg">
<g clip-path="url(#clip0_24_134)">
<path d="M15.6941 10.9216L10.3919 8.02045C10.087 7.85364 9.72668 7.85986 9.42786 8.03693C9.12885 8.21417 8.9505 8.52728 8.9505 8.87482V14.6273C8.9505 14.9731 9.12775 15.2857 9.42474 15.4631C9.57983 15.5558 9.75177 15.6023 9.92407 15.6023C10.0819 15.6023 10.2401 15.5633 10.3857 15.4849L15.688 12.6338C16.0028 12.4644 16.1993 12.1372 16.2007 11.7796C16.202 11.422 16.0079 11.0933 15.6941 10.9216ZM10.3569 13.9036V9.60431L14.3197 11.7726L10.3569 13.9036Z" fill="#3A3939"/>
<path d="M23.8234 7.19666L23.8223 7.18567C23.802 6.99249 23.5997 5.27423 22.7643 4.40027C21.7988 3.37231 20.7042 3.24744 20.1778 3.18756C20.1342 3.18262 20.0943 3.17804 20.0586 3.17328L20.0167 3.16888C16.8438 2.93817 12.0521 2.90668 12.0042 2.90649L11.9999 2.90631L11.9957 2.90649C11.9478 2.90668 7.15607 2.93817 3.95465 3.16888L3.91235 3.17328C3.8783 3.17786 3.84076 3.18207 3.79993 3.18683C3.27954 3.24689 2.19666 3.37195 1.22839 4.43707C0.4328 5.3017 0.20282 6.98315 0.179199 7.17212L0.176453 7.19666C0.169312 7.27704 -6.10352e-05 9.19067 -6.10352e-05 11.1118V12.9077C-6.10352e-05 14.8289 0.169312 16.7425 0.176453 16.8231L0.177734 16.8351C0.198059 17.0252 0.400208 18.712 1.23169 19.5863C2.13953 20.5798 3.28741 20.7113 3.90485 20.782C4.00244 20.7932 4.08649 20.8027 4.1438 20.8127L4.19928 20.8204C6.03125 20.9948 11.7751 21.0806 12.0186 21.0841L12.0259 21.0843L12.0333 21.0841C12.0812 21.0839 16.8727 21.0524 20.0456 20.8217L20.0875 20.8173C20.1276 20.812 20.1727 20.8073 20.2221 20.8021C20.7396 20.7472 21.8166 20.6331 22.7715 19.5825C23.5671 18.7177 23.7972 17.0362 23.8207 16.8474L23.8234 16.8229C23.8306 16.7423 24.0001 14.8289 24.0001 12.9077V11.1118C23.9999 9.19067 23.8306 7.27722 23.8234 7.19666ZM22.5935 12.9077C22.5935 14.6859 22.4382 16.5171 22.4236 16.6852C22.3639 17.1483 22.1213 18.2121 21.7336 18.6334C21.136 19.291 20.522 19.3561 20.0738 19.4036C20.0196 19.4092 19.9694 19.4147 19.924 19.4204C16.8552 19.6423 12.2444 19.6764 12.032 19.6777C11.7938 19.6742 6.13397 19.5876 4.35785 19.4226C4.26685 19.4078 4.16852 19.3964 4.06488 19.3847C3.53918 19.3245 2.81958 19.2421 2.26624 18.6334L2.25324 18.6195C1.87238 18.2227 1.63672 17.2279 1.57684 16.6907C1.56567 16.5636 1.40637 14.7108 1.40637 12.9077V11.1118C1.40637 9.33569 1.56128 7.50647 1.57629 7.3349C1.64752 6.78943 1.89471 5.79004 2.26624 5.38611C2.8822 4.70862 3.53168 4.63354 3.96124 4.58392C4.00226 4.57916 4.04053 4.57477 4.07587 4.57019C7.18939 4.34717 11.8333 4.31403 11.9999 4.31274C12.1666 4.31384 16.8088 4.34717 19.8947 4.57019C19.9326 4.57495 19.974 4.57971 20.0185 4.58484C20.4603 4.63519 21.1281 4.71136 21.741 5.36505L21.7466 5.37109C22.1275 5.76788 22.3632 6.78009 22.423 7.32812C22.4337 7.44806 22.5935 9.30493 22.5935 11.1118V12.9077Z" fill="#3A3939"/>
</g>
<defs>
<clipPath id="clip0_24_134">
<rect width="24.0001" height="24" fill="white"/>
</clipPath>
</defs>
</svg>