<svg width="25" height="23" viewBox="0 0 25 23" fill="none" xmlns="https://www.w3.org/2000/svg">
<path d="M5.02112 14.6328L7.87502 14.6328C8.40042 14.6328 8.82631 14.2069 8.82631 13.6815C8.82631 13.1561 8.40042 12.7302 7.87502 12.7302L5.02112 12.7302C4.49572 12.7302 4.06982 13.1561 4.06982 13.6815C4.06982 14.2069 4.49572 14.6328 5.02112 14.6328Z" fill="#1862B2"/>
<path d="M5.02112 10.8276L7.87502 10.8276C8.40042 10.8276 8.82631 10.4017 8.82631 9.87635C8.82631 9.35094 8.40042 8.92505 7.87502 8.92505L5.02112 8.92505C4.49572 8.92505 4.06982 9.35094 4.06982 9.87635C4.06982 10.4017 4.49572 10.8276 5.02112 10.8276Z" fill="#1862B2"/>
<path d="M10.6074 13.6815C10.6074 14.207 11.0333 14.6328 11.5587 14.6328C13.5479 14.6328 15.4181 13.8582 16.8247 12.4516L23.7815 5.49411C24.8968 4.37885 24.897 2.57353 23.7815 1.45808C22.6688 0.345352 20.8583 0.345352 19.7455 1.45808L12.7887 8.41559C11.3821 9.82223 10.6074 11.6923 10.6074 13.6815ZM21.0909 2.80346C21.4617 2.43255 22.0653 2.43255 22.4362 2.80346C22.808 3.17513 22.8081 3.77697 22.4362 4.14878L15.4793 11.1063C14.6841 11.9016 13.6897 12.4255 12.6087 12.6316C12.8148 11.5506 13.3387 10.5562 14.1339 9.76096L21.0909 2.80346Z" fill="#1862B2"/>
<path d="M3.11854 22.2432C3.82136 22.2432 4.49688 21.9853 5.02076 21.5169L6.33578 20.3406L16.0562 20.3406C18.679 20.3406 20.8127 18.2069 20.8127 15.5842L20.8127 13.4503C20.8127 12.9249 20.3868 12.499 19.8614 12.499C19.336 12.499 18.9101 12.9249 18.9101 13.4503L18.9101 15.5842C18.9101 17.1578 17.6298 18.438 16.0562 18.438L5.97244 18.438C5.73842 18.438 5.51263 18.5243 5.33821 18.6803L3.75249 20.0987C3.57797 20.2547 3.35285 20.3406 3.11854 20.3406C2.594 20.3406 2.16724 19.9139 2.16724 19.3893L2.16724 7.97377C2.16724 6.40014 3.4475 5.11988 5.02114 5.11988L13.0001 5.11988C13.5255 5.11988 13.9514 4.69398 13.9514 4.16858C13.9514 3.64318 13.5255 3.21729 13.0001 3.21729L5.02114 3.21729C2.39836 3.21729 0.264648 5.35105 0.264649 7.97377L0.264649 19.3893C0.264649 20.963 1.54491 22.2432 3.11854 22.2432Z" fill="#1862B2"/>
</svg>
