<svg width="193" height="73" viewBox="0 0 193 73" fill="none" xmlns="http://www.w3.org/2000/svg">
<g clip-path="url(#clip0_1066_1021)">
<path d="M17.0775 38.0804C14.5729 38.0804 12.3188 37.6825 10.3152 36.887C8.3115 36.0915 6.6025 34.9717 5.18814 33.528C3.7738 32.0546 2.68357 30.272 1.91746 28.18C1.18082 26.0878 0.8125 23.7601 0.8125 21.1966C0.8125 18.5151 1.22502 16.0695 2.05006 13.8596C2.87509 11.6497 4.02426 9.74914 5.49754 8.158C7.00029 6.56686 8.78295 5.34402 10.8456 4.48952C12.9376 3.60556 15.236 3.16357 17.7405 3.16357C19.5084 3.16357 21.1732 3.41404 22.735 3.91495C24.2966 4.41586 25.9909 5.22617 27.8178 6.34586L28.746 3.60556H30.2929L29.7184 13.7712H27.5968C27.5968 12.3274 27.3169 11.0898 26.757 10.0585C26.2266 8.99777 25.5195 8.12854 24.6355 7.45082C23.7516 6.77311 22.735 6.2722 21.5858 5.94808C20.4661 5.62395 19.317 5.4619 18.1383 5.4619C16.3409 5.4619 14.7351 5.81549 13.3207 6.52265C11.9063 7.22983 10.713 8.2464 9.74059 9.57235C8.76822 10.8983 8.01685 12.5189 7.48646 14.4341C6.98555 16.3494 6.73509 18.5151 6.73509 20.9313C6.73509 25.6754 7.7222 29.3291 9.69639 31.8926C11.6706 34.4267 14.5288 35.6937 18.2708 35.6937C19.6853 35.6937 20.9523 35.5315 22.0719 35.2075C23.1916 34.8539 24.1346 34.3971 24.9007 33.8373C25.6963 33.2479 26.2856 32.585 26.6687 31.8483C27.0812 31.0822 27.2873 30.2867 27.2873 29.4617C27.2873 27.7526 26.9338 26.6035 26.2266 26.0141C25.549 25.3955 24.4292 25.086 22.8676 25.086V23.4065H35.4199V25.086C34.7128 25.086 34.1234 25.145 33.652 25.2629C33.1805 25.3807 32.7975 25.6016 32.5028 25.9258C32.2376 26.2204 32.0461 26.6182 31.9282 27.1191C31.8398 27.62 31.7956 28.2536 31.7956 29.0197V33.9699C31.2359 33.9699 30.7201 33.9993 30.2487 34.0583C29.8067 34.0878 29.3353 34.1909 28.8344 34.3677C28.3335 34.515 27.7735 34.736 27.1547 35.0306C26.5655 35.2959 25.8583 35.6641 25.0333 36.1356C24.002 36.725 22.8086 37.1965 21.4533 37.5499C20.1272 37.9036 18.6687 38.0804 17.0775 38.0804Z" fill="white"/>
<path d="M45.8555 30.7434C45.8555 31.8631 45.8996 32.7618 45.9881 33.4395C46.0765 34.1172 46.2533 34.6475 46.5184 35.0306C46.8132 35.4136 47.211 35.6789 47.7119 35.8263C48.2422 35.9736 48.9346 36.062 49.7892 36.0914V37.6384H37.5904V36.0914C38.4744 36.062 39.1816 35.9736 39.712 35.8263C40.2423 35.6494 40.6548 35.3842 40.9494 35.0306C41.2736 34.6771 41.4799 34.1909 41.5682 33.5721C41.6861 32.9239 41.7451 32.084 41.7451 31.0528V12.0032C41.7451 10.4121 41.7155 9.08613 41.6566 8.02538C41.6272 6.93515 41.5682 6.1985 41.4799 5.81545C41.3325 5.13773 40.979 4.68102 40.4191 4.4453C39.8887 4.20957 38.9163 4.09171 37.502 4.09171V2.58895L45.8555 0.953613V30.7434Z" fill="white"/>
<path d="M65.3562 13.7712C67.0357 13.7712 68.6269 14.0807 70.1297 14.6994C71.6323 15.2887 72.9436 16.1138 74.0634 17.1746C75.2125 18.2353 76.1112 19.5023 76.7594 20.9756C77.4371 22.4194 77.776 24.0106 77.776 25.749C77.776 27.5465 77.4371 29.1966 76.7594 30.6992C76.1112 32.202 75.2125 33.4985 74.0634 34.5887C72.9436 35.679 71.6323 36.5334 70.1297 37.1522C68.6269 37.771 67.0357 38.0805 65.3562 38.0805C63.7061 38.0805 62.1298 37.7857 60.627 37.1965C59.1537 36.5777 57.8572 35.7232 56.7375 34.6329C55.6178 33.5427 54.7338 32.2463 54.0856 30.7435C53.4373 29.2113 53.1133 27.5465 53.1133 25.749C53.1133 24.0106 53.4373 22.4047 54.0856 20.9313C54.7338 19.4581 55.6178 18.1911 56.7375 17.1304C57.8572 16.0696 59.1537 15.2446 60.627 14.6552C62.1298 14.0659 63.7061 13.7712 65.3562 13.7712ZM65.3562 15.8928C64.2659 15.8928 63.2641 16.1285 62.3507 16.5999C61.4667 17.0714 60.7006 17.7491 60.0524 18.633C59.4336 19.4876 58.9474 20.5336 58.5939 21.7712C58.2697 22.9793 58.1077 24.3199 58.1077 25.7933C58.1077 27.3255 58.2697 28.7104 58.5939 29.9478C58.9474 31.1854 59.4336 32.2463 60.0524 33.1303C60.7006 33.9847 61.4667 34.6476 62.3507 35.1191C63.2346 35.5906 64.2365 35.8263 65.3562 35.8263C66.4759 35.8263 67.4925 35.5906 68.4059 35.1191C69.3193 34.6476 70.1001 33.9699 70.7484 33.086C71.3966 32.202 71.8975 31.1413 72.2511 29.9037C72.6048 28.6661 72.7815 27.296 72.7815 25.7933C72.7815 24.3199 72.6048 22.9793 72.2511 21.7712C71.8975 20.5631 71.3966 19.5317 70.7484 18.6773C70.1001 17.7933 69.3193 17.1156 68.4059 16.6442C67.4925 16.1433 66.4759 15.8928 65.3562 15.8928Z" fill="white"/>
<path d="M89.678 30.5666C89.678 31.8042 89.7074 32.7766 89.7664 33.4837C89.8253 34.191 89.9726 34.736 90.2083 35.1191C90.4735 35.4727 90.8419 35.7085 91.3133 35.8263C91.7847 35.9442 92.4478 36.0325 93.3022 36.0915V37.6384H81.5455V36.0915C82.4 36.0325 83.0777 35.9442 83.5786 35.8263C84.0795 35.7085 84.4626 35.4727 84.7277 35.1191C84.9929 34.7655 85.155 34.2646 85.214 33.6163C85.3023 32.9387 85.3465 32.04 85.3465 30.9202V25.2629C85.3465 23.5833 85.317 22.1837 85.2581 21.0641C85.2287 19.9443 85.155 19.1782 85.0371 18.7656C84.9488 18.3826 84.8456 18.088 84.7277 17.8817C84.6099 17.646 84.4183 17.4692 84.1531 17.3513C83.8879 17.204 83.5344 17.1156 83.0924 17.0861C82.6799 17.0272 82.1348 16.9977 81.457 16.9977V15.4508L88.6614 13.7712L89.2359 18.1911H89.457C90.783 16.6883 92.1678 15.5833 93.6116 14.8762C95.0849 14.1396 96.7055 13.7712 98.4735 13.7712C100.33 13.7712 101.891 14.1543 103.159 14.9204C104.426 15.6571 105.31 16.7325 105.81 18.147H105.987C107.077 16.7621 108.403 15.6865 109.965 14.9204C111.527 14.1543 113.192 13.7712 114.96 13.7712C116.344 13.7712 117.597 14.007 118.716 14.4785C119.866 14.9204 120.735 15.5392 121.324 16.3347C121.854 17.0125 122.223 17.9112 122.429 19.0308C122.665 20.1211 122.783 21.6239 122.783 23.5391V30.5666C122.783 31.7748 122.812 32.7324 122.871 33.4396C122.959 34.1468 123.121 34.6919 123.357 35.0749C123.593 35.458 123.947 35.7085 124.418 35.8263C124.919 35.9442 125.597 36.0325 126.451 36.0915V37.6384H114.694V36.0915C115.519 36.0621 116.182 35.9884 116.683 35.8705C117.184 35.7232 117.567 35.4727 117.832 35.1191C118.098 34.736 118.26 34.2204 118.319 33.5722C118.407 32.9239 118.451 32.04 118.451 30.9202V25.3512C118.451 23.6717 118.363 22.2574 118.186 21.1082C118.009 19.9296 117.715 18.9867 117.302 18.2796C116.889 17.5429 116.344 17.0125 115.667 16.6883C115.018 16.3643 114.223 16.2021 113.28 16.2021C111.983 16.2021 110.761 16.5705 109.612 17.3071C108.492 18.0144 107.608 18.9719 106.96 20.1801C106.812 20.4747 106.68 20.7693 106.562 21.0641C106.473 21.3292 106.4 21.6386 106.341 21.9922C106.282 22.3162 106.238 22.7141 106.208 23.1855C106.208 23.657 106.208 24.2463 106.208 24.9535V30.5666C106.208 31.7748 106.238 32.7324 106.297 33.4396C106.355 34.1468 106.503 34.6919 106.739 35.0749C107.004 35.458 107.387 35.7085 107.888 35.8263C108.389 35.9442 109.066 36.0325 109.921 36.0915V37.6384H98.1641V36.0915C98.9891 36.0325 99.652 35.9442 100.153 35.8263C100.654 35.7085 101.022 35.4727 101.258 35.1191C101.523 34.7655 101.685 34.2646 101.744 33.6163C101.833 32.9387 101.877 32.04 101.877 30.9202V25.3512C101.877 23.6423 101.788 22.2132 101.612 21.0641C101.435 19.8853 101.14 18.9425 100.728 18.2353C100.345 17.4986 99.8289 16.983 99.1807 16.6883C98.5324 16.3643 97.7368 16.2021 96.7939 16.2021C95.468 16.2021 94.2157 16.5705 93.037 17.3071C91.8879 18.0144 91.0186 18.9719 90.4294 20.1801C90.2821 20.4747 90.1495 20.7693 90.0316 21.0641C89.9432 21.3292 89.8694 21.6386 89.8106 21.9922C89.7516 22.3162 89.7074 22.7141 89.678 23.1855C89.678 23.657 89.678 24.2463 89.678 24.9535V30.5666Z" fill="white"/>
<path d="M135.699 28.4008C135.699 29.5206 135.862 30.5518 136.186 31.4948C136.509 32.4082 136.952 33.2038 137.512 33.8814C138.1 34.5298 138.794 35.0454 139.589 35.4285C140.414 35.8115 141.297 36.003 142.241 36.003C143.272 36.003 144.2 35.7673 145.025 35.2959C145.88 34.8244 146.602 34.1615 147.191 33.3069C147.81 32.4229 148.281 31.3769 148.605 30.1688C148.96 28.9312 149.136 27.5611 149.136 26.0584C149.136 24.5556 148.96 23.1854 148.605 21.9478C148.252 20.6808 147.766 19.6054 147.147 18.7214C146.528 17.808 145.777 17.1008 144.892 16.5998C144.039 16.0989 143.095 15.8484 142.064 15.8484C140.856 15.8484 139.781 16.1432 138.837 16.7324C137.894 17.2923 137.172 18.0879 136.672 19.1192C136.023 20.4156 135.699 22.1983 135.699 24.4672V28.4008ZM135.611 17.3512H135.788C136.731 16.1138 137.762 15.2149 138.882 14.6551C140.03 14.0658 141.357 13.7712 142.86 13.7712C144.451 13.7712 145.924 14.0806 147.279 14.6993C148.664 15.3181 149.858 16.1726 150.86 17.2629C151.89 18.3531 152.686 19.6495 153.246 21.1523C153.836 22.6256 154.13 24.2167 154.13 25.9258C154.13 27.6642 153.836 29.2848 153.246 30.7876C152.657 32.2609 151.847 33.5427 150.815 34.6328C149.813 35.7231 148.62 36.5776 147.236 37.1964C145.851 37.8151 144.347 38.1246 142.727 38.1246C141.048 38.1246 139.471 37.8151 137.998 37.1964C136.554 36.5776 135.36 35.7378 134.418 34.6771L132.34 37.6384H131.368V10.9425C131.368 7.96644 131.176 6.0659 130.794 5.24086C130.705 5.03461 130.602 4.87254 130.484 4.75468C130.366 4.60735 130.19 4.48949 129.954 4.40109C129.717 4.28323 129.394 4.18011 128.982 4.09171C128.569 4.00331 128.009 3.91491 127.302 3.82652V2.72155L135.611 0.953613V17.3512Z" fill="white"/>
<path d="M43.8684 50.0686C44.257 49.7691 44.5403 49.4655 44.7185 49.1578C44.8965 48.8421 44.9856 48.5022 44.9856 48.1378C44.9856 47.7573 44.9006 47.4579 44.7305 47.2393C44.5606 47.0126 44.3339 46.8992 44.0505 46.8992C43.5162 46.8992 43.2491 47.308 43.2491 48.1257C43.2491 48.4818 43.3017 48.826 43.4069 49.1578C43.5121 49.4816 43.666 49.7853 43.8684 50.0686ZM43.1762 51.2102C42.6662 51.5016 42.2695 51.8456 41.9862 52.2424C41.7028 52.6309 41.5612 53.0357 41.5612 53.4566C41.5612 53.9019 41.7028 54.2702 41.9862 54.5616C42.2776 54.845 42.65 54.9867 43.1033 54.9867C43.4434 54.9867 43.8076 54.9017 44.1963 54.7317C44.5849 54.5616 44.9532 54.3228 45.3013 54.0153L43.1762 51.2102ZM46.1757 53.0923C46.37 52.8495 46.548 52.6147 46.7099 52.388C46.88 52.1533 47.0256 51.9347 47.1471 51.7322C47.2685 51.5218 47.3616 51.3315 47.4263 51.1615C47.4912 50.9916 47.5236 50.8539 47.5236 50.7487C47.5236 50.6191 47.4628 50.526 47.3414 50.4694C47.2281 50.4127 47.0419 50.3843 46.7828 50.3843V49.9594H49.5758V50.3843C49.3977 50.3843 49.2438 50.3965 49.1143 50.4208C48.9928 50.437 48.8836 50.4694 48.7864 50.5179C48.6893 50.5665 48.5962 50.6313 48.5072 50.7122C48.4263 50.7932 48.3453 50.8984 48.2642 51.0279L46.5399 53.5538C46.88 54.0153 47.2321 54.3674 47.5964 54.6103C47.9689 54.845 48.3372 54.9624 48.7014 54.9624C48.8068 54.9624 48.8998 54.9543 48.9808 54.9382C49.0617 54.9139 49.1345 54.8774 49.1993 54.8289C49.2722 54.7722 49.337 54.6994 49.3937 54.6103C49.4584 54.5212 49.5232 54.4078 49.588 54.2702L49.8915 54.3552C49.8025 54.8087 49.6041 55.1568 49.2964 55.3995C48.9889 55.6344 48.5882 55.7518 48.0943 55.7518C47.8919 55.7518 47.6977 55.7274 47.5115 55.6788C47.3333 55.6384 47.1512 55.5655 46.965 55.4603C46.7787 55.355 46.5804 55.2174 46.37 55.0475C46.1594 54.8774 45.9287 54.667 45.6777 54.416C45.273 54.8369 44.8035 55.1648 44.2691 55.3995C43.7429 55.6344 43.2046 55.7518 42.654 55.7518C42.2817 55.7518 41.9376 55.6992 41.6218 55.5938C41.3143 55.4806 41.0471 55.3308 40.8204 55.1446C40.5937 54.9503 40.4156 54.7235 40.2861 54.4645C40.1566 54.1974 40.0918 53.91 40.0918 53.6023C40.0918 53.0518 40.3104 52.5459 40.7476 52.0844C41.1848 51.6148 41.885 51.1453 42.8484 50.6758C42.5892 50.2954 42.3991 49.939 42.2776 49.6072C42.1642 49.2752 42.1076 48.9271 42.1076 48.5629C42.1076 48.2067 42.1562 47.8829 42.2533 47.5913C42.3586 47.2919 42.5043 47.0368 42.6905 46.8264C42.8767 46.6159 43.0993 46.454 43.3584 46.3406C43.6175 46.2192 43.9048 46.1584 44.2205 46.1584C44.4958 46.1584 44.7468 46.203 44.9734 46.2921C45.2081 46.3811 45.4106 46.5066 45.5806 46.6685C45.7507 46.8304 45.8802 47.0207 45.9693 47.2393C46.0664 47.4579 46.1149 47.7006 46.1149 47.9679C46.1149 48.4212 45.9652 48.8462 45.6656 49.2428C45.3741 49.6396 44.8885 50.0686 44.2084 50.5301L46.1757 53.0923Z" fill="white"/>
<path d="M59.2421 52.2422H55.9998C55.8622 52.5741 55.7447 52.8696 55.6476 53.1286C55.5504 53.3796 55.4695 53.5982 55.4048 53.7844C55.3481 53.9706 55.3076 54.1284 55.2833 54.258C55.259 54.3875 55.2469 54.4928 55.2469 54.5737C55.2469 54.8003 55.3198 54.9583 55.4655 55.0474C55.6112 55.1282 55.854 55.1687 56.1941 55.1687V55.6302H53.2432V55.1687C53.4294 55.1445 53.5873 55.1121 53.7168 55.0715C53.8544 55.0311 53.9718 54.9744 54.069 54.9016C54.1742 54.8288 54.2633 54.7356 54.3361 54.6223C54.4171 54.5009 54.4939 54.3551 54.5669 54.1851L57.7241 46.2798H58.2463L61.0029 53.1286C61.1891 53.582 61.351 53.9463 61.4886 54.2216C61.6261 54.4887 61.7598 54.6911 61.8893 54.8288C62.0188 54.9663 62.1565 55.0554 62.3021 55.0959C62.456 55.1363 62.6381 55.1566 62.8486 55.1566V55.6302H58.8899V55.1566C59.319 55.1566 59.6145 55.1161 59.7764 55.0352C59.9383 54.9542 60.0192 54.8206 60.0192 54.6345C60.0192 54.5535 60.0152 54.4806 60.007 54.4159C59.999 54.3429 59.9828 54.266 59.9585 54.1851C59.9423 54.1041 59.914 54.0152 59.8735 53.9179C59.8412 53.8127 59.7966 53.6913 59.7399 53.5537L59.2421 52.2422ZM56.2427 51.635H59.0113L57.6634 48.0527L56.2427 51.635Z" fill="white"/>
<path d="M68.3843 54.6103H68.3358C68.0443 55.0231 67.7327 55.3186 67.4008 55.4967C67.0769 55.6667 66.6924 55.7517 66.2472 55.7517C65.7857 55.7517 65.3606 55.6707 64.9721 55.5088C64.5916 55.3389 64.2597 55.1081 63.9764 54.8167C63.7011 54.5171 63.4825 54.1609 63.3206 53.748C63.1668 53.3352 63.0898 52.8858 63.0898 52.4001C63.0898 51.9225 63.1668 51.4813 63.3206 51.0765C63.4825 50.6637 63.7011 50.3114 63.9764 50.02C64.2597 49.7206 64.5957 49.4898 64.9842 49.3279C65.3728 49.1578 65.7937 49.0728 66.2472 49.0728C66.6357 49.0728 66.9797 49.1376 67.2793 49.2671C67.587 49.3966 67.8824 49.6031 68.1658 49.8864V48.6478C68.1658 48.1864 68.1577 47.8018 68.1416 47.4942C68.1334 47.1866 68.1172 46.9761 68.0929 46.8627C68.0525 46.6847 67.9391 46.5591 67.7529 46.4863C67.5667 46.4135 67.2631 46.377 66.8422 46.377V46.0128L69.3315 45.5513V52.5581C69.3315 53.1166 69.3356 53.5781 69.3437 53.9423C69.3518 54.2985 69.3761 54.5536 69.4165 54.7074C69.4408 54.8045 69.4691 54.8854 69.5015 54.9503C69.5421 55.0151 69.5947 55.0677 69.6594 55.1081C69.7323 55.1405 69.8254 55.1648 69.9387 55.1809C70.0602 55.1972 70.214 55.2052 70.4002 55.2052V55.6181L68.3843 55.7517V54.6103ZM68.1416 51.9266C68.1416 51.5055 68.1172 51.1858 68.0686 50.9672C68.0282 50.7486 67.9432 50.5583 67.8137 50.3964C67.6275 50.1536 67.3886 49.9714 67.0972 49.8501C66.8139 49.7206 66.5305 49.6557 66.2472 49.6557C65.6642 49.6557 65.219 49.8986 64.9114 50.3843C64.6118 50.862 64.4621 51.5137 64.4621 52.3395C64.4621 52.7685 64.4985 53.157 64.5714 53.5051C64.6522 53.8532 64.7656 54.1528 64.9114 54.4038C65.0651 54.6466 65.2513 54.8369 65.4699 54.9745C65.6966 55.104 65.9558 55.1688 66.2472 55.1688C66.3928 55.1688 66.5386 55.1526 66.6844 55.1203C66.8381 55.0879 66.9838 55.0392 67.1214 54.9745C67.2672 54.9017 67.4008 54.8207 67.5221 54.7317C67.6436 54.6346 67.7448 54.5253 67.8258 54.4038C67.9391 54.2257 68.0201 54.0112 68.0686 53.7602C68.1172 53.5092 68.1416 53.1652 68.1416 52.728V51.9266Z" fill="white"/>
<path d="M71.8926 50.7C71.7954 50.4573 71.7064 50.267 71.6255 50.1294C71.5527 49.9836 71.4716 49.8743 71.3826 49.8015C71.2935 49.7287 71.1924 49.6841 71.079 49.6679C70.9738 49.6437 70.8443 49.6274 70.6904 49.6194V49.1943H73.9084V49.6194C73.7465 49.6274 73.6129 49.6355 73.5077 49.6437C73.4024 49.6517 73.3174 49.672 73.2526 49.7043C73.1959 49.7287 73.1555 49.7691 73.1312 49.8258C73.107 49.8743 73.0948 49.9473 73.0948 50.0444C73.0948 50.182 73.111 50.3115 73.1433 50.433C73.1838 50.5544 73.2244 50.6759 73.2648 50.7972L74.552 54.3189H74.6006L75.7057 51.708C75.8756 51.3032 75.9971 50.9794 76.0699 50.7365C76.1427 50.4936 76.1792 50.2791 76.1792 50.0929C76.1792 49.9067 76.1306 49.7813 76.0334 49.7165C75.9363 49.6517 75.7259 49.6194 75.402 49.6194V49.1943H77.8185V49.6194C77.689 49.6194 77.5717 49.6517 77.4665 49.7165C77.3611 49.7813 77.2681 49.8621 77.1871 49.9594C77.1223 50.0484 77.0536 50.1698 76.9806 50.3237C76.9159 50.4694 76.8472 50.6231 76.7742 50.7852C76.7094 50.9471 76.6488 51.109 76.5921 51.2708C76.5354 51.4247 76.4828 51.5501 76.4342 51.6472L74.6492 55.7639H73.9448L71.8926 50.7Z" fill="white"/>
<path d="M81.7152 49.0728C82.1767 49.0728 82.6139 49.1577 83.0268 49.3278C83.4396 49.4897 83.7999 49.7164 84.1074 50.0078C84.4232 50.2992 84.6702 50.6473 84.8482 51.0521C85.0344 51.4489 85.1275 51.8859 85.1275 52.3636C85.1275 52.8575 85.0344 53.3108 84.8482 53.7236C84.6702 54.1365 84.4232 54.4928 84.1074 54.7923C83.7999 55.0918 83.4396 55.3266 83.0268 55.4966C82.6139 55.6667 82.1767 55.7516 81.7152 55.7516C81.2619 55.7516 80.8288 55.6706 80.4159 55.5087C80.0111 55.3388 79.6549 55.1039 79.3473 54.8044C79.0396 54.5048 78.7968 54.1487 78.6187 53.7358C78.4405 53.3149 78.3516 52.8575 78.3516 52.3636C78.3516 51.8859 78.4405 51.4448 78.6187 51.04C78.7968 50.6352 79.0396 50.2871 79.3473 49.9956C79.6549 49.7042 80.0111 49.4776 80.4159 49.3157C80.8288 49.1538 81.2619 49.0728 81.7152 49.0728ZM81.7152 49.6556C81.4157 49.6556 81.1404 49.7205 80.8895 49.85C80.6467 49.9795 80.4361 50.1657 80.258 50.4085C80.088 50.6434 79.9544 50.9307 79.8573 51.2707C79.7682 51.6026 79.7237 51.971 79.7237 52.3757C79.7237 52.7968 79.7682 53.1773 79.8573 53.5172C79.9544 53.8573 80.088 54.1487 80.258 54.3916C80.4361 54.6263 80.6467 54.8085 80.8895 54.9381C81.1324 55.0676 81.4077 55.1323 81.7152 55.1323C82.0229 55.1323 82.3021 55.0676 82.5531 54.9381C82.8041 54.8085 83.0186 54.6223 83.1967 54.3794C83.3749 54.1365 83.5125 53.8451 83.6096 53.505C83.7067 53.1651 83.7554 52.7886 83.7554 52.3757C83.7554 51.971 83.7067 51.6026 83.6096 51.2707C83.5125 50.9387 83.3749 50.6555 83.1967 50.4207C83.0186 50.1778 82.8041 49.9917 82.5531 49.862C82.3021 49.7244 82.0229 49.6556 81.7152 49.6556Z" fill="white"/>
<path d="M89.0413 53.0194C89.3813 53.0194 89.6444 52.8655 89.8305 52.558C90.0249 52.2503 90.1221 51.8172 90.1221 51.2586C90.1221 50.7081 90.0249 50.2831 89.8305 49.9835C89.6444 49.6759 89.3772 49.5221 89.0291 49.5221C88.681 49.5221 88.4017 49.6759 88.1912 49.9835C87.9889 50.2911 87.8876 50.7121 87.8876 51.2464C87.8876 51.7807 87.9928 52.2099 88.2034 52.5337C88.4139 52.8575 88.6932 53.0194 89.0413 53.0194ZM88.3733 54.4401C88.5677 54.4563 88.7458 54.4725 88.9077 54.4887C89.0696 54.5048 89.2275 54.5211 89.3813 54.5372C89.5432 54.5535 89.701 54.5737 89.8549 54.598C90.0168 54.6223 90.1908 54.6465 90.377 54.6708C90.9599 54.7599 91.4255 54.9866 91.7736 55.3509C92.1297 55.7071 92.3079 56.1565 92.3079 56.6988C92.3079 57.3788 92.0366 57.8969 91.4942 58.2532C90.96 58.6094 90.1827 58.7875 89.1627 58.7875C88.7093 58.7875 88.2924 58.7469 87.9119 58.6661C87.5395 58.585 87.2198 58.4677 86.9526 58.3139C86.6855 58.1682 86.475 57.9901 86.3211 57.7795C86.1755 57.5691 86.1025 57.3384 86.1025 57.0874C86.1025 56.9174 86.1309 56.7595 86.1875 56.6139C86.2442 56.4681 86.3211 56.3386 86.4183 56.2252C86.5154 56.12 86.6288 56.035 86.7583 55.9702C86.8959 55.9055 87.0376 55.8731 87.1833 55.8731C87.4586 55.8731 87.7055 55.9581 87.9241 56.128C87.7055 56.1767 87.5274 56.294 87.3898 56.4803C87.2522 56.6745 87.1833 56.8931 87.1833 57.1359C87.1833 57.4922 87.3574 57.7674 87.7055 57.9618C88.0617 58.1561 88.5636 58.2532 89.2112 58.2532C90.5956 58.2532 91.2877 57.8282 91.2877 56.9781C91.2877 56.6543 91.1784 56.3831 90.96 56.1645C90.7414 55.954 90.4822 55.8286 90.1827 55.788C89.9885 55.7638 89.786 55.7354 89.5756 55.703C89.3731 55.6787 89.1708 55.6545 88.9684 55.6302C88.7742 55.6059 88.5919 55.5857 88.422 55.5695C88.252 55.5533 88.1143 55.5371 88.0091 55.5209C87.5558 55.4723 87.2116 55.3509 86.9769 55.1567C86.7421 54.9623 86.6247 54.6952 86.6247 54.3551C86.6247 54.0717 86.7421 53.8208 86.9769 53.6022C87.2116 53.3837 87.5071 53.246 87.8633 53.1893V53.1408C87.6853 53.068 87.5193 52.9668 87.3655 52.8372C87.2116 52.6997 87.0781 52.5458 86.9648 52.3757C86.8596 52.2058 86.7744 52.0236 86.7097 51.8294C86.6449 51.6269 86.6125 51.4205 86.6125 51.2101C86.6125 50.9024 86.6692 50.619 86.7826 50.36C86.9041 50.101 87.07 49.8783 87.2805 49.6921C87.4991 49.4978 87.754 49.348 88.0456 49.2427C88.337 49.1295 88.6567 49.0728 89.0048 49.0728C89.3611 49.0728 89.6971 49.1295 90.0128 49.2427C90.3285 49.348 90.5997 49.5058 90.8264 49.7164C91.1015 49.4897 91.3444 49.3278 91.555 49.2307C91.7654 49.1254 91.9637 49.0728 92.15 49.0728C92.4414 49.0728 92.6721 49.1416 92.8421 49.2792C93.0202 49.4087 93.1093 49.5869 93.1093 49.8135C93.1093 49.9511 93.0607 50.0604 92.9635 50.1414C92.8745 50.2223 92.7612 50.2629 92.6235 50.2629C92.5102 50.2629 92.4171 50.2425 92.3442 50.2021C92.2714 50.1616 92.2026 50.1212 92.1378 50.0806C92.0811 50.0321 92.0204 49.9876 91.9557 49.9471C91.8909 49.9066 91.8099 49.8863 91.7128 49.8863C91.5185 49.8863 91.3201 49.9552 91.1178 50.0928C91.3121 50.3924 91.4092 50.7688 91.4092 51.2221C91.4092 51.9103 91.1947 52.4526 90.7656 52.8494C90.3366 53.2379 89.693 53.4646 88.8348 53.5294C88.3409 53.5698 87.9969 53.6225 87.8027 53.6873C87.6084 53.7521 87.5112 53.8694 87.5112 54.0394C87.5112 54.1689 87.5841 54.266 87.7298 54.3308C87.8755 54.3875 88.09 54.424 88.3733 54.4401Z" fill="white"/>
<path d="M97.2217 52.0358C96.7603 52.2138 96.3677 52.3879 96.0439 52.558C95.7281 52.7279 95.4731 52.8979 95.2788 53.068C95.0845 53.2379 94.9428 53.4079 94.8538 53.578C94.7729 53.748 94.7323 53.922 94.7323 54.1002C94.7323 54.3673 94.8214 54.5859 94.9996 54.7558C95.1776 54.9259 95.4124 55.0109 95.7038 55.0109C95.9144 55.0109 96.1086 54.9583 96.2867 54.853C96.4729 54.7478 96.6348 54.6061 96.7725 54.4281C96.9101 54.2418 97.0194 54.0272 97.1004 53.7844C97.1813 53.5335 97.2217 53.2703 97.2217 52.995V52.0358ZM97.2217 51.5136V51.0157C97.2217 50.028 96.8008 49.5343 95.9589 49.5343C95.8212 49.5343 95.7038 49.5464 95.6067 49.5706C95.5096 49.5949 95.4285 49.6354 95.3638 49.6921C95.299 49.7488 95.2384 49.8296 95.1817 49.935C95.133 50.0402 95.0845 50.1697 95.0359 50.3235C94.9469 50.5582 94.8579 50.7162 94.7688 50.7971C94.6878 50.87 94.5665 50.9064 94.4044 50.9064C93.9997 50.9064 93.7973 50.704 93.7973 50.2992C93.7973 49.9107 94.0037 49.6112 94.4166 49.4006C94.8295 49.1821 95.4164 49.0728 96.1774 49.0728C96.987 49.0728 97.5618 49.2185 97.9018 49.5099C98.2419 49.7933 98.4118 50.279 98.4118 50.9672V53.6873C98.4118 54.6102 98.5939 55.0716 98.9583 55.0716C99.0716 55.0716 99.1809 55.0594 99.2861 55.0352C99.3914 55.0028 99.4805 54.9259 99.5533 54.8044L99.7232 55.0959C99.6261 55.2821 99.4481 55.4399 99.1889 55.5695C98.9299 55.6909 98.6587 55.7516 98.3753 55.7516C98.0192 55.7516 97.7521 55.6383 97.5739 55.4116C97.404 55.1849 97.3188 54.8651 97.3188 54.4522H97.2582C97.0476 54.849 96.7562 55.1647 96.3838 55.3994C96.0115 55.6261 95.5986 55.7395 95.1452 55.7395C94.6352 55.7395 94.2345 55.61 93.9431 55.3509C93.6516 55.0918 93.5059 54.7437 93.5059 54.3066C93.5059 54.1123 93.5382 53.9261 93.603 53.748C93.6758 53.5698 93.7892 53.3998 93.9431 53.2379C94.0969 53.076 94.2992 52.9181 94.5502 52.7644C94.8012 52.6024 95.1088 52.4405 95.4731 52.2786L97.2217 51.5136Z" fill="white"/>
<path d="M105.586 54.6103H105.537C105.246 55.0231 104.934 55.3186 104.602 55.4967C104.278 55.6667 103.894 55.7517 103.448 55.7517C102.987 55.7517 102.562 55.6707 102.173 55.5088C101.793 55.3389 101.461 55.1081 101.178 54.8167C100.902 54.5171 100.684 54.1609 100.522 53.748C100.368 53.3352 100.291 52.8858 100.291 52.4001C100.291 51.9225 100.368 51.4813 100.522 51.0765C100.684 50.6637 100.902 50.3114 101.178 50.02C101.461 49.7206 101.797 49.4898 102.185 49.3279C102.574 49.1578 102.995 49.0728 103.448 49.0728C103.837 49.0728 104.181 49.1376 104.481 49.2671C104.788 49.3966 105.084 49.6031 105.367 49.8864V48.6478C105.367 48.1864 105.359 47.8018 105.343 47.4942C105.335 47.1866 105.318 46.9761 105.294 46.8627C105.254 46.6847 105.14 46.5591 104.954 46.4863C104.768 46.4135 104.464 46.377 104.043 46.377V46.0128L106.533 45.5513V52.5581C106.533 53.1166 106.537 53.5781 106.545 53.9423C106.553 54.2985 106.577 54.5536 106.618 54.7074C106.642 54.8045 106.67 54.8854 106.703 54.9503C106.743 55.0151 106.796 55.0677 106.861 55.1081C106.933 55.1405 107.027 55.1648 107.14 55.1809C107.261 55.1972 107.415 55.2052 107.601 55.2052V55.6181L105.586 55.7517V54.6103ZM105.343 51.9266C105.343 51.5055 105.318 51.1858 105.27 50.9672C105.229 50.7486 105.144 50.5583 105.015 50.3964C104.829 50.1536 104.59 49.9714 104.298 49.8501C104.015 49.7206 103.732 49.6557 103.448 49.6557C102.866 49.6557 102.42 49.8986 102.113 50.3843C101.813 50.862 101.663 51.5137 101.663 52.3395C101.663 52.7685 101.7 53.157 101.773 53.5051C101.854 53.8532 101.967 54.1528 102.113 54.4038C102.266 54.6466 102.453 54.8369 102.671 54.9745C102.898 55.104 103.157 55.1688 103.448 55.1688C103.594 55.1688 103.74 55.1526 103.886 55.1203C104.039 55.0879 104.185 55.0392 104.323 54.9745C104.468 54.9017 104.602 54.8207 104.723 54.7317C104.845 54.6346 104.946 54.5253 105.027 54.4038C105.14 54.2257 105.221 54.0112 105.27 53.7602C105.318 53.5092 105.343 53.1652 105.343 52.728V51.9266Z" fill="white"/>
<path d="M111.849 49.0728C112.31 49.0728 112.748 49.1577 113.161 49.3278C113.573 49.4897 113.934 49.7164 114.241 50.0078C114.557 50.2992 114.804 50.6473 114.982 51.0521C115.168 51.4489 115.261 51.8859 115.261 52.3636C115.261 52.8575 115.168 53.3108 114.982 53.7236C114.804 54.1365 114.557 54.4928 114.241 54.7923C113.934 55.0918 113.573 55.3266 113.161 55.4966C112.748 55.6667 112.31 55.7516 111.849 55.7516C111.396 55.7516 110.963 55.6706 110.55 55.5087C110.145 55.3388 109.789 55.1039 109.481 54.8044C109.174 54.5048 108.931 54.1487 108.752 53.7358C108.574 53.3149 108.485 52.8575 108.485 52.3636C108.485 51.8859 108.574 51.4448 108.752 51.04C108.931 50.6352 109.174 50.2871 109.481 49.9956C109.789 49.7042 110.145 49.4776 110.55 49.3157C110.963 49.1538 111.396 49.0728 111.849 49.0728ZM111.849 49.6556C111.55 49.6556 111.274 49.7205 111.023 49.85C110.78 49.9795 110.57 50.1657 110.392 50.4085C110.222 50.6434 110.088 50.9307 109.991 51.2707C109.902 51.6026 109.858 51.971 109.858 52.3757C109.858 52.7968 109.902 53.1773 109.991 53.5172C110.088 53.8573 110.222 54.1487 110.392 54.3916C110.57 54.6263 110.78 54.8085 111.023 54.9381C111.266 55.0676 111.541 55.1323 111.849 55.1323C112.157 55.1323 112.436 55.0676 112.687 54.9381C112.938 54.8085 113.152 54.6223 113.331 54.3794C113.509 54.1365 113.646 53.8451 113.743 53.505C113.841 53.1651 113.889 52.7886 113.889 52.3757C113.889 51.971 113.841 51.6026 113.743 51.2707C113.646 50.9387 113.509 50.6555 113.331 50.4207C113.152 50.1778 112.938 49.9917 112.687 49.862C112.436 49.7244 112.157 49.6556 111.849 49.6556Z" fill="white"/>
<path d="M116.892 55.6302H116.625V53.5415H116.929C117.244 54.683 117.819 55.2538 118.653 55.2538C118.977 55.2538 119.232 55.1769 119.418 55.023C119.612 54.8611 119.709 54.6182 119.709 54.2944C119.709 54.173 119.689 54.0717 119.649 53.9909C119.616 53.9018 119.547 53.8127 119.442 53.7236C119.345 53.6265 119.203 53.5172 119.017 53.3957C118.839 53.2744 118.6 53.1206 118.301 52.9344C118.026 52.7644 117.787 52.6065 117.584 52.4607C117.382 52.3151 117.212 52.1693 117.074 52.0236C116.937 51.8698 116.831 51.7079 116.759 51.5378C116.694 51.3679 116.661 51.1695 116.661 50.9428C116.661 50.6675 116.706 50.4166 116.795 50.1899C116.892 49.9552 117.022 49.7568 117.184 49.5949C117.346 49.433 117.536 49.3075 117.754 49.2185C117.973 49.1214 118.212 49.0728 118.471 49.0728C118.689 49.0728 118.916 49.1092 119.151 49.1821C119.386 49.2468 119.592 49.3359 119.77 49.4492L120.013 49.1942H120.244V50.9428H119.928C119.75 50.449 119.556 50.0969 119.345 49.8863C119.135 49.6759 118.876 49.5706 118.568 49.5706C118.293 49.5706 118.07 49.6436 117.9 49.7892C117.738 49.935 117.657 50.1373 117.657 50.3964C117.657 50.5341 117.677 50.6555 117.718 50.7607C117.766 50.8579 117.839 50.955 117.936 51.0521C118.034 51.1493 118.155 51.2505 118.301 51.3557C118.455 51.4528 118.637 51.5662 118.847 51.6958C119.195 51.9143 119.491 52.1086 119.734 52.2786C119.985 52.4487 120.187 52.6186 120.341 52.7886C120.495 52.9505 120.608 53.1206 120.681 53.2986C120.754 53.4768 120.79 53.6791 120.79 53.9059C120.79 54.4807 120.604 54.934 120.232 55.2658C119.859 55.5897 119.369 55.7516 118.762 55.7516C118.131 55.7516 117.588 55.5695 117.135 55.2052L116.892 55.6302Z" fill="white"/>
<path d="M91.3621 69.1138H88.1198C87.9822 69.4457 87.8647 69.7412 87.7676 70.0002C87.6704 70.2512 87.5895 70.4698 87.5248 70.656C87.4681 70.8422 87.4276 71 87.4033 71.1295C87.379 71.2591 87.3668 71.3644 87.3668 71.4453C87.3668 71.6719 87.4398 71.8299 87.5854 71.9189C87.7312 71.9998 87.974 72.0404 88.314 72.0404V72.5018H85.3633V72.0404C85.5494 72.0161 85.7073 71.9837 85.8368 71.9432C85.9744 71.9027 86.0919 71.846 86.189 71.7732C86.2942 71.7003 86.3833 71.6072 86.4561 71.4939C86.5371 71.3724 86.6139 71.2267 86.6869 71.0567L89.8441 63.1514H90.3662L93.1229 70.0002C93.3091 70.4537 93.471 70.8179 93.6086 71.0932C93.7463 71.3603 93.8797 71.5628 94.0093 71.7003C94.1388 71.8379 94.2765 71.927 94.4221 71.9674C94.576 72.008 94.7581 72.0282 94.9686 72.0282V72.5018H91.0099V72.0282C91.439 72.0282 91.7345 71.9877 91.8964 71.9068C92.0583 71.8258 92.1392 71.6923 92.1392 71.5061C92.1392 71.425 92.1352 71.3522 92.127 71.2875C92.119 71.2146 92.1028 71.1377 92.0785 71.0567C92.0623 70.9757 92.034 70.8868 91.9935 70.7896C91.9612 70.6843 91.9166 70.5628 91.8599 70.4252L91.3621 69.1138ZM88.3627 68.5067H91.1313L89.7834 64.9243L88.3627 68.5067Z" fill="white"/>
<path d="M95.8609 72.5018H95.5938V70.4131H95.8973C96.2131 71.5546 96.7878 72.1254 97.6216 72.1254C97.9456 72.1254 98.2005 72.0485 98.3867 71.8946C98.581 71.7327 98.6781 71.4898 98.6781 71.166C98.6781 71.0446 98.6579 70.9433 98.6175 70.8624C98.5851 70.7734 98.5162 70.6843 98.411 70.5952C98.3139 70.4981 98.1722 70.3888 97.986 70.2675C97.8078 70.146 97.569 69.9922 97.2696 69.806C96.9943 69.636 96.7555 69.4781 96.5531 69.3324C96.3506 69.1866 96.1807 69.0409 96.0431 68.8952C95.9054 68.7414 95.8002 68.5795 95.7274 68.4095C95.6626 68.2394 95.6302 68.0411 95.6302 67.8144C95.6302 67.5393 95.6746 67.2883 95.7637 67.0615C95.8609 66.8268 95.9904 66.6284 96.1523 66.4665C96.3143 66.3046 96.5045 66.1792 96.7231 66.0901C96.9417 65.993 97.1805 65.9443 97.4395 65.9443C97.6581 65.9443 97.8848 65.9808 98.1196 66.0536C98.3543 66.1184 98.5608 66.2075 98.7389 66.3209L98.9817 66.0658H99.2125V67.8144H98.8967C98.7186 67.3207 98.5243 66.9685 98.3139 66.7579C98.1034 66.5475 97.8443 66.4422 97.5367 66.4422C97.2614 66.4422 97.0388 66.5151 96.8688 66.6608C96.7068 66.8066 96.6259 67.0089 96.6259 67.2681C96.6259 67.4056 96.6462 67.5271 96.6866 67.6323C96.7352 67.7294 96.8081 67.8266 96.9052 67.9237C97.0023 68.0209 97.1238 68.1221 97.2696 68.2273C97.4234 68.3244 97.6055 68.4378 97.8159 68.5673C98.164 68.7859 98.4595 68.9802 98.7024 69.1502C98.9534 69.3203 99.1558 69.4902 99.3096 69.6602C99.4634 69.8222 99.5768 69.9922 99.6496 70.1703C99.7225 70.3483 99.7589 70.5508 99.7589 70.7775C99.7589 71.3522 99.5727 71.8055 99.2003 72.1375C98.8279 72.4613 98.3381 72.6232 97.7309 72.6232C97.0995 72.6232 96.5571 72.4411 96.1038 72.0767L95.8609 72.5018Z" fill="white"/>
<path d="M101.376 72.5018H101.108V70.4131H101.412C101.728 71.5546 102.303 72.1254 103.136 72.1254C103.46 72.1254 103.715 72.0485 103.901 71.8946C104.096 71.7327 104.193 71.4898 104.193 71.166C104.193 71.0446 104.173 70.9433 104.132 70.8624C104.1 70.7734 104.031 70.6843 103.926 70.5952C103.829 70.4981 103.687 70.3888 103.501 70.2675C103.323 70.146 103.084 69.9922 102.784 69.806C102.509 69.636 102.27 69.4781 102.068 69.3324C101.865 69.1866 101.695 69.0409 101.558 68.8952C101.42 68.7414 101.315 68.5795 101.242 68.4095C101.177 68.2394 101.145 68.0411 101.145 67.8144C101.145 67.5393 101.189 67.2883 101.278 67.0615C101.376 66.8268 101.505 66.6284 101.667 66.4665C101.829 66.3046 102.019 66.1792 102.238 66.0901C102.456 65.993 102.695 65.9443 102.954 65.9443C103.173 65.9443 103.4 65.9808 103.634 66.0536C103.869 66.1184 104.076 66.2075 104.254 66.3209L104.496 66.0658H104.727V67.8144H104.412C104.233 67.3207 104.039 66.9685 103.829 66.7579C103.618 66.5475 103.359 66.4422 103.051 66.4422C102.776 66.4422 102.554 66.5151 102.383 66.6608C102.222 66.8066 102.141 67.0089 102.141 67.2681C102.141 67.4056 102.161 67.5271 102.201 67.6323C102.25 67.7294 102.323 67.8266 102.42 67.9237C102.517 68.0209 102.639 68.1221 102.784 68.2273C102.938 68.3244 103.12 68.4378 103.331 68.5673C103.679 68.7859 103.974 68.9802 104.217 69.1502C104.468 69.3203 104.671 69.4902 104.824 69.6602C104.978 69.8222 105.091 69.9922 105.164 70.1703C105.237 70.3483 105.274 70.5508 105.274 70.7775C105.274 71.3522 105.087 71.8055 104.715 72.1375C104.343 72.4613 103.853 72.6232 103.246 72.6232C102.614 72.6232 102.072 72.4411 101.619 72.0767L101.376 72.5018Z" fill="white"/>
<path d="M109.792 65.9443C110.253 65.9443 110.69 66.0293 111.103 66.1994C111.516 66.3613 111.876 66.588 112.184 66.8794C112.499 67.1708 112.746 67.5189 112.924 67.9237C113.111 68.3205 113.204 68.7576 113.204 69.2353C113.204 69.729 113.111 70.1823 112.924 70.5952C112.746 71.0082 112.499 71.3644 112.184 71.6639C111.876 71.9635 111.516 72.1982 111.103 72.3682C110.69 72.5382 110.253 72.6232 109.792 72.6232C109.338 72.6232 108.905 72.5422 108.492 72.3803C108.087 72.2104 107.731 71.9756 107.423 71.676C107.116 71.3766 106.873 71.0202 106.695 70.6074C106.517 70.1864 106.428 69.729 106.428 69.2353C106.428 68.7576 106.517 68.3164 106.695 67.9116C106.873 67.5069 107.116 67.1588 107.423 66.8672C107.731 66.5758 108.087 66.3491 108.492 66.1872C108.905 66.0253 109.338 65.9443 109.792 65.9443ZM109.792 66.5273C109.492 66.5273 109.217 66.5921 108.966 66.7216C108.723 66.8511 108.512 67.0373 108.334 67.2801C108.164 67.5149 108.031 67.8023 107.933 68.1423C107.844 68.4743 107.8 68.8426 107.8 69.2473C107.8 69.6684 107.844 70.0489 107.933 70.3888C108.031 70.7288 108.164 71.0202 108.334 71.2632C108.512 71.4979 108.723 71.6801 108.966 71.8096C109.209 71.9392 109.484 72.0039 109.792 72.0039C110.099 72.0039 110.378 71.9392 110.629 71.8096C110.88 71.6801 111.095 71.4939 111.273 71.251C111.451 71.0082 111.589 70.7167 111.686 70.3768C111.783 70.0367 111.832 69.6602 111.832 69.2473C111.832 68.8426 111.783 68.4743 111.686 68.1423C111.589 67.8104 111.451 67.5271 111.273 67.2922C111.095 67.0495 110.88 66.8632 110.629 66.7337C110.378 66.596 110.099 66.5273 109.792 66.5273Z" fill="white"/>
<path d="M119.935 71.4939C119.644 71.8501 119.268 72.1293 118.806 72.3318C118.345 72.5261 117.847 72.6232 117.312 72.6232C116.883 72.6232 116.487 72.5463 116.122 72.3925C115.766 72.2306 115.458 72.008 115.199 71.7247C114.94 71.4331 114.738 71.085 114.592 70.6803C114.455 70.2755 114.386 69.8262 114.386 69.3324C114.386 68.8142 114.467 68.3487 114.629 67.9359C114.791 67.5149 115.017 67.1588 115.309 66.8672C115.608 66.5677 115.964 66.3411 116.377 66.1872C116.798 66.0253 117.26 65.9443 117.762 65.9443C118.077 65.9443 118.365 65.9727 118.624 66.0293C118.883 66.0779 119.105 66.1508 119.292 66.2479C119.486 66.337 119.636 66.4504 119.741 66.588C119.846 66.7175 119.899 66.8592 119.899 67.013C119.899 67.1749 119.846 67.3004 119.741 67.3894C119.636 67.4785 119.49 67.523 119.304 67.523C119.158 67.523 119.037 67.4947 118.94 67.438C118.842 67.3733 118.717 67.2355 118.563 67.0251C118.401 66.8389 118.243 66.7094 118.09 66.6366C117.944 66.5556 117.754 66.5151 117.519 66.5151C116.944 66.5151 116.507 66.7377 116.207 67.183C115.916 67.6282 115.77 68.284 115.77 69.1502C115.77 70.0812 115.932 70.7896 116.256 71.2753C116.588 71.7529 117.07 71.9918 117.701 71.9918C118.041 71.9918 118.361 71.927 118.66 71.7975C118.96 71.6599 119.263 71.4413 119.571 71.1417L119.935 71.4939Z" fill="white"/>
<path d="M123.07 70.571C123.07 70.8867 123.082 71.1417 123.106 71.336C123.138 71.5222 123.195 71.6719 123.276 71.7853C123.357 71.8905 123.47 71.9635 123.616 72.0039C123.762 72.0443 123.956 72.0687 124.199 72.0767V72.5017H120.714V72.0767C120.957 72.0687 121.155 72.0443 121.309 72.0039C121.463 71.9553 121.58 71.8824 121.661 71.7853C121.75 71.6801 121.807 71.5384 121.831 71.3603C121.863 71.1741 121.88 70.9393 121.88 70.656V69.1016C121.88 68.6321 121.871 68.2475 121.855 67.948C121.847 67.6403 121.827 67.4299 121.795 67.3165C121.754 67.1303 121.661 67.0049 121.515 66.9401C121.37 66.8672 121.094 66.8308 120.689 66.8308V66.4058L123.07 65.9443V70.571ZM121.673 63.4792C121.673 63.2687 121.746 63.0907 121.892 62.9449C122.037 62.7993 122.216 62.7263 122.426 62.7263C122.636 62.7263 122.815 62.7993 122.96 62.9449C123.106 63.0907 123.179 63.2687 123.179 63.4792C123.179 63.6898 123.106 63.8678 122.96 64.0136C122.815 64.1592 122.636 64.2322 122.426 64.2322C122.216 64.2322 122.037 64.1592 121.892 64.0136C121.746 63.8678 121.673 63.6898 121.673 63.4792Z" fill="white"/>
<path d="M128.678 68.9074C128.216 69.0854 127.824 69.2595 127.5 69.4296C127.184 69.5995 126.929 69.7695 126.735 69.9396C126.541 70.1095 126.399 70.2796 126.31 70.4496C126.229 70.6195 126.188 70.7936 126.188 70.9717C126.188 71.2388 126.277 71.4574 126.456 71.6275C126.634 71.7975 126.868 71.8825 127.16 71.8825C127.37 71.8825 127.565 71.8299 127.743 71.7247C127.929 71.6193 128.091 71.4777 128.229 71.2996C128.366 71.1134 128.475 70.8989 128.556 70.656C128.637 70.405 128.678 70.1419 128.678 69.8667V68.9074ZM128.678 68.3852V67.8874C128.678 66.8996 128.257 66.4058 127.415 66.4058C127.277 66.4058 127.16 66.418 127.063 66.4422C126.966 66.4665 126.885 66.5071 126.82 66.5636C126.755 66.6203 126.694 66.7014 126.638 66.8066C126.589 66.9118 126.541 67.0413 126.492 67.1951C126.403 67.43 126.314 67.5878 126.225 67.6688C126.144 67.7416 126.023 67.7781 125.861 67.7781C125.456 67.7781 125.253 67.5756 125.253 67.1708C125.253 66.7822 125.46 66.4828 125.873 66.2722C126.286 66.0536 126.873 65.9443 127.634 65.9443C128.443 65.9443 129.018 66.0901 129.358 66.3815C129.697 66.6649 129.867 67.1506 129.867 67.8387V70.5589C129.867 71.4818 130.05 71.9433 130.414 71.9433C130.528 71.9433 130.637 71.9311 130.742 71.9068C130.848 71.8744 130.936 71.7975 131.009 71.676L131.179 71.9674C131.082 72.1537 130.904 72.3116 130.646 72.4411C130.386 72.5626 130.114 72.6232 129.832 72.6232C129.476 72.6232 129.208 72.5098 129.03 72.2832C128.86 72.0565 128.775 71.7368 128.775 71.3238H128.714C128.504 71.7206 128.212 72.0363 127.84 72.271C127.468 72.4978 127.055 72.6111 126.601 72.6111C126.091 72.6111 125.691 72.4816 125.399 72.2225C125.108 71.9635 124.962 71.6154 124.962 71.1782C124.962 70.9839 124.994 70.7977 125.059 70.6195C125.132 70.4415 125.245 70.2714 125.399 70.1095C125.553 69.9476 125.755 69.7898 126.006 69.636C126.257 69.4741 126.565 69.3122 126.929 69.1502L128.678 68.3852Z" fill="white"/>
<path d="M137.041 71.4816H136.992C136.7 71.8945 136.389 72.19 136.058 72.368C135.734 72.5381 135.349 72.6231 134.903 72.6231C134.443 72.6231 134.018 72.5421 133.629 72.3802C133.249 72.2102 132.916 71.9794 132.633 71.688C132.358 71.3885 132.139 71.0322 131.978 70.6194C131.823 70.2065 131.746 69.7573 131.746 69.2715C131.746 68.7938 131.823 68.3527 131.978 67.9479C132.139 67.535 132.358 67.1828 132.633 66.8914C132.916 66.5919 133.252 66.3611 133.64 66.1992C134.029 66.0292 134.45 65.9442 134.903 65.9442C135.292 65.9442 135.637 66.0089 135.936 66.1385C136.243 66.268 136.539 66.4744 136.822 66.7578V65.5191C136.822 65.0578 136.814 64.6732 136.798 64.3655C136.79 64.058 136.773 63.8474 136.749 63.7342C136.709 63.556 136.595 63.4305 136.41 63.3577C136.223 63.2848 135.92 63.2484 135.499 63.2484V62.8841L137.988 62.4226V69.4294C137.988 69.9879 137.992 70.4494 138.001 70.8137C138.008 71.17 138.033 71.4249 138.074 71.5787C138.098 71.6759 138.126 71.7569 138.158 71.8216C138.199 71.8864 138.251 71.939 138.315 71.9794C138.388 72.0118 138.482 72.0361 138.596 72.0523C138.717 72.0685 138.871 72.0766 139.056 72.0766V72.4895L137.041 72.6231V71.4816ZM136.798 68.7979C136.798 68.377 136.773 68.0572 136.725 67.8386C136.685 67.62 136.599 67.4298 136.47 67.2679C136.284 67.025 136.045 66.8429 135.753 66.7214C135.47 66.5919 135.188 66.5271 134.903 66.5271C134.321 66.5271 133.876 66.7699 133.567 67.2557C133.268 67.7334 133.118 68.3851 133.118 69.2108C133.118 69.6398 133.155 70.0285 133.228 70.3766C133.309 70.7247 133.423 71.0242 133.567 71.2752C133.722 71.5181 133.908 71.7082 134.127 71.8458C134.353 71.9755 134.612 72.0402 134.903 72.0402C135.049 72.0402 135.195 72.024 135.341 71.9916C135.495 71.9592 135.641 71.9106 135.778 71.8458C135.923 71.773 136.058 71.6921 136.178 71.603C136.3 71.5059 136.401 71.3966 136.483 71.2752C136.595 71.097 136.677 70.8825 136.725 70.6315C136.773 70.3806 136.798 70.0365 136.798 69.5994V68.7979Z" fill="white"/>
<path d="M143.305 65.9443C143.767 65.9443 144.203 66.0293 144.617 66.1994C145.03 66.3613 145.39 66.588 145.697 66.8794C146.013 67.1708 146.26 67.5189 146.438 67.9237C146.625 68.3205 146.717 68.7576 146.717 69.2353C146.717 69.729 146.625 70.1823 146.438 70.5952C146.26 71.0082 146.013 71.3644 145.697 71.6639C145.39 71.9635 145.03 72.1982 144.617 72.3682C144.203 72.5382 143.767 72.6232 143.305 72.6232C142.852 72.6232 142.419 72.5422 142.006 72.3803C141.601 72.2104 141.244 71.9756 140.937 71.676C140.63 71.3766 140.387 71.0202 140.209 70.6074C140.031 70.1864 139.941 69.729 139.941 69.2353C139.941 68.7576 140.031 68.3164 140.209 67.9116C140.387 67.5069 140.63 67.1588 140.937 66.8672C141.244 66.5758 141.601 66.3491 142.006 66.1872C142.419 66.0253 142.852 65.9443 143.305 65.9443ZM143.305 66.5273C143.005 66.5273 142.73 66.5921 142.479 66.7216C142.236 66.8511 142.026 67.0373 141.848 67.2801C141.678 67.5149 141.544 67.8023 141.448 68.1423C141.358 68.4743 141.313 68.8426 141.313 69.2473C141.313 69.6684 141.358 70.0489 141.448 70.3888C141.544 70.7288 141.678 71.0202 141.848 71.2632C142.026 71.4979 142.236 71.6801 142.479 71.8096C142.722 71.9392 142.998 72.0039 143.305 72.0039C143.613 72.0039 143.892 71.9392 144.143 71.8096C144.394 71.6801 144.609 71.4939 144.787 71.251C144.965 71.0082 145.103 70.7167 145.199 70.3768C145.296 70.0367 145.345 69.6602 145.345 69.2473C145.345 68.8426 145.296 68.4743 145.199 68.1423C145.103 67.8104 144.965 67.5271 144.787 67.2922C144.609 67.0495 144.394 66.8632 144.143 66.7337C143.892 66.596 143.613 66.5273 143.305 66.5273Z" fill="white"/>
<path d="M148.349 72.5018H148.081V70.4131H148.384C148.7 71.5546 149.275 72.1254 150.11 72.1254C150.433 72.1254 150.688 72.0485 150.874 71.8946C151.068 71.7327 151.165 71.4898 151.165 71.166C151.165 71.0446 151.145 70.9433 151.105 70.8624C151.072 70.7734 151.004 70.6843 150.898 70.5952C150.801 70.4981 150.66 70.3888 150.473 70.2675C150.295 70.146 150.056 69.9922 149.756 69.806C149.481 69.636 149.243 69.4781 149.041 69.3324C148.837 69.1866 148.668 69.0409 148.53 68.8952C148.393 68.7414 148.287 68.5795 148.214 68.4095C148.15 68.2394 148.117 68.0411 148.117 67.8144C148.117 67.5393 148.162 67.2883 148.251 67.0615C148.349 66.8268 148.478 66.6284 148.639 66.4665C148.802 66.3046 148.992 66.1792 149.21 66.0901C149.429 65.993 149.668 65.9443 149.927 65.9443C150.145 65.9443 150.372 65.9808 150.607 66.0536C150.842 66.1184 151.048 66.2075 151.226 66.3209L151.469 66.0658H151.7V67.8144H151.384C151.206 67.3207 151.012 66.9685 150.801 66.7579C150.591 66.5475 150.331 66.4422 150.024 66.4422C149.749 66.4422 149.526 66.5151 149.356 66.6608C149.195 66.8066 149.114 67.0089 149.114 67.2681C149.114 67.4056 149.133 67.5271 149.174 67.6323C149.223 67.7294 149.296 67.8266 149.393 67.9237C149.49 68.0209 149.612 68.1221 149.756 68.2273C149.911 68.3244 150.093 68.4378 150.303 68.5673C150.651 68.7859 150.947 68.9802 151.19 69.1502C151.441 69.3203 151.643 69.4902 151.796 69.6602C151.951 69.8222 152.064 69.9922 152.137 70.1703C152.21 70.3483 152.246 70.5508 152.246 70.7775C152.246 71.3522 152.06 71.8055 151.688 72.1375C151.315 72.4613 150.825 72.6232 150.218 72.6232C149.587 72.6232 149.045 72.4411 148.592 72.0767L148.349 72.5018Z" fill="white"/>
<path d="M0.8125 51.5305H34.9815" stroke="white" stroke-width="1.27982"/>
<path d="M157.981 69.4392H192.15" stroke="white" stroke-width="1.27982"/>
</g>
<defs>
<clipPath id="clip0_1066_1021">
<rect width="191.974" height="72.95" fill="white" transform="translate(0.8125)"/>
</clipPath>
</defs>
</svg>
