<svg width="92" height="24" viewBox="0 0 92 24" fill="none" xmlns="http://www.w3.org/2000/svg">
<path d="M9.76007 23.1238C8.25713 23.1238 6.90452 22.8852 5.70219 22.4079C4.49987 21.9306 3.47436 21.2589 2.62566 20.3926C1.77696 19.5087 1.12276 18.4392 0.663046 17.1841C0.221015 15.9289 0 14.5324 0 12.9945C0 11.3858 0.247537 9.91845 0.742611 8.59262C1.23768 7.26678 1.92725 6.12656 2.81131 5.17195C3.71305 4.21734 4.78277 3.48371 6.02045 2.97105C7.27582 2.4407 8.65496 2.17554 10.1579 2.17554C11.2187 2.17554 12.2177 2.3258 13.1548 2.62632C14.0919 2.92685 15.1086 3.41299 16.2049 4.08475L16.7618 2.4407H17.69L17.3453 8.53959H16.0722C16.0722 7.67338 15.9043 6.9309 15.5683 6.31218C15.25 5.67577 14.8257 5.15427 14.2953 4.74767C13.7648 4.34109 13.1548 4.04056 12.4653 3.8461C11.7934 3.65164 11.1038 3.55442 10.3966 3.55442C9.318 3.55442 8.35437 3.76656 7.50568 4.19083C6.65698 4.6151 5.94089 5.22498 5.35741 6.02049C4.77393 6.816 4.32306 7.78828 4.0048 8.93735C3.70422 10.0864 3.55393 11.3858 3.55393 12.8354C3.55393 15.6815 4.14625 17.8735 5.33089 19.4115C6.51553 20.9318 8.23061 21.692 10.4761 21.692C11.3248 21.692 12.0851 21.5947 12.757 21.4003C13.4289 21.1882 13.9947 20.9142 14.4544 20.5782C14.9318 20.2247 15.2854 19.8269 15.5152 19.385C15.7628 18.9254 15.8865 18.4481 15.8865 17.9531C15.8865 16.9278 15.6744 16.2383 15.25 15.8848C14.8434 15.5135 14.1715 15.3279 13.2344 15.3279V14.3202H20.7666V15.3279C20.3422 15.3279 19.9886 15.3632 19.7057 15.434C19.4228 15.5047 19.1929 15.6373 19.0162 15.8317C18.857 16.0085 18.7421 16.2472 18.6714 16.5477C18.6183 16.8482 18.5918 17.2283 18.5918 17.6879V20.6578C18.2558 20.6578 17.9465 20.6755 17.6635 20.7108C17.3983 20.7286 17.1154 20.7904 16.8149 20.8964C16.5143 20.9848 16.1783 21.1174 15.807 21.2943C15.4533 21.4534 15.029 21.6743 14.534 21.9571C13.9151 22.3107 13.199 22.5935 12.3857 22.8057C11.59 23.0178 10.7148 23.1238 9.76007 23.1238Z" fill="#4C4C4C"/>
<path d="M27.0288 18.722C27.0288 19.3937 27.0554 19.9329 27.1084 20.3395C27.1614 20.7461 27.2675 21.0643 27.4266 21.2942C27.6035 21.5239 27.8422 21.683 28.1428 21.7715C28.461 21.8598 28.8765 21.9128 29.3893 21.9306V22.8586H22.0693V21.9306C22.5997 21.9128 23.024 21.8598 23.3424 21.7715C23.6606 21.6654 23.9081 21.5063 24.0849 21.2942C24.2795 21.082 24.4032 20.7903 24.4562 20.4191C24.5269 20.0302 24.5623 19.5263 24.5623 18.9076V7.47883C24.5623 6.52422 24.5447 5.72872 24.5093 5.09231C24.4916 4.43822 24.4562 3.99628 24.4032 3.76647C24.3148 3.35987 24.1026 3.08587 23.7667 2.94445C23.4484 2.80302 22.8649 2.73231 22.0162 2.73231V1.83074L27.0288 0.849609V18.722Z" fill="#4C4C4C"/>
<path d="M38.7301 8.53955C39.7379 8.53955 40.6927 8.72517 41.5945 9.0964C42.4962 9.44996 43.283 9.94492 43.9549 10.5814C44.6444 11.2178 45.1837 11.9779 45.5728 12.8618C45.9793 13.728 46.1827 14.6826 46.1827 15.7256C46.1827 16.804 45.9793 17.794 45.5728 18.6955C45.1837 19.5971 44.6444 20.3749 43.9549 21.029C43.283 21.6831 42.4962 22.1958 41.5945 22.567C40.6927 22.9382 39.7379 23.1238 38.7301 23.1238C37.7399 23.1238 36.794 22.9471 35.8922 22.5935C35.0082 22.2223 34.2302 21.7096 33.5583 21.0555C32.8864 20.4015 32.356 19.6236 31.967 18.722C31.5781 17.8028 31.3835 16.804 31.3835 15.7256C31.3835 14.6826 31.5781 13.7192 31.967 12.8353C32.356 11.9513 32.8864 11.1913 33.5583 10.5549C34.2302 9.91841 35.0082 9.42345 35.8922 9.06988C36.794 8.71633 37.7399 8.53955 38.7301 8.53955ZM38.7301 9.81234C38.0759 9.81234 37.4747 9.95379 36.9266 10.2366C36.3961 10.5195 35.9365 10.9261 35.5475 11.4564C35.1762 11.9691 34.8845 12.5966 34.6723 13.3391C34.4778 14.0639 34.3805 14.8683 34.3805 15.7521C34.3805 16.6714 34.4778 17.5023 34.6723 18.2447C34.8845 18.9872 35.1762 19.6236 35.5475 20.1539C35.9365 20.6666 36.3961 21.0644 36.9266 21.3472C37.4571 21.6301 38.0582 21.7715 38.7301 21.7715C39.4019 21.7715 40.012 21.6301 40.5601 21.3472C41.1082 21.0644 41.5767 20.6577 41.9658 20.1274C42.3547 19.5971 42.6553 18.9606 42.8675 18.2182C43.0796 17.4758 43.1858 16.6537 43.1858 15.7521C43.1858 14.8683 43.0796 14.0639 42.8675 13.3391C42.6553 12.6143 42.3547 11.9956 41.9658 11.4829C41.5767 10.9526 41.1082 10.546 40.5601 10.2631C40.012 9.96266 39.4019 9.81234 38.7301 9.81234Z" fill="#4C4C4C"/>
<path d="M53.325 18.6159C53.325 19.3585 53.3426 19.9418 53.378 20.3661C53.4134 20.7903 53.5019 21.1174 53.6432 21.3472C53.8024 21.5594 54.0234 21.7007 54.3064 21.7715C54.5892 21.8422 54.987 21.8952 55.4998 21.9306V22.8586H48.445V21.9306C48.9578 21.8952 49.3645 21.8422 49.665 21.7715C49.9656 21.7007 50.1955 21.5594 50.3546 21.3472C50.5137 21.135 50.6109 20.8346 50.6463 20.4456C50.6994 20.039 50.7259 19.4998 50.7259 18.8281V15.434C50.7259 14.4263 50.7082 13.5866 50.6728 12.9149C50.6552 12.2431 50.6109 11.7835 50.5402 11.536C50.4872 11.3062 50.4253 11.1294 50.3546 11.0056C50.2838 10.8642 50.1689 10.7581 50.0098 10.6875C49.8506 10.599 49.6384 10.546 49.3732 10.5284C49.1257 10.493 48.7986 10.4752 48.392 10.4752V9.54719L52.715 8.53955L53.0598 11.1913H53.1924C53.988 10.2896 54.819 9.62674 55.6854 9.20247C56.5695 8.76053 57.542 8.53955 58.6029 8.53955C59.7168 8.53955 60.6539 8.76936 61.4142 9.22899C62.1745 9.67093 62.7049 10.3161 63.0055 11.1647H63.1116C63.7657 10.3339 64.5615 9.68862 65.4985 9.22899C66.4356 8.76936 67.4347 8.53955 68.4955 8.53955C69.3265 8.53955 70.0779 8.68097 70.7498 8.96382C71.4395 9.22899 71.961 9.60023 72.3146 10.0775C72.6329 10.4841 72.8539 11.0233 72.9777 11.6951C73.1191 12.3492 73.1898 13.2507 73.1898 14.3998V18.6159C73.1898 19.3407 73.2076 19.9153 73.2429 20.3396C73.2959 20.7638 73.3932 21.0909 73.5346 21.3207C73.6761 21.5505 73.8882 21.7007 74.1712 21.7715C74.4718 21.8422 74.8784 21.8952 75.3911 21.9306V22.8586H68.3364V21.9306C68.8315 21.9129 69.2293 21.8687 69.5299 21.798C69.8304 21.7096 70.0603 21.5594 70.2194 21.3472C70.3785 21.1174 70.4757 20.8081 70.5111 20.4191C70.5642 20.0302 70.5907 19.4998 70.5907 18.8281V15.487C70.5907 14.4793 70.5377 13.6308 70.4316 12.9414C70.3255 12.2342 70.1487 11.6685 69.9012 11.2443C69.6536 10.8023 69.3265 10.4841 68.9198 10.2896C68.5309 10.0952 68.0535 9.99795 67.4877 9.99795C66.7097 9.99795 65.9759 10.2189 65.2864 10.6609C64.6145 11.0852 64.084 11.6597 63.695 12.3845C63.6066 12.5613 63.5271 12.738 63.4564 12.9149C63.4033 13.074 63.3591 13.2596 63.3238 13.4717C63.2884 13.6662 63.2618 13.9048 63.2442 14.1876C63.2442 14.4705 63.2442 14.8241 63.2442 15.2483V18.6159C63.2442 19.3407 63.2618 19.9153 63.2972 20.3396C63.3325 20.7638 63.421 21.0909 63.5624 21.3207C63.7216 21.5505 63.9514 21.7007 64.252 21.7715C64.5526 21.8422 64.9593 21.8952 65.472 21.9306V22.8586H58.4172V21.9306C58.9123 21.8952 59.3101 21.8422 59.6107 21.7715C59.9113 21.7007 60.1323 21.5594 60.2737 21.3472C60.4328 21.135 60.5301 20.8346 60.5654 20.4456C60.6186 20.039 60.6451 19.4998 60.6451 18.8281V15.487C60.6451 14.4617 60.592 13.6043 60.486 12.9149C60.3798 12.2077 60.203 11.642 59.9554 11.2178C59.7256 10.7758 59.4162 10.4665 59.0272 10.2896C58.6382 10.0952 58.1608 9.99795 57.595 9.99795C56.7994 9.99795 56.0479 10.2189 55.3407 10.6609C54.6511 11.0852 54.1295 11.6597 53.7759 12.3845C53.6875 12.5613 53.6079 12.738 53.5372 12.9149C53.4841 13.074 53.44 13.2596 53.4046 13.4717C53.3692 13.6662 53.3427 13.9048 53.325 14.1876C53.325 14.4705 53.325 14.8241 53.325 15.2483V18.6159Z" fill="#4C4C4C"/>
<path d="M80.9407 17.3166C80.9407 17.9884 81.0379 18.6071 81.2324 19.1728C81.4269 19.7208 81.6921 20.1981 82.028 20.6047C82.3817 20.9936 82.7972 21.303 83.2746 21.5328C83.7696 21.7626 84.3001 21.8775 84.8659 21.8775C85.4847 21.8775 86.0417 21.7361 86.5367 21.4533C87.0495 21.1704 87.4827 20.7726 87.8363 20.26C88.2076 19.7297 88.4905 19.1021 88.685 18.3773C88.8972 17.6348 89.0033 16.8127 89.0033 15.9112C89.0033 15.0097 88.8972 14.1876 88.685 13.4451C88.4728 12.685 88.1811 12.0397 87.8098 11.5094C87.4385 10.9613 86.9876 10.5371 86.4572 10.2366C85.9444 9.9361 85.3786 9.7858 84.7598 9.7858C84.0348 9.7858 83.3895 9.96262 82.8237 10.3161C82.258 10.652 81.8247 11.1293 81.5241 11.748C81.1351 12.5259 80.9407 13.5954 80.9407 14.9566V17.3166ZM80.8877 10.6874H80.9937C81.5595 9.94488 82.1784 9.40572 82.8502 9.06984C83.5398 8.71629 84.3354 8.53951 85.2372 8.53951C86.192 8.53951 87.076 8.72513 87.8894 9.09636C88.7204 9.4676 89.4365 9.98027 90.0378 10.6344C90.6561 11.2884 91.1336 12.0662 91.4696 12.9679C91.8235 13.8517 92 14.8063 92 15.8317C92 16.8746 91.8235 17.8469 91.4696 18.7485C91.1166 19.6324 90.6301 20.4014 90.011 21.0554C89.4099 21.7096 88.6939 22.2222 87.8629 22.5934C87.0319 22.9647 86.1301 23.1503 85.1577 23.1503C84.1498 23.1503 83.2038 22.9647 82.3198 22.5934C81.4534 22.2222 80.7373 21.7184 80.1715 21.082L78.925 22.8586H78.3415V6.84243C78.3415 5.05696 78.2266 3.91673 77.9967 3.42175C77.9437 3.298 77.8818 3.20077 77.8111 3.13007C77.7404 3.04168 77.6343 2.97096 77.4928 2.91793C77.3513 2.84722 77.1569 2.78534 76.9094 2.73231C76.6618 2.67928 76.3258 2.62624 75.9015 2.57321V1.91029L80.8877 0.849609V10.6874Z" fill="#4C4C4C"/>
</svg>
