<svg width="105" height="35" viewBox="0 0 105 35" fill="none" xmlns="http://www.w3.org/2000/svg">
<g filter="url(#filter0_d_376_57)">
<path d="M15.8662 25.9727C14.3469 25.9727 12.9796 25.7265 11.7642 25.2343C10.5488 24.742 9.51212 24.0492 8.6542 23.1558C7.79627 22.2442 7.13496 21.1412 6.67025 19.8467C6.22342 18.5521 6 17.1118 6 15.5256C6 13.8665 6.25023 12.3532 6.75068 10.9858C7.25114 9.61833 7.9482 8.44235 8.84187 7.4578C9.75341 6.47327 10.8348 5.71662 12.0859 5.18789C13.3549 4.64091 14.749 4.36743 16.2683 4.36743C17.3407 4.36743 18.3505 4.52241 19.2978 4.83235C20.2451 5.1423 21.2728 5.64369 22.381 6.33652L22.944 4.64091H23.8823L23.5338 10.9311H22.2469C22.2469 10.0377 22.0771 9.27192 21.7375 8.63379C21.4158 7.97743 20.9869 7.43958 20.4507 7.02023C19.9144 6.60089 19.2978 6.29094 18.6008 6.09039C17.9216 5.88983 17.2245 5.78956 16.5096 5.78956C15.4193 5.78956 14.4452 6.00834 13.5873 6.44592C12.7293 6.88349 12.0055 7.5125 11.4156 8.33296C10.8258 9.15341 10.37 10.1562 10.0483 11.3413C9.74448 12.5264 9.59256 13.8665 9.59256 15.3615C9.59256 18.2969 10.1913 20.5577 11.3888 22.1439C12.5864 23.7119 14.3201 24.4959 16.59 24.4959C17.4479 24.4959 18.2165 24.3956 18.8957 24.1951C19.5749 23.9763 20.1468 23.6937 20.6115 23.3472C21.0941 22.9826 21.4516 22.5724 21.6839 22.1166C21.9341 21.6425 22.0592 21.1503 22.0592 20.6398C22.0592 19.5823 21.8447 18.8712 21.4158 18.5066C21.0047 18.1237 20.3255 17.9323 19.3782 17.9323V16.893H26.9923V17.9323C26.5633 17.9323 26.2059 17.9687 25.9199 18.0417C25.634 18.1146 25.4016 18.2513 25.2229 18.4519C25.062 18.6342 24.9458 18.8804 24.8743 19.1903C24.8207 19.5002 24.7939 19.8922 24.7939 20.3663V23.4293C24.4543 23.4293 24.1415 23.4476 23.8555 23.484C23.5874 23.5023 23.3015 23.566 22.9976 23.6754C22.6938 23.7666 22.3541 23.9033 21.9788 24.0857C21.6213 24.2498 21.1924 24.4776 20.692 24.7694C20.0664 25.134 19.3425 25.4257 18.5203 25.6445C17.716 25.8633 16.8313 25.9727 15.8662 25.9727Z" fill="white"/>
<path d="M33.3226 21.4328C33.3226 22.1256 33.3494 22.6817 33.4031 23.1011C33.4567 23.5204 33.5639 23.8486 33.7248 24.0857C33.9036 24.3227 34.1448 24.4868 34.4487 24.5779C34.7704 24.669 35.1904 24.7237 35.7087 24.742V25.6992H28.3092V24.742C28.8454 24.7237 29.2743 24.669 29.5961 24.5779C29.9178 24.4685 30.168 24.3045 30.3467 24.0857C30.5434 23.8668 30.6685 23.566 30.7221 23.1831C30.7935 22.7821 30.8293 22.2624 30.8293 21.6242V9.83711C30.8293 8.85256 30.8115 8.03211 30.7757 7.37575C30.7578 6.70115 30.7221 6.24535 30.6685 6.00833C30.5791 5.58898 30.3646 5.30638 30.025 5.16053C29.7033 5.01466 29.1134 4.94174 28.2556 4.94174V4.0119L33.3226 3V21.4328Z" fill="white"/>
<path d="M45.1511 10.931C46.1699 10.931 47.135 11.1225 48.0466 11.5053C48.9581 11.87 49.7535 12.3805 50.4327 13.0369C51.1298 13.6932 51.6749 14.4773 52.0682 15.3889C52.4792 16.2822 52.6848 17.2668 52.6848 18.3425C52.6848 19.4546 52.4792 20.4756 52.0682 21.4055C51.6749 22.3354 51.1298 23.1376 50.4327 23.8121C49.7535 24.4867 48.9581 25.0155 48.0466 25.3983C47.135 25.7812 46.1699 25.9726 45.1511 25.9726C44.1502 25.9726 43.194 25.7904 42.2824 25.4257C41.3888 25.0428 40.6023 24.5141 39.9232 23.8395C39.244 23.1649 38.7078 22.3627 38.3145 21.4328C37.9214 20.4848 37.7247 19.4546 37.7247 18.3425C37.7247 17.2668 37.9214 16.2731 38.3145 15.3615C38.7078 14.4498 39.244 13.6659 39.9232 13.0096C40.6023 12.3531 41.3888 11.8426 42.2824 11.478C43.194 11.1134 44.1502 10.931 45.1511 10.931ZM45.1511 12.2437C44.4898 12.2437 43.8821 12.3896 43.3281 12.6813C42.7918 12.9731 42.3272 13.3924 41.9339 13.9394C41.5586 14.4681 41.2637 15.1153 41.0492 15.8811C40.8526 16.6286 40.7542 17.4582 40.7542 18.3698C40.7542 19.3179 40.8526 20.1748 41.0492 20.9405C41.2637 21.7063 41.5586 22.3627 41.9339 22.9096C42.3272 23.4384 42.7918 23.8486 43.3281 24.1404C43.8643 24.432 44.4719 24.5779 45.1511 24.5779C45.8303 24.5779 46.447 24.432 47.001 24.1404C47.5551 23.8486 48.0287 23.4292 48.422 22.8823C48.8151 22.3354 49.119 21.6789 49.3335 20.9132C49.5479 20.1475 49.6553 19.2996 49.6553 18.3698C49.6553 17.4582 49.5479 16.6286 49.3335 15.8811C49.119 15.1336 48.8151 14.4955 48.422 13.9667C48.0287 13.4198 47.5551 13.0004 47.001 12.7086C46.447 12.3988 45.8303 12.2437 45.1511 12.2437Z" fill="white"/>
<path d="M59.9046 21.3234C59.9046 22.0892 59.9225 22.6909 59.9582 23.1284C59.994 23.566 60.0834 23.9033 60.2263 24.1404C60.3872 24.3591 60.6106 24.5049 60.8966 24.5779C61.1826 24.6508 61.5847 24.7055 62.103 24.742V25.6992H54.9716V24.742C55.4899 24.7055 55.901 24.6508 56.2048 24.5779C56.5087 24.5049 56.7411 24.3591 56.9019 24.1404C57.0628 23.9215 57.161 23.6116 57.1968 23.2105C57.2504 22.7911 57.2773 22.235 57.2773 21.5422V18.0416C57.2773 17.0024 57.2594 16.1364 57.2236 15.4436C57.2058 14.7507 57.161 14.2767 57.0896 14.0214C57.036 13.7844 56.9734 13.602 56.9019 13.4745C56.8304 13.3286 56.7143 13.2192 56.5534 13.1463C56.3925 13.0551 56.178 13.0004 55.9099 12.9822C55.6597 12.9457 55.3291 12.9274 54.918 12.9274V11.9703L59.288 10.931L59.6365 13.6659H59.7706C60.5748 12.736 61.4149 12.0523 62.2907 11.6147C63.1844 11.1589 64.1674 10.931 65.2399 10.931C66.3659 10.931 67.3131 11.168 68.0817 11.6421C68.8503 12.0979 69.3865 12.7633 69.6904 13.6385H69.7976C70.4588 12.7816 71.2632 12.1161 72.2105 11.6421C73.1578 11.168 74.1676 10.931 75.24 10.931C76.08 10.931 76.8397 11.0769 77.5188 11.3686C78.216 11.6421 78.7432 12.025 79.1007 12.5172C79.4224 12.9366 79.6458 13.4927 79.7709 14.1855C79.9139 14.8601 79.9854 15.7899 79.9854 16.975V21.3234C79.9854 22.0709 80.0033 22.6635 80.039 23.1011C80.0926 23.5386 80.191 23.8759 80.3339 24.113C80.4769 24.35 80.6914 24.5049 80.9774 24.5779C81.2812 24.6508 81.6923 24.7055 82.2106 24.742V25.6992H75.0791V24.742C75.5796 24.7237 75.9818 24.6782 76.2856 24.6053C76.5894 24.5141 76.8218 24.3591 76.9827 24.1404C77.1435 23.9033 77.2418 23.5843 77.2776 23.1831C77.3312 22.7821 77.358 22.235 77.358 21.5422V18.0963C77.358 17.057 77.3044 16.1819 77.1971 15.4709C77.0899 14.7416 76.9112 14.1581 76.661 13.7206C76.4107 13.2647 76.08 12.9366 75.6689 12.736C75.2758 12.5355 74.7932 12.4352 74.2213 12.4352C73.4348 12.4352 72.693 12.6631 71.996 13.1189C71.3168 13.5565 70.7806 14.149 70.3874 14.8965C70.298 15.0789 70.2176 15.2612 70.1461 15.4436C70.0925 15.6076 70.0477 15.7991 70.0121 16.0178C69.9763 16.2184 69.9495 16.4646 69.9316 16.7562C69.9316 17.048 69.9316 17.4127 69.9316 17.8502V21.3234C69.9316 22.0709 69.9495 22.6635 69.9853 23.1011C70.0209 23.5386 70.1103 23.8759 70.2533 24.113C70.4142 24.35 70.6465 24.5049 70.9504 24.5779C71.2542 24.6508 71.6653 24.7055 72.1837 24.742V25.6992H65.0522V24.742C65.5526 24.7055 65.9548 24.6508 66.2586 24.5779C66.5625 24.5049 66.7859 24.3591 66.9288 24.1404C67.0897 23.9215 67.1881 23.6116 67.2237 23.2105C67.2775 22.7911 67.3043 22.235 67.3043 21.5422V18.0963C67.3043 17.0388 67.2506 16.1546 67.1434 15.4436C67.0361 14.7142 66.8574 14.1308 66.6071 13.6932C66.3748 13.2374 66.062 12.9184 65.6688 12.736C65.2756 12.5355 64.793 12.4352 64.2211 12.4352C63.4168 12.4352 62.6572 12.6631 61.9422 13.1189C61.2452 13.5565 60.7179 14.149 60.3604 14.8965C60.2711 15.0789 60.1906 15.2612 60.1191 15.4436C60.0655 15.6076 60.0208 15.7991 59.985 16.0178C59.9493 16.2184 59.9226 16.4646 59.9046 16.7562C59.9046 17.048 59.9046 17.4127 59.9046 17.8502V21.3234Z" fill="white"/>
<path d="M87.8205 19.9834C87.8205 20.6762 87.9187 21.3144 88.1154 21.8978C88.312 22.463 88.5801 22.9552 88.9196 23.3746C89.2771 23.7757 89.6972 24.0947 90.1798 24.3318C90.6802 24.5688 91.2164 24.6873 91.7884 24.6873C92.4139 24.6873 92.9769 24.5414 93.4774 24.2498C93.9957 23.958 94.4336 23.5478 94.7911 23.0191C95.1664 22.4721 95.4523 21.8248 95.649 21.0773C95.8634 20.3116 95.9707 19.4637 95.9707 18.5339C95.9707 17.6041 95.8634 16.7562 95.649 15.9905C95.4345 15.2065 95.1396 14.541 94.7643 13.9941C94.389 13.4288 93.9331 12.9913 93.3969 12.6813C92.8786 12.3714 92.3066 12.2164 91.6811 12.2164C90.9483 12.2164 90.2959 12.3988 89.7239 12.7634C89.1521 13.1098 88.7141 13.6021 88.4103 14.2402C88.017 15.0424 87.8205 16.1455 87.8205 17.5494V19.9834ZM87.7669 13.1463H87.8741C88.446 12.3805 89.0716 11.8244 89.7507 11.478C90.4479 11.1134 91.2521 10.931 92.1637 10.931C93.1288 10.931 94.0225 11.1225 94.8447 11.5054C95.6848 11.8882 96.4086 12.417 97.0165 13.0916C97.6414 13.7662 98.1242 14.5684 98.4638 15.4983C98.8216 16.4099 99 17.3944 99 18.4519C99 19.5276 98.8216 20.5304 98.4638 21.4602C98.107 22.3718 97.6152 23.1649 96.9893 23.8395C96.3818 24.5141 95.6579 25.0428 94.8179 25.4257C93.9778 25.8086 93.0663 26 92.0833 26C91.0645 26 90.1082 25.8086 89.2145 25.4257C88.3387 25.0428 87.6149 24.5232 87.0429 23.8668L85.7829 25.6992H85.193V9.18075C85.193 7.33929 85.0769 6.16331 84.8445 5.6528C84.7909 5.52517 84.7284 5.42489 84.6568 5.35197C84.5854 5.26081 84.4781 5.18788 84.3351 5.13318C84.1921 5.06025 83.9956 4.99644 83.7453 4.94174C83.4951 4.88705 83.1554 4.83234 82.7265 4.77765V4.09394L87.7669 3V13.1463Z" fill="white"/>
</g>
<defs>
<filter id="filter0_d_376_57" x="0" y="0" width="105" height="35" filterUnits="userSpaceOnUse" color-interpolation-filters="sRGB">
<feFlood flood-opacity="0" result="BackgroundImageFix"/>
<feColorMatrix in="SourceAlpha" type="matrix" values="0 0 0 0 0 0 0 0 0 0 0 0 0 0 0 0 0 0 127 0" result="hardAlpha"/>
<feOffset dy="3"/>
<feGaussianBlur stdDeviation="3"/>
<feComposite in2="hardAlpha" operator="out"/>
<feColorMatrix type="matrix" values="0 0 0 0 0.270833 0 0 0 0 0.270833 0 0 0 0 0.270833 0 0 0 0.17 0"/>
<feBlend mode="normal" in2="BackgroundImageFix" result="effect1_dropShadow_376_57"/>
<feBlend mode="normal" in="SourceGraphic" in2="effect1_dropShadow_376_57" result="shape"/>
</filter>
</defs>
</svg>
