<svg width="172" height="66" viewBox="0 0 172 66" fill="none" xmlns="http://www.w3.org/2000/svg">
<g clip-path="url(#clip0_1066_2572)">
<path d="M14.5728 34.1726C12.3287 34.1726 10.3092 33.8162 8.51398 33.1034C6.71878 32.3906 5.18759 31.3874 3.92038 30.0938C2.65319 28.7738 1.67639 27.1766 0.989998 25.3023C0.329999 23.4278 0 21.3423 0 19.0455C0 16.643 0.369599 14.4518 1.1088 12.4719C1.84799 10.4919 2.87759 8.78905 4.19759 7.36346C5.54398 5.93787 7.14118 4.84226 8.98918 4.07666C10.8636 3.28467 12.9228 2.88867 15.1667 2.88867C16.7507 2.88867 18.2423 3.11307 19.6416 3.56187C21.0408 4.01066 22.5587 4.73666 24.1956 5.73986L25.0271 3.28467H26.4131L25.8984 12.3926H23.9976C23.9976 11.099 23.7468 9.99025 23.2451 9.06626C22.7699 8.11586 22.1364 7.33706 21.3444 6.72986C20.5524 6.12266 19.6416 5.67387 18.612 5.38346C17.6088 5.09306 16.5792 4.94787 15.5231 4.94787C13.9127 4.94787 12.474 5.26467 11.2068 5.89826C9.93957 6.53186 8.87037 7.44266 7.99918 8.63065C7.12798 9.81866 6.45478 11.2706 5.97958 12.9866C5.53079 14.7026 5.30638 16.643 5.30638 18.8078C5.30638 23.0582 6.19078 26.3319 7.95958 28.6286C9.72838 30.899 12.2892 32.0342 15.6419 32.0342C16.9092 32.0342 18.0444 31.8889 19.0475 31.5986C20.0507 31.2818 20.8956 30.8725 21.582 30.371C22.2948 29.843 22.8228 29.249 23.166 28.589C23.5356 27.9026 23.7203 27.1898 23.7203 26.4507C23.7203 24.9194 23.4036 23.8898 22.7699 23.3618C22.1628 22.8075 21.1596 22.5302 19.7604 22.5302V21.0254H31.0067V22.5302C30.3731 22.5302 29.8451 22.5831 29.4228 22.6887C29.0003 22.7943 28.6571 22.9922 28.3931 23.2826C28.1555 23.5466 27.9839 23.903 27.8783 24.3518C27.7991 24.8006 27.7595 25.3682 27.7595 26.0546V30.4898C27.258 30.4898 26.7959 30.5162 26.3736 30.569C25.9775 30.5954 25.5552 30.6878 25.1064 30.8462C24.6576 30.9781 24.1559 31.1762 23.6015 31.4401C23.0736 31.6778 22.4399 32.0077 21.7008 32.4302C20.7768 32.9582 19.7075 33.3806 18.4932 33.6974C17.3051 34.0142 15.9984 34.1726 14.5728 34.1726Z" fill="white"/>
<path d="M40.357 27.5991C40.357 28.6023 40.3965 29.4075 40.4758 30.0146C40.555 30.6218 40.7134 31.097 40.9509 31.4402C41.215 31.7834 41.5714 32.0211 42.0202 32.153C42.4954 32.285 43.1157 32.3643 43.8814 32.3906V33.7766H32.9518V32.3906C33.7438 32.3643 34.3774 32.285 34.8526 32.153C35.3278 31.9946 35.6974 31.757 35.9613 31.4402C36.2518 31.1235 36.4366 30.6878 36.5157 30.1334C36.6214 29.5526 36.6742 28.8002 36.6742 27.8762V10.8087C36.6742 9.38307 36.6477 8.19507 36.595 7.24468C36.5686 6.26788 36.5157 5.60788 36.4366 5.26469C36.3045 4.65748 35.9878 4.24828 35.4862 4.03709C35.011 3.82588 34.1397 3.72029 32.8726 3.72029V2.37388L40.357 0.908691V27.5991Z" fill="white"/>
<path d="M57.8283 12.3926C59.333 12.3926 60.7587 12.6698 62.1051 13.2241C63.4514 13.7522 64.6263 14.4914 65.6295 15.4418C66.6591 16.3922 67.4643 17.5274 68.0451 18.8474C68.6522 20.1409 68.9559 21.5666 68.9559 23.1241C68.9559 24.7346 68.6522 26.213 68.0451 27.5593C67.4643 28.9057 66.6591 30.0673 65.6295 31.0441C64.6263 32.021 63.4514 32.7865 62.1051 33.3409C60.7587 33.8953 59.333 34.1726 57.8283 34.1726C56.3499 34.1726 54.9375 33.9085 53.5911 33.3806C52.2711 32.8262 51.1095 32.0605 50.1063 31.0837C49.103 30.107 48.311 28.9454 47.7303 27.599C47.1495 26.2262 46.8591 24.7346 46.8591 23.1241C46.8591 21.5666 47.1495 20.1278 47.7303 18.8077C48.311 17.4878 49.103 16.3526 50.1063 15.4022C51.1095 14.4518 52.2711 13.7126 53.5911 13.1846C54.9375 12.6565 56.3499 12.3926 57.8283 12.3926ZM57.8283 14.2934C56.8514 14.2934 55.9538 14.5046 55.1354 14.9269C54.3434 15.3494 53.657 15.9565 53.0762 16.7485C52.5218 17.5142 52.0862 18.4513 51.7695 19.5602C51.479 20.6426 51.3339 21.8437 51.3339 23.1638C51.3339 24.5366 51.479 25.7774 51.7695 26.8861C52.0862 27.9949 52.5218 28.9454 53.0762 29.7374C53.657 30.5029 54.3434 31.0969 55.1354 31.5193C55.9274 31.9418 56.825 32.153 57.8283 32.153C58.8315 32.153 59.7423 31.9418 60.5606 31.5193C61.379 31.0969 62.0786 30.4897 62.6594 29.6977C63.2402 28.9057 63.689 27.9554 64.0058 26.8465C64.3226 25.7377 64.481 24.5102 64.481 23.1638C64.481 21.8437 64.3226 20.6426 64.0058 19.5602C63.689 18.4778 63.2402 17.5537 62.6594 16.7882C62.0786 15.9962 61.379 15.3889 60.5606 14.9666C59.7423 14.5178 58.8315 14.2934 57.8283 14.2934Z" fill="white"/>
<path d="M79.62 27.4405C79.62 28.5493 79.6464 29.4206 79.6992 30.0541C79.752 30.6878 79.884 31.1761 80.0952 31.5193C80.3328 31.8361 80.6628 32.0474 81.0852 32.153C81.5075 32.2586 82.1016 32.3377 82.8671 32.3906V33.7765H72.3336V32.3906C73.0993 32.3377 73.7064 32.2586 74.1552 32.153C74.604 32.0474 74.9472 31.8361 75.1848 31.5193C75.4224 31.2025 75.5676 30.7537 75.6204 30.1729C75.6996 29.5657 75.7392 28.7606 75.7392 27.7573V22.6886C75.7392 21.1837 75.7127 19.9297 75.66 18.9266C75.6336 17.9234 75.5676 17.237 75.462 16.8673C75.3828 16.5241 75.2904 16.2602 75.1848 16.0753C75.0792 15.8642 74.9076 15.7058 74.67 15.6001C74.4324 15.4682 74.1157 15.3889 73.7196 15.3626C73.35 15.3098 72.8617 15.2833 72.2544 15.2833V13.8973L78.7092 12.3926L79.2239 16.3526H79.422C80.61 15.0062 81.8507 14.0161 83.1444 13.3826C84.4643 12.7226 85.9164 12.3926 87.5004 12.3926C89.1636 12.3926 90.5628 12.7358 91.698 13.4222C92.8332 14.0822 93.6252 15.0457 94.074 16.313H94.2323C95.2092 15.0722 96.3971 14.1086 97.7964 13.4222C99.1956 12.7358 100.687 12.3926 102.271 12.3926C103.512 12.3926 104.634 12.6038 105.637 13.0262C106.667 13.4222 107.445 13.9766 107.974 14.6894C108.449 15.2966 108.779 16.1018 108.964 17.1049C109.175 18.0818 109.28 19.4282 109.28 21.1442V27.4405C109.28 28.523 109.307 29.3809 109.359 30.0146C109.439 30.6482 109.584 31.1366 109.795 31.4798C110.006 31.823 110.323 32.0474 110.745 32.153C111.194 32.2586 111.802 32.3377 112.567 32.3906V33.7765H102.034V32.3906C102.773 32.3642 103.367 32.2981 103.815 32.1925C104.264 32.0605 104.607 31.8361 104.845 31.5193C105.083 31.1761 105.228 30.7141 105.281 30.1333C105.36 29.5526 105.399 28.7606 105.399 27.7573V22.7677C105.399 21.263 105.32 19.9958 105.162 18.9662C105.004 17.9102 104.74 17.0654 104.37 16.4318C104 15.7718 103.512 15.2966 102.905 15.0062C102.324 14.7158 101.611 14.5706 100.766 14.5706C99.6047 14.5706 98.5092 14.9006 97.4796 15.5606C96.4764 16.1942 95.6844 17.0522 95.1036 18.1346C94.9716 18.3986 94.8528 18.6626 94.7472 18.9266C94.6679 19.1642 94.602 19.4414 94.5491 19.7582C94.4964 20.0485 94.4567 20.405 94.4303 20.8273C94.4303 21.2498 94.4303 21.7778 94.4303 22.4113V27.4405C94.4303 28.523 94.4567 29.3809 94.5096 30.0146C94.5623 30.6482 94.6943 31.1366 94.9055 31.4798C95.1431 31.823 95.4863 32.0474 95.9351 32.153C96.3839 32.2586 96.9912 32.3377 97.7567 32.3906V33.7765H87.2232V32.3906C87.9624 32.3377 88.5563 32.2586 89.0051 32.153C89.4539 32.0474 89.7839 31.8361 89.9952 31.5193C90.2328 31.2025 90.3779 30.7537 90.4308 30.1729C90.51 29.5657 90.5496 28.7606 90.5496 27.7573V22.7677C90.5496 21.2366 90.4703 19.9562 90.312 18.9266C90.1535 17.8705 89.8896 17.0258 89.52 16.3922C89.1768 15.7321 88.7148 15.2701 88.134 15.0062C87.5532 14.7158 86.8403 14.5706 85.9956 14.5706C84.8076 14.5706 83.6856 14.9006 82.6295 15.5606C81.6 16.1942 80.8211 17.0522 80.2932 18.1346C80.1612 18.3986 80.0424 18.6626 79.9368 18.9266C79.8576 19.1642 79.7915 19.4414 79.7388 19.7582C79.6859 20.0485 79.6464 20.405 79.62 20.8273C79.62 21.2498 79.62 21.7778 79.62 22.4113V27.4405Z" fill="white"/>
<path d="M120.853 25.5002C120.853 26.5034 120.999 27.4274 121.289 28.2723C121.579 29.0906 121.976 29.8034 122.477 30.4106C123.004 30.9915 123.626 31.4535 124.338 31.7967C125.077 32.1399 125.868 32.3114 126.714 32.3114C127.638 32.3114 128.469 32.1002 129.209 31.6779C129.975 31.2554 130.621 30.6615 131.149 29.8958C131.704 29.1038 132.126 28.1667 132.416 27.0842C132.734 25.9754 132.892 24.7479 132.892 23.4015C132.892 22.055 132.734 20.8274 132.416 19.7186C132.099 18.5834 131.664 17.6199 131.11 16.8278C130.555 16.0095 129.882 15.3758 129.089 14.927C128.325 14.4782 127.48 14.2538 126.555 14.2538C125.473 14.2538 124.51 14.5179 123.665 15.0458C122.819 15.5475 122.173 16.2602 121.724 17.1842C121.143 18.3458 120.853 19.943 120.853 21.9758V25.5002ZM120.774 15.6002H120.932C121.777 14.4915 122.701 13.6862 123.705 13.1847C124.733 12.6566 125.922 12.3927 127.269 12.3927C128.694 12.3927 130.014 12.6699 131.228 13.2242C132.469 13.7786 133.539 14.5443 134.436 15.5211C135.359 16.4978 136.073 17.6594 136.574 19.0058C137.102 20.3259 137.366 21.7514 137.366 23.2827C137.366 24.8402 137.102 26.2922 136.574 27.6386C136.046 28.9587 135.32 30.107 134.396 31.0838C133.498 32.0606 132.43 32.8263 131.189 33.3807C129.948 33.935 128.601 34.2122 127.149 34.2122C125.645 34.2122 124.232 33.935 122.912 33.3807C121.619 32.8263 120.549 32.0738 119.705 31.1235L117.843 33.7766H116.973V9.85827C116.973 7.19188 116.801 5.48908 116.458 4.74988C116.379 4.56508 116.286 4.41988 116.18 4.31428C116.075 4.18228 115.917 4.07668 115.706 3.99748C115.493 3.89189 115.203 3.79949 114.834 3.72029C114.464 3.64109 113.963 3.56189 113.329 3.48269V2.49269L120.774 0.908691V15.6002Z" fill="white"/>
<path d="M38.5764 44.9135C38.9246 44.6451 39.1784 44.3731 39.3381 44.0975C39.4976 43.8146 39.5774 43.51 39.5774 43.1836C39.5774 42.8427 39.5012 42.5744 39.3488 42.3785C39.1966 42.1754 38.9935 42.0738 38.7396 42.0738C38.2609 42.0738 38.0216 42.4401 38.0216 43.1727C38.0216 43.4918 38.0687 43.8002 38.163 44.0975C38.2572 44.3876 38.395 44.6597 38.5764 44.9135ZM37.9562 45.9363C37.4993 46.1974 37.1439 46.5056 36.89 46.8611C36.6362 47.2092 36.5092 47.5719 36.5092 47.949C36.5092 48.3479 36.6362 48.678 36.89 48.9391C37.1511 49.1929 37.4848 49.3199 37.891 49.3199C38.1956 49.3199 38.522 49.2437 38.8702 49.0914C39.2183 48.9391 39.5484 48.7251 39.8603 48.4495L37.9562 45.9363ZM40.6437 47.6226C40.8177 47.405 40.9772 47.1946 41.1223 46.9916C41.2747 46.7813 41.4052 46.5854 41.514 46.404C41.6228 46.2155 41.7062 46.045 41.7642 45.8927C41.8223 45.7404 41.8513 45.617 41.8513 45.5228C41.8513 45.4067 41.7969 45.3233 41.688 45.2726C41.5866 45.2218 41.4197 45.1963 41.1876 45.1963V44.8156H43.69V45.1963C43.5304 45.1963 43.3926 45.2072 43.2765 45.229C43.1677 45.2436 43.0698 45.2726 42.9827 45.316C42.8957 45.3596 42.8123 45.4176 42.7325 45.4901C42.6601 45.5627 42.5875 45.6569 42.5149 45.773L40.97 48.0361C41.2747 48.4495 41.5901 48.765 41.9166 48.9826C42.2503 49.1929 42.5803 49.2981 42.9066 49.2981C43.001 49.2981 43.0843 49.2909 43.1569 49.2764C43.2294 49.2546 43.2946 49.2219 43.3527 49.1785C43.418 49.1277 43.476 49.0624 43.5268 48.9826C43.5849 48.9028 43.6429 48.8012 43.7009 48.678L43.9729 48.7541C43.8931 49.1604 43.7153 49.4723 43.4397 49.6898C43.1641 49.9002 42.8051 50.0053 42.3626 50.0053C42.1813 50.0053 42.0073 49.9836 41.8404 49.94C41.6808 49.9037 41.5176 49.8385 41.3508 49.7442C41.184 49.6499 41.0062 49.5266 40.8177 49.3743C40.6291 49.2219 40.4224 49.0334 40.1975 48.8086C39.8349 49.1857 39.4142 49.4795 38.9355 49.6898C38.464 49.9002 37.9817 50.0053 37.4884 50.0053C37.1548 50.0053 36.8465 49.9582 36.5636 49.8638C36.288 49.7624 36.0486 49.6282 35.8455 49.4614C35.6425 49.2873 35.4829 49.0841 35.3668 48.852C35.2508 48.6127 35.1927 48.3552 35.1927 48.0795C35.1927 47.5863 35.3886 47.1331 35.7803 46.7196C36.172 46.2989 36.7993 45.8781 37.6626 45.4575C37.4304 45.1166 37.26 44.7974 37.1511 44.5001C37.0495 44.2026 36.9989 43.8907 36.9989 43.5644C36.9989 43.2453 37.0423 42.9552 37.1294 42.694C37.2237 42.4256 37.3542 42.1971 37.5211 42.0086C37.6879 41.82 37.8873 41.6749 38.1195 41.5733C38.3516 41.4646 38.609 41.4102 38.8919 41.4102C39.1385 41.4102 39.3634 41.4501 39.5665 41.5299C39.7768 41.6097 39.9582 41.722 40.1105 41.8671C40.2628 42.0122 40.3789 42.1827 40.4587 42.3785C40.5457 42.5744 40.5892 42.7919 40.5892 43.0313C40.5892 43.4375 40.455 43.8183 40.1866 44.1736C39.9255 44.5291 39.4903 44.9135 38.881 45.3269L40.6437 47.6226Z" fill="white"/>
<path d="M52.3505 46.8611H49.4455C49.3222 47.1585 49.217 47.4232 49.13 47.6553C49.0429 47.8802 48.9704 48.076 48.9124 48.2429C48.8616 48.4097 48.8254 48.5511 48.8036 48.6671C48.7818 48.7832 48.7709 48.8776 48.7709 48.95C48.7709 49.1531 48.8363 49.2946 48.9668 49.3744C49.0974 49.4469 49.3149 49.4831 49.6196 49.4831V49.8966H46.9757V49.4831C47.1425 49.4614 47.284 49.4324 47.4001 49.3961C47.5234 49.3598 47.6285 49.309 47.7156 49.2438C47.8099 49.1785 47.8897 49.0951 47.955 48.9936C48.0275 48.8848 48.0963 48.7542 48.1617 48.6019L50.9904 41.519H51.4583L53.9281 47.6553C54.0949 48.0615 54.24 48.3879 54.3632 48.6346C54.4865 48.8739 54.6062 49.0552 54.7222 49.1785C54.8383 49.3018 54.9617 49.3816 55.0922 49.4179C55.23 49.4541 55.3932 49.4723 55.5818 49.4723V49.8966H52.0349V49.4723C52.4194 49.4723 52.6842 49.436 52.8292 49.3635C52.9743 49.2909 53.0467 49.1712 53.0467 49.0045C53.0467 48.9319 53.0432 48.8667 53.0358 48.8086C53.0286 48.7433 53.0142 48.6744 52.9924 48.6019C52.9778 48.5293 52.9525 48.4496 52.9162 48.3625C52.8872 48.2682 52.8473 48.1594 52.7965 48.0361L52.3505 46.8611ZM49.6632 46.317H52.1437L50.9361 43.1075L49.6632 46.317Z" fill="white"/>
<path d="M60.5413 48.9827H60.4978C60.2366 49.3526 59.9574 49.6173 59.66 49.7768C59.3698 49.9292 59.0254 50.0054 58.6264 50.0054C58.2129 50.0054 57.8321 49.9328 57.484 49.7877C57.1431 49.6355 56.8458 49.4287 56.5919 49.1676C56.3453 48.8992 56.1494 48.5801 56.0043 48.2102C55.8665 47.8402 55.7976 47.4376 55.7976 47.0025C55.7976 46.5745 55.8665 46.1793 56.0043 45.8166C56.1494 45.4467 56.3453 45.1311 56.5919 44.87C56.8458 44.6017 57.1468 44.395 57.4949 44.2499C57.843 44.0975 58.2202 44.0214 58.6264 44.0214C58.9746 44.0214 59.2828 44.0794 59.5512 44.1954C59.8269 44.3115 60.0915 44.4964 60.3454 44.7503V43.6406C60.3454 43.2272 60.3382 42.8826 60.3237 42.607C60.3164 42.3314 60.3019 42.1428 60.2802 42.0412C60.2439 41.8817 60.1423 41.7692 59.9755 41.704C59.8086 41.6387 59.5367 41.606 59.1595 41.606V41.2797L61.3899 40.8662V47.144C61.3899 47.6444 61.3936 48.0579 61.4008 48.3842C61.408 48.7033 61.4298 48.9319 61.466 49.0697C61.4878 49.1567 61.5132 49.2292 61.5422 49.2873C61.5785 49.3453 61.6257 49.3925 61.6837 49.4287C61.7489 49.4577 61.8324 49.4795 61.9339 49.494C62.0427 49.5085 62.1805 49.5157 62.3474 49.5157V49.8857L60.5413 50.0054V48.9827ZM60.3237 46.5782C60.3237 46.201 60.3019 45.9145 60.2584 45.7187C60.2221 45.5228 60.146 45.3523 60.03 45.2073C59.8631 44.9897 59.6491 44.8265 59.388 44.7177C59.1342 44.6017 58.8803 44.5436 58.6264 44.5436C58.1041 44.5436 57.7052 44.7612 57.4297 45.1964C57.1612 45.6244 57.0271 46.2083 57.0271 46.9481C57.0271 47.3325 57.0597 47.6806 57.125 47.9925C57.1975 48.3044 57.2991 48.5728 57.4297 48.7977C57.5674 49.0152 57.7342 49.1857 57.9301 49.309C58.1331 49.425 58.3653 49.4831 58.6264 49.4831C58.7569 49.4831 58.8875 49.4686 59.0181 49.4396C59.1558 49.4106 59.2865 49.367 59.4097 49.309C59.5403 49.2438 59.66 49.1712 59.7687 49.0915C59.8776 49.0044 59.9683 48.9065 60.0408 48.7977C60.1423 48.6381 60.2149 48.4459 60.2584 48.221C60.3019 47.9962 60.3237 47.688 60.3237 47.2963V46.5782Z" fill="white"/>
<path d="M63.685 45.4789C63.5979 45.2614 63.5181 45.0909 63.4457 44.9676C63.3804 44.837 63.3078 44.7391 63.228 44.6739C63.1482 44.6086 63.0576 44.5687 62.956 44.5541C62.8618 44.5325 62.7457 44.5179 62.6079 44.5107V44.1299H65.4911V44.5107C65.346 44.5179 65.2263 44.5251 65.1321 44.5325C65.0377 44.5397 64.9616 44.5578 64.9035 44.5868C64.8527 44.6086 64.8165 44.6449 64.7947 44.6956C64.773 44.7391 64.7622 44.8045 64.7622 44.8915C64.7622 45.0148 64.7766 45.1308 64.8056 45.2396C64.8418 45.3484 64.8782 45.4573 64.9144 45.566L66.0677 48.7213H66.1112L67.1014 46.3821C67.2536 46.0194 67.3624 45.7293 67.4277 45.5116C67.4929 45.294 67.5256 45.1018 67.5256 44.935C67.5256 44.7681 67.482 44.6557 67.395 44.5977C67.308 44.5397 67.1195 44.5107 66.8292 44.5107V44.1299H68.9944V44.5107C68.8783 44.5107 68.7732 44.5397 68.6789 44.5977C68.5846 44.6557 68.5012 44.7282 68.4286 44.8154C68.3706 44.8951 68.309 45.0039 68.2437 45.1417C68.1856 45.2723 68.1241 45.41 68.0587 45.5552C68.0007 45.7002 67.9463 45.8453 67.8955 45.9903C67.8447 46.1282 67.7976 46.2406 67.754 46.3276L66.1548 50.0159H65.5237L63.685 45.4789Z" fill="white"/>
<path d="M72.4856 44.0215C72.8991 44.0215 73.2908 44.0976 73.6607 44.25C74.0306 44.3951 74.3534 44.5981 74.6289 44.8592C74.9118 45.1203 75.1331 45.4322 75.2926 45.7949C75.4595 46.1504 75.5428 46.542 75.5428 46.9699C75.5428 47.4124 75.4595 47.8186 75.2926 48.1885C75.1331 48.5584 74.9118 48.8776 74.6289 49.1459C74.3534 49.4143 74.0306 49.6247 73.6607 49.777C73.2908 49.9293 72.8991 50.0055 72.4856 50.0055C72.0794 50.0055 71.6914 49.9329 71.3215 49.7878C70.9588 49.6356 70.6397 49.4252 70.364 49.1568C70.0884 48.8884 69.8709 48.5693 69.7112 48.1994C69.5516 47.8222 69.4719 47.4124 69.4719 46.9699C69.4719 46.542 69.5516 46.1467 69.7112 45.784C69.8709 45.4213 70.0884 45.1094 70.364 44.8483C70.6397 44.5872 70.9588 44.3842 71.3215 44.2391C71.6914 44.0941 72.0794 44.0215 72.4856 44.0215ZM72.4856 44.5437C72.2173 44.5437 71.9706 44.6018 71.7458 44.7179C71.5282 44.8339 71.3396 45.0007 71.18 45.2183C71.0277 45.4287 70.908 45.6861 70.821 45.9908C70.7412 46.2881 70.7013 46.6182 70.7013 46.9808C70.7013 47.3581 70.7412 47.699 70.821 48.0035C70.908 48.3082 71.0277 48.5693 71.18 48.7869C71.3396 48.9972 71.5282 49.1605 71.7458 49.2765C71.9634 49.3926 72.21 49.4506 72.4856 49.4506C72.7613 49.4506 73.0115 49.3926 73.2363 49.2765C73.4612 49.1605 73.6534 48.9937 73.813 48.776C73.9726 48.5584 74.0959 48.2973 74.1829 47.9926C74.2699 47.6881 74.3135 47.3507 74.3135 46.9808C74.3135 46.6182 74.2699 46.2881 74.1829 45.9908C74.0959 45.6933 73.9726 45.4396 73.813 45.2292C73.6534 45.0115 73.4612 44.8448 73.2363 44.7286C73.0115 44.6054 72.7613 44.5437 72.4856 44.5437Z" fill="white"/>
<path d="M79.0495 47.5575C79.3541 47.5575 79.5899 47.4196 79.7566 47.1441C79.9308 46.8684 80.0178 46.4804 80.0178 45.9799C80.0178 45.4867 79.9308 45.1059 79.7566 44.8375C79.5899 44.5619 79.3505 44.4241 79.0386 44.4241C78.7267 44.4241 78.4765 44.5619 78.2879 44.8375C78.1066 45.1131 78.0159 45.4903 78.0159 45.969C78.0159 46.4477 78.1101 46.8322 78.2988 47.1223C78.4874 47.4124 78.7376 47.5575 79.0495 47.5575ZM78.451 48.8304C78.6252 48.8449 78.7847 48.8594 78.9298 48.8739C79.0748 48.8884 79.2163 48.903 79.3541 48.9174C79.4992 48.932 79.6406 48.9501 79.7784 48.9719C79.9235 48.9937 80.0794 49.0153 80.2463 49.0371C80.7684 49.1169 81.1856 49.32 81.4975 49.6465C81.8166 49.9656 81.9762 50.3682 81.9762 50.8541C81.9762 51.4634 81.7331 51.9275 81.2472 52.2468C80.7686 52.5659 80.0722 52.7255 79.1583 52.7255C78.752 52.7255 78.3786 52.6891 78.0377 52.6167C77.704 52.5441 77.4175 52.4389 77.1781 52.3011C76.9388 52.1706 76.7502 52.011 76.6124 51.8224C76.4819 51.6339 76.4165 51.4271 76.4165 51.2023C76.4165 51.05 76.442 50.9085 76.4926 50.778C76.5434 50.6474 76.6124 50.5313 76.6994 50.4297C76.7864 50.3355 76.888 50.2594 77.0041 50.2013C77.1273 50.1433 77.2543 50.1143 77.3849 50.1143C77.6315 50.1143 77.8527 50.1904 78.0485 50.3427C77.8527 50.3863 77.6931 50.4914 77.5698 50.6583C77.4466 50.8323 77.3849 51.0282 77.3849 51.2457C77.3849 51.5649 77.5408 51.8115 77.8527 51.9857C78.1718 52.1597 78.6215 52.2468 79.2017 52.2468C80.4421 52.2468 81.0622 51.8659 81.0622 51.1043C81.0622 50.8142 80.9643 50.5712 80.7686 50.3754C80.5727 50.1868 80.3405 50.0744 80.0722 50.038C79.8981 50.0164 79.7167 49.9909 79.5282 49.9619C79.3468 49.9401 79.1655 49.9184 78.9842 49.8967C78.8102 49.8749 78.6469 49.8568 78.4946 49.8423C78.3423 49.8277 78.2189 49.8133 78.1247 49.7987C77.7185 49.7552 77.4102 49.6465 77.1999 49.4724C76.9895 49.2982 76.8843 49.0589 76.8843 48.7542C76.8843 48.5004 76.9895 48.2755 77.1999 48.0797C77.4102 47.8839 77.675 47.7605 77.9941 47.7097V47.6663C77.8346 47.601 77.6859 47.5103 77.548 47.3943C77.4102 47.271 77.2906 47.1332 77.189 46.9808C77.0948 46.8285 77.0185 46.6654 76.9605 46.4913C76.9025 46.3099 76.8734 46.1249 76.8734 45.9364C76.8734 45.6608 76.9242 45.4069 77.0258 45.1748C77.1347 44.9427 77.2833 44.7432 77.4719 44.5764C77.6677 44.4023 77.8962 44.2681 78.1574 44.1738C78.4185 44.0723 78.7049 44.0215 79.0168 44.0215C79.336 44.0215 79.637 44.0723 79.9199 44.1738C80.2028 44.2681 80.4458 44.4095 80.6488 44.5981C80.8954 44.3951 81.113 44.25 81.3016 44.163C81.4902 44.0686 81.6679 44.0215 81.8347 44.0215C82.0958 44.0215 82.3026 44.0832 82.4548 44.2064C82.6145 44.3225 82.6943 44.4821 82.6943 44.6852C82.6943 44.8084 82.6507 44.9064 82.5637 44.9789C82.4839 45.0514 82.3824 45.0878 82.259 45.0878C82.1575 45.0878 82.074 45.0695 82.0088 45.0333C81.9436 44.9971 81.8819 44.9608 81.8238 44.9245C81.773 44.881 81.7187 44.8411 81.6607 44.8049C81.6026 44.7685 81.5301 44.7504 81.443 44.7504C81.269 44.7504 81.0912 44.8121 80.9099 44.9354C81.084 45.2038 81.171 45.541 81.171 45.9472C81.171 46.5638 80.9789 47.0497 80.5944 47.4052C80.21 47.7533 79.6334 47.9564 78.8645 48.0144C78.422 48.0506 78.1138 48.0979 77.9397 48.1559C77.7657 48.2139 77.6786 48.3191 77.6786 48.4714C77.6786 48.5874 77.7439 48.6744 77.8745 48.7325C78.005 48.7832 78.1972 48.8159 78.451 48.8304Z" fill="white"/>
<path d="M86.3786 46.6762C85.9652 46.8357 85.6134 46.9917 85.3233 47.1441C85.0404 47.2964 84.8119 47.4486 84.6378 47.601C84.4637 47.7533 84.3368 47.9056 84.257 48.058C84.1845 48.2103 84.1482 48.3662 84.1482 48.5258C84.1482 48.7651 84.228 48.961 84.3876 49.1133C84.5471 49.2657 84.7575 49.3418 85.0186 49.3418C85.2072 49.3418 85.3813 49.2947 85.5408 49.2003C85.7076 49.106 85.8527 48.9791 85.9761 48.8196C86.0993 48.6528 86.1973 48.4605 86.2698 48.2429C86.3423 48.0181 86.3786 47.7823 86.3786 47.5357V46.6762ZM86.3786 46.2084V45.7622C86.3786 44.8774 86.0014 44.435 85.2471 44.435C85.1238 44.435 85.0186 44.4459 84.9316 44.4675C84.8445 44.4893 84.772 44.5256 84.7139 44.5764C84.6559 44.6272 84.6016 44.6996 84.5508 44.794C84.5072 44.8883 84.4637 45.0043 84.4202 45.1421C84.3405 45.3524 84.2607 45.4939 84.1808 45.5664C84.1083 45.6317 83.9996 45.6643 83.8544 45.6643C83.4918 45.6643 83.3104 45.483 83.3104 45.1203C83.3104 44.7722 83.4954 44.5039 83.8653 44.3153C84.2352 44.1194 84.7611 44.0215 85.4429 44.0215C86.1683 44.0215 86.6832 44.1521 86.9879 44.4132C87.2926 44.6671 87.4448 45.1022 87.4448 45.7188V48.1559C87.4448 48.9828 87.608 49.3961 87.9345 49.3961C88.0359 49.3961 88.1339 49.3852 88.2281 49.3636C88.3225 49.3346 88.4023 49.2656 88.4676 49.1568L88.6198 49.4179C88.5328 49.5848 88.3733 49.7262 88.1411 49.8423C87.909 49.951 87.666 50.0055 87.4122 50.0055C87.093 50.0055 86.8537 49.9039 86.6941 49.7008C86.5418 49.4977 86.4656 49.2112 86.4656 48.8413H86.4112C86.2226 49.1967 85.9615 49.4796 85.6278 49.6899C85.2943 49.893 84.9244 49.9946 84.5181 49.9946C84.0611 49.9946 83.7021 49.8785 83.441 49.6465C83.1799 49.4143 83.0493 49.1024 83.0493 48.7108C83.0493 48.5367 83.0783 48.3699 83.1364 48.2103C83.2016 48.0506 83.3032 47.8984 83.441 47.7533C83.5789 47.6083 83.7601 47.4668 83.985 47.329C84.2099 47.1839 84.4855 47.0388 84.8119 46.8938L86.3786 46.2084Z" fill="white"/>
<path d="M93.8716 48.9827H93.8281C93.567 49.3526 93.2877 49.6173 92.9904 49.7768C92.7003 49.9292 92.3557 50.0054 91.9568 50.0054C91.5433 50.0054 91.1626 49.9328 90.8143 49.7877C90.4734 49.6355 90.1761 49.4287 89.9222 49.1676C89.6756 48.8992 89.4797 48.5801 89.3347 48.2102C89.1969 47.8402 89.1279 47.4376 89.1279 47.0025C89.1279 46.5745 89.1969 46.1793 89.3347 45.8166C89.4797 45.4467 89.6756 45.1311 89.9222 44.87C90.1761 44.6017 90.4771 44.395 90.8252 44.2499C91.1734 44.0975 91.5506 44.0214 91.9568 44.0214C92.3049 44.0214 92.6132 44.0794 92.8816 44.1954C93.1572 44.3115 93.422 44.4964 93.6758 44.7503V43.6406C93.6758 43.2272 93.6685 42.8826 93.6541 42.607C93.6467 42.3314 93.6323 42.1428 93.6105 42.0412C93.5742 41.8817 93.4727 41.7692 93.3058 41.704C93.1391 41.6387 92.8671 41.606 92.4898 41.606V41.2797L94.7202 40.8662V47.144C94.7202 47.6444 94.7239 48.0579 94.7311 48.3842C94.7383 48.7033 94.7601 48.9319 94.7965 49.0697C94.8182 49.1567 94.8436 49.2292 94.8726 49.2873C94.9089 49.3453 94.956 49.3925 95.014 49.4287C95.0792 49.4577 95.1627 49.4795 95.2642 49.494C95.373 49.5085 95.5109 49.5157 95.6777 49.5157V49.8857L93.8716 50.0054V48.9827ZM93.6541 46.5782C93.6541 46.201 93.6323 45.9145 93.5887 45.7187C93.5525 45.5228 93.4763 45.3523 93.3603 45.2073C93.1934 44.9897 92.9795 44.8265 92.7184 44.7177C92.4645 44.6017 92.2106 44.5436 91.9568 44.5436C91.4346 44.5436 91.0356 44.7612 90.76 45.1964C90.4915 45.6244 90.3574 46.2083 90.3574 46.9481C90.3574 47.3325 90.3901 47.6806 90.4553 47.9925C90.5279 48.3044 90.6294 48.5728 90.76 48.7977C90.8978 49.0152 91.0647 49.1857 91.2604 49.309C91.4636 49.425 91.6957 49.4831 91.9568 49.4831C92.0874 49.4831 92.2179 49.4686 92.3485 49.4396C92.4863 49.4106 92.6168 49.367 92.7402 49.309C92.8706 49.2438 92.9904 49.1712 93.0992 49.0915C93.208 49.0044 93.2986 48.9065 93.3712 48.7977C93.4727 48.6381 93.5452 48.4459 93.5887 48.221C93.6323 47.9962 93.6541 47.688 93.6541 47.2963V46.5782Z" fill="white"/>
<path d="M99.4836 44.0215C99.897 44.0215 100.289 44.0976 100.659 44.25C101.029 44.3951 101.351 44.5981 101.627 44.8592C101.91 45.1203 102.131 45.4322 102.291 45.7949C102.457 46.1504 102.541 46.542 102.541 46.9699C102.541 47.4124 102.457 47.8186 102.291 48.1885C102.131 48.5584 101.91 48.8776 101.627 49.1459C101.351 49.4143 101.029 49.6247 100.659 49.777C100.289 49.9293 99.897 50.0055 99.4836 50.0055C99.0774 50.0055 98.6893 49.9329 98.3194 49.7878C97.9567 49.6356 97.6376 49.4252 97.362 49.1568C97.0864 48.8884 96.8688 48.5693 96.7092 48.1994C96.5497 47.8222 96.4698 47.4124 96.4698 46.9699C96.4698 46.542 96.5497 46.1467 96.7092 45.784C96.8688 45.4213 97.0864 45.1094 97.362 44.8483C97.6376 44.5872 97.9567 44.3842 98.3194 44.2391C98.6893 44.0941 99.0774 44.0215 99.4836 44.0215ZM99.4836 44.5437C99.2152 44.5437 98.9686 44.6018 98.7438 44.7179C98.5262 44.8339 98.3375 45.0007 98.178 45.2183C98.0256 45.4287 97.906 45.6861 97.8189 45.9908C97.7392 46.2881 97.6993 46.6182 97.6993 46.9808C97.6993 47.3581 97.7392 47.699 97.8189 48.0035C97.906 48.3082 98.0256 48.5693 98.178 48.7869C98.3375 48.9972 98.5262 49.1605 98.7438 49.2765C98.9613 49.3926 99.208 49.4506 99.4836 49.4506C99.7592 49.4506 100.009 49.3926 100.234 49.2765C100.459 49.1605 100.651 48.9937 100.811 48.776C100.971 48.5584 101.094 48.2973 101.181 47.9926C101.268 47.6881 101.311 47.3507 101.311 46.9808C101.311 46.6182 101.268 46.2881 101.181 45.9908C101.094 45.6933 100.971 45.4396 100.811 45.2292C100.651 45.0115 100.459 44.8448 100.234 44.7286C100.009 44.6054 99.7592 44.5437 99.4836 44.5437Z" fill="white"/>
<path d="M104.002 49.8967H103.763V48.0253H104.035C104.318 49.048 104.833 49.5594 105.58 49.5594C105.87 49.5594 106.098 49.4905 106.265 49.3527C106.439 49.2076 106.526 48.99 106.526 48.6999C106.526 48.5911 106.508 48.5004 106.472 48.4279C106.443 48.3481 106.381 48.2683 106.287 48.1885C106.2 48.1014 106.073 48.0035 105.906 47.8947C105.746 47.786 105.532 47.6482 105.264 47.4813C105.017 47.329 104.804 47.1875 104.622 47.0569C104.441 46.9265 104.289 46.7958 104.165 46.6654C104.042 46.5275 103.948 46.3825 103.882 46.2301C103.824 46.0778 103.795 45.9001 103.795 45.697C103.795 45.4503 103.835 45.2255 103.915 45.0224C104.002 44.8121 104.118 44.6344 104.263 44.4893C104.408 44.3443 104.579 44.2318 104.775 44.1521C104.97 44.0651 105.184 44.0215 105.416 44.0215C105.612 44.0215 105.815 44.0542 106.026 44.1194C106.236 44.1774 106.421 44.2572 106.581 44.3587L106.798 44.1303H107.005V45.697H106.722C106.562 45.2545 106.388 44.939 106.2 44.7504C106.011 44.5619 105.779 44.4675 105.503 44.4675C105.257 44.4675 105.057 44.5329 104.905 44.6634C104.76 44.794 104.687 44.9753 104.687 45.2074C104.687 45.3308 104.706 45.4396 104.742 45.5338C104.785 45.6209 104.851 45.7079 104.938 45.7949C105.025 45.882 105.134 45.9727 105.264 46.0669C105.402 46.1539 105.565 46.2555 105.754 46.3716C106.066 46.5674 106.33 46.7415 106.548 46.8938C106.773 47.0462 106.954 47.1984 107.092 47.3507C107.23 47.4958 107.331 47.6482 107.397 47.8077C107.462 47.9673 107.495 48.1486 107.495 48.3518C107.495 48.8667 107.328 49.2729 106.994 49.5702C106.66 49.8604 106.221 50.0055 105.678 50.0055C105.112 50.0055 104.626 49.8423 104.22 49.5159L104.002 49.8967Z" fill="white"/>
<path d="M81.1286 61.9769H78.2236C78.1003 62.2742 77.9951 62.539 77.908 62.771C77.821 62.9959 77.7485 63.1917 77.6905 63.3586C77.6397 63.5254 77.6035 63.6668 77.5817 63.7829C77.5599 63.8989 77.549 63.9933 77.549 64.0657C77.549 64.2688 77.6144 64.4103 77.7449 64.4901C77.8755 64.5626 78.093 64.5989 78.3977 64.5989V65.0123H75.7539V64.5989C75.9206 64.5772 76.0621 64.5481 76.1782 64.5119C76.3014 64.4756 76.4067 64.4248 76.4937 64.3595C76.588 64.2943 76.6678 64.2108 76.7331 64.1093C76.8056 64.0005 76.8744 63.8699 76.9398 63.7176L79.7685 56.6348H80.2363L82.7062 62.771C82.873 63.1773 83.018 63.5036 83.1413 63.7503C83.2647 63.9896 83.3843 64.171 83.5003 64.2943C83.6164 64.4175 83.7398 64.4973 83.8702 64.5336C84.0081 64.5699 84.1712 64.588 84.3599 64.588V65.0123H80.813V64.588C81.1975 64.588 81.4622 64.5517 81.6073 64.4792C81.7523 64.4066 81.8248 64.287 81.8248 64.1202C81.8248 64.0476 81.8213 63.9824 81.8139 63.9244C81.8067 63.8591 81.7923 63.7902 81.7705 63.7176C81.7559 63.645 81.7306 63.5653 81.6943 63.4783C81.6653 63.3839 81.6254 63.2751 81.5746 63.1518L81.1286 61.9769ZM78.4412 61.4329H80.9218L79.7142 58.2232L78.4412 61.4329Z" fill="white"/>
<path d="M85.1591 65.0124H84.9198V63.141H85.1918C85.4747 64.1637 85.9896 64.6751 86.7367 64.6751C87.0269 64.6751 87.2553 64.6062 87.4222 64.4684C87.5962 64.3234 87.6833 64.1057 87.6833 63.8156C87.6833 63.7068 87.6652 63.6161 87.6289 63.5436C87.5999 63.4638 87.5382 63.384 87.444 63.3042C87.3569 63.2172 87.23 63.1192 87.0632 63.0105C86.9035 62.9017 86.6896 62.7639 86.4212 62.597C86.1746 62.4448 85.9606 62.3033 85.7793 62.1728C85.5979 62.0422 85.4457 61.9116 85.3224 61.7811C85.199 61.6432 85.1048 61.4982 85.0395 61.3459C84.9815 61.1935 84.9525 61.0158 84.9525 60.8127C84.9525 60.5662 84.9923 60.3413 85.0721 60.1381C85.1591 59.9278 85.2752 59.7501 85.4202 59.605C85.5654 59.46 85.7358 59.3476 85.9316 59.2678C86.1275 59.1808 86.3414 59.1372 86.5735 59.1372C86.7694 59.1372 86.9725 59.1699 87.1829 59.2351C87.3932 59.2932 87.5781 59.373 87.7377 59.4746L87.9553 59.246H88.162V60.8127H87.8791C87.7195 60.3703 87.5454 60.0548 87.3569 59.8661C87.1683 59.6776 86.9362 59.5833 86.6606 59.5833C86.4139 59.5833 86.2145 59.6486 86.0622 59.7791C85.9171 59.9097 85.8446 60.091 85.8446 60.3232C85.8446 60.4465 85.8627 60.5553 85.8989 60.6495C85.9425 60.7366 86.0078 60.8236 86.0948 60.9106C86.1818 60.9977 86.2906 61.0884 86.4212 61.1826C86.5591 61.2697 86.7222 61.3713 86.9108 61.4873C87.2226 61.6832 87.4874 61.8572 87.7051 62.0095C87.9299 62.1619 88.1112 62.3142 88.249 62.4664C88.3869 62.6116 88.4885 62.7639 88.5537 62.9235C88.6189 63.083 88.6516 63.2644 88.6516 63.4675C88.6516 63.9824 88.4848 64.3886 88.1511 64.686C87.8174 64.9761 87.3786 65.1212 86.8346 65.1212C86.2689 65.1212 85.7829 64.958 85.3767 64.6316L85.1591 65.0124Z" fill="white"/>
<path d="M90.0998 65.0124H89.8604V63.141H90.1325C90.4152 64.1637 90.9303 64.6751 91.6774 64.6751C91.9675 64.6751 92.196 64.6062 92.3628 64.4684C92.5369 64.3234 92.6239 64.1057 92.6239 63.8156C92.6239 63.7068 92.6058 63.6161 92.5695 63.5436C92.5405 63.4638 92.4789 63.384 92.3845 63.3042C92.2975 63.2172 92.1705 63.1192 92.0037 63.0105C91.8442 62.9017 91.6302 62.7639 91.3618 62.597C91.1153 62.4448 90.9013 62.3033 90.7199 62.1728C90.5386 62.0422 90.3862 61.9116 90.2629 61.7811C90.1397 61.6432 90.0453 61.4982 89.9801 61.3459C89.922 61.1935 89.893 61.0158 89.893 60.8127C89.893 60.5662 89.9329 60.3413 90.0127 60.1381C90.0998 59.9278 90.2158 59.7501 90.3609 59.605C90.5059 59.46 90.6764 59.3476 90.8723 59.2678C91.068 59.1808 91.2821 59.1372 91.5142 59.1372C91.71 59.1372 91.9131 59.1699 92.1234 59.2351C92.3338 59.2932 92.5188 59.373 92.6783 59.4746L92.8959 59.246H93.1027V60.8127H92.8198C92.6602 60.3703 92.4861 60.0548 92.2975 59.8661C92.109 59.6776 91.8768 59.5833 91.6012 59.5833C91.3546 59.5833 91.1552 59.6486 91.0028 59.7791C90.8577 59.9097 90.7853 60.091 90.7853 60.3232C90.7853 60.4465 90.8034 60.5553 90.8396 60.6495C90.8831 60.7366 90.9484 60.8236 91.0355 60.9106C91.1225 60.9977 91.2313 61.0884 91.3618 61.1826C91.4996 61.2697 91.6628 61.3713 91.8514 61.4873C92.1633 61.6832 92.4281 61.8572 92.6457 62.0095C92.8705 62.1619 93.0519 62.3142 93.1897 62.4664C93.3275 62.6116 93.429 62.7639 93.4943 62.9235C93.5596 63.083 93.5922 63.2644 93.5922 63.4675C93.5922 63.9824 93.4253 64.3886 93.0918 64.686C92.7581 64.9761 92.3193 65.1212 91.7753 65.1212C91.2095 65.1212 90.7236 64.958 90.3174 64.6316L90.0998 65.0124Z" fill="white"/>
<path d="M97.6407 59.1372C98.0541 59.1372 98.4458 59.2133 98.8157 59.3657C99.1856 59.5108 99.5084 59.7139 99.784 59.975C100.067 60.2361 100.288 60.548 100.448 60.9106C100.615 61.2661 100.698 61.6578 100.698 62.0857C100.698 62.5281 100.615 62.9343 100.448 63.3042C100.288 63.6742 100.067 63.9933 99.784 64.2617C99.5084 64.5301 99.1856 64.7404 98.8157 64.8927C98.4458 65.0451 98.0541 65.1212 97.6407 65.1212C97.2345 65.1212 96.8464 65.0486 96.4765 64.9036C96.1138 64.7513 95.7947 64.541 95.5191 64.2726C95.2435 64.0042 95.0259 63.685 94.8663 63.3151C94.7068 62.9379 94.627 62.5281 94.627 62.0857C94.627 61.6578 94.7068 61.2624 94.8663 60.8997C95.0259 60.5372 95.2435 60.2253 95.5191 59.9641C95.7947 59.703 96.1138 59.4999 96.4765 59.3548C96.8464 59.2098 97.2345 59.1372 97.6407 59.1372ZM97.6407 59.6595C97.3723 59.6595 97.1257 59.7175 96.9008 59.8336C96.6833 59.9496 96.4946 60.1165 96.3351 60.334C96.1828 60.5444 96.063 60.8018 95.976 61.1065C95.8963 61.4039 95.8564 61.7339 95.8564 62.0965C95.8564 62.4738 95.8963 62.8147 95.976 63.1192C96.063 63.4239 96.1828 63.685 96.3351 63.9026C96.4946 64.1129 96.6833 64.2762 96.9008 64.3923C97.1184 64.5083 97.3651 64.5663 97.6407 64.5663C97.9163 64.5663 98.1666 64.5083 98.3913 64.3923C98.6162 64.2762 98.8085 64.1094 98.968 63.8917C99.1276 63.6742 99.2509 63.413 99.3379 63.1085C99.4249 62.8038 99.4685 62.4664 99.4685 62.0965C99.4685 61.7339 99.4249 61.4039 99.3379 61.1065C99.2509 60.8092 99.1276 60.5553 98.968 60.3449C98.8085 60.1274 98.6162 59.9605 98.3913 59.8445C98.1666 59.7211 97.9163 59.6595 97.6407 59.6595Z" fill="white"/>
<path d="M106.729 64.1094C106.468 64.4285 106.13 64.6787 105.717 64.8601C105.303 65.0342 104.857 65.1212 104.379 65.1212C103.994 65.1212 103.639 65.0523 103.312 64.9145C102.993 64.7694 102.718 64.57 102.486 64.3161C102.253 64.0549 102.072 63.743 101.942 63.3804C101.818 63.0178 101.756 62.6152 101.756 62.1728C101.756 61.7085 101.829 61.2914 101.974 60.9215C102.119 60.5444 102.322 60.2253 102.583 59.9641C102.852 59.6957 103.171 59.4927 103.541 59.3548C103.918 59.2098 104.331 59.1372 104.781 59.1372C105.064 59.1372 105.322 59.1627 105.554 59.2133C105.786 59.2569 105.985 59.3222 106.152 59.4092C106.326 59.489 106.46 59.5906 106.555 59.7139C106.649 59.8299 106.696 59.9568 106.696 60.0947C106.696 60.2397 106.649 60.3522 106.555 60.4319C106.46 60.5117 106.33 60.5516 106.163 60.5516C106.032 60.5516 105.924 60.5263 105.837 60.4755C105.75 60.4175 105.637 60.2941 105.499 60.1056C105.354 59.9387 105.213 59.8227 105.075 59.7574C104.944 59.6849 104.774 59.6486 104.564 59.6486C104.049 59.6486 103.657 59.848 103.389 60.247C103.127 60.6459 102.997 61.2334 102.997 62.0095C102.997 62.8437 103.142 63.4784 103.432 63.9135C103.729 64.3415 104.161 64.5554 104.727 64.5554C105.031 64.5554 105.318 64.4974 105.586 64.3814C105.855 64.2581 106.127 64.0623 106.402 63.7938L106.729 64.1094Z" fill="white"/>
<path d="M109.537 63.2829C109.537 63.5658 109.548 63.7942 109.57 63.9682C109.599 64.1351 109.649 64.2693 109.722 64.3708C109.795 64.4651 109.896 64.5305 110.027 64.5667C110.157 64.6029 110.331 64.6247 110.549 64.6319V65.0127H107.426V64.6319C107.644 64.6247 107.822 64.6029 107.96 64.5667C108.097 64.5231 108.203 64.4579 108.275 64.3708C108.355 64.2766 108.406 64.1497 108.427 63.99C108.456 63.8232 108.471 63.6129 108.471 63.359V61.9664C108.471 61.5457 108.464 61.2011 108.449 60.9328C108.442 60.6571 108.424 60.4686 108.395 60.367C108.358 60.2002 108.275 60.0878 108.144 60.0298C108.014 59.9644 107.767 59.9319 107.405 59.9319V59.5511L109.537 59.1376V63.2829ZM108.286 56.929C108.286 56.7404 108.351 56.5808 108.482 56.4502C108.612 56.3198 108.772 56.2544 108.96 56.2544C109.149 56.2544 109.309 56.3198 109.439 56.4502C109.57 56.5808 109.635 56.7404 109.635 56.929C109.635 57.1176 109.57 57.2771 109.439 57.4077C109.309 57.5382 109.149 57.6036 108.96 57.6036C108.772 57.6036 108.612 57.5382 108.482 57.4077C108.351 57.2771 108.286 57.1176 108.286 56.929Z" fill="white"/>
<path d="M114.562 61.792C114.148 61.9515 113.796 62.1074 113.506 62.2598C113.223 62.4121 112.995 62.5644 112.821 62.7168C112.647 62.869 112.52 63.0214 112.44 63.1737C112.368 63.326 112.331 63.4819 112.331 63.6415C112.331 63.8809 112.411 64.0767 112.571 64.2291C112.73 64.3814 112.941 64.4575 113.202 64.4575C113.39 64.4575 113.564 64.4104 113.724 64.3161C113.891 64.2218 114.036 64.0948 114.159 63.9353C114.282 63.7685 114.38 63.5763 114.453 63.3587C114.525 63.1338 114.562 62.898 114.562 62.6515V61.792ZM114.562 61.3241V60.8781C114.562 59.9931 114.185 59.5507 113.43 59.5507C113.307 59.5507 113.202 59.5616 113.115 59.5833C113.028 59.605 112.955 59.6414 112.897 59.6921C112.839 59.7429 112.785 59.8155 112.734 59.9097C112.69 60.004 112.647 60.12 112.603 60.2578C112.524 60.4683 112.444 60.6096 112.364 60.6822C112.291 60.7475 112.183 60.7802 112.038 60.7802C111.675 60.7802 111.494 60.5987 111.494 60.2361C111.494 59.8879 111.678 59.6196 112.049 59.431C112.418 59.2351 112.944 59.1372 113.626 59.1372C114.351 59.1372 114.866 59.2678 115.171 59.5289C115.475 59.7828 115.628 60.2179 115.628 60.8345V63.2716C115.628 64.0985 115.792 64.512 116.117 64.512C116.219 64.512 116.317 64.5011 116.411 64.4793C116.506 64.4503 116.585 64.3814 116.65 64.2726L116.803 64.5336C116.716 64.7005 116.556 64.842 116.325 64.958C116.092 65.0668 115.849 65.1212 115.595 65.1212C115.277 65.1212 115.037 65.0196 114.878 64.8165C114.725 64.6135 114.649 64.327 114.649 63.957H114.594C114.406 64.3125 114.145 64.5953 113.811 64.8056C113.477 65.0088 113.107 65.1103 112.701 65.1103C112.244 65.1103 111.885 64.9943 111.624 64.7622C111.363 64.5301 111.232 64.2182 111.232 63.8265C111.232 63.6524 111.261 63.4856 111.319 63.326C111.385 63.1665 111.486 63.0141 111.624 62.869C111.762 62.724 111.943 62.5826 112.168 62.4448C112.393 62.2997 112.669 62.1547 112.995 62.0095L114.562 61.3241Z" fill="white"/>
<path d="M122.055 64.0989H122.011C121.75 64.4688 121.471 64.7336 121.174 64.8931C120.884 65.0454 120.539 65.1216 120.14 65.1216C119.727 65.1216 119.346 65.049 118.998 64.9039C118.657 64.7517 118.359 64.5449 118.106 64.2838C117.859 64.0155 117.663 63.6963 117.518 63.3264C117.38 62.9565 117.311 62.554 117.311 62.1187C117.311 61.6908 117.38 61.2955 117.518 60.9328C117.663 60.5629 117.859 60.2473 118.106 59.9862C118.359 59.7179 118.661 59.5112 119.008 59.3661C119.357 59.2137 119.734 59.1376 120.14 59.1376C120.488 59.1376 120.797 59.1956 121.065 59.3117C121.34 59.4277 121.605 59.6127 121.859 59.8665V58.7568C121.859 58.3434 121.852 57.9988 121.837 57.7232C121.83 57.4476 121.815 57.259 121.793 57.1575C121.758 56.9979 121.656 56.8854 121.489 56.8202C121.322 56.7549 121.05 56.7223 120.673 56.7223V56.3959L122.903 55.9824V62.2602C122.903 62.7606 122.907 63.1741 122.915 63.5004C122.922 63.8197 122.943 64.0481 122.98 64.1859C123.002 64.2729 123.027 64.3455 123.056 64.4035C123.092 64.4616 123.139 64.5087 123.197 64.5449C123.262 64.5739 123.346 64.5957 123.448 64.6102C123.557 64.6247 123.694 64.632 123.861 64.632V65.0019L122.055 65.1216V64.0989ZM121.837 61.6944C121.837 61.3173 121.815 61.0307 121.771 60.8349C121.736 60.639 121.659 60.4686 121.543 60.3236C121.377 60.1059 121.163 59.9428 120.901 59.834C120.648 59.7179 120.394 59.6599 120.14 59.6599C119.618 59.6599 119.219 59.8774 118.943 60.3127C118.674 60.7406 118.54 61.3245 118.54 62.0643C118.54 62.4487 118.573 62.7969 118.639 63.1088C118.711 63.4207 118.813 63.6891 118.943 63.9139C119.081 64.1316 119.248 64.3019 119.444 64.4252C119.647 64.5414 119.878 64.5994 120.14 64.5994C120.27 64.5994 120.401 64.5848 120.532 64.5558C120.669 64.5268 120.8 64.4832 120.923 64.4252C121.054 64.36 121.174 64.2875 121.282 64.2077C121.391 64.1207 121.481 64.0227 121.555 63.9139C121.656 63.7543 121.729 63.5621 121.771 63.3373C121.815 63.1124 121.837 62.8042 121.837 62.4125V61.6944Z" fill="white"/>
<path d="M127.666 59.1372C128.08 59.1372 128.471 59.2133 128.842 59.3657C129.212 59.5108 129.534 59.7139 129.81 59.975C130.093 60.2361 130.314 60.548 130.473 60.9106C130.641 61.2661 130.723 61.6578 130.723 62.0857C130.723 62.5281 130.641 62.9343 130.473 63.3042C130.314 63.6742 130.093 63.9933 129.81 64.2617C129.534 64.5301 129.212 64.7404 128.842 64.8927C128.471 65.0451 128.08 65.1212 127.666 65.1212C127.26 65.1212 126.873 65.0486 126.503 64.9036C126.14 64.7513 125.82 64.541 125.545 64.2726C125.27 64.0042 125.052 63.685 124.893 63.3151C124.733 62.9379 124.653 62.5281 124.653 62.0857C124.653 61.6578 124.733 61.2624 124.893 60.8997C125.052 60.5372 125.27 60.2253 125.545 59.9641C125.82 59.703 126.14 59.4999 126.503 59.3548C126.873 59.2098 127.26 59.1372 127.666 59.1372ZM127.666 59.6595C127.398 59.6595 127.152 59.7175 126.927 59.8336C126.709 59.9496 126.521 60.1165 126.361 60.334C126.209 60.5444 126.089 60.8018 126.003 61.1065C125.922 61.4039 125.882 61.7339 125.882 62.0965C125.882 62.4738 125.922 62.8147 126.003 63.1192C126.089 63.4239 126.209 63.685 126.361 63.9026C126.521 64.1129 126.709 64.2762 126.927 64.3923C127.145 64.5083 127.391 64.5663 127.666 64.5663C127.943 64.5663 128.193 64.5083 128.417 64.3923C128.642 64.2762 128.835 64.1094 128.994 63.8917C129.154 63.6742 129.277 63.413 129.363 63.1085C129.451 62.8038 129.494 62.4664 129.494 62.0965C129.494 61.7339 129.451 61.4039 129.363 61.1065C129.277 60.8092 129.154 60.5553 128.994 60.3449C128.835 60.1274 128.642 59.9605 128.417 59.8445C128.193 59.7211 127.943 59.6595 127.666 59.6595Z" fill="white"/>
<path d="M132.185 65.0124H131.946V63.141H132.218C132.501 64.1637 133.016 64.6751 133.763 64.6751C134.053 64.6751 134.282 64.6062 134.448 64.4684C134.622 64.3234 134.709 64.1057 134.709 63.8156C134.709 63.7068 134.691 63.6161 134.655 63.5436C134.626 63.4638 134.565 63.384 134.47 63.3042C134.382 63.2172 134.256 63.1192 134.089 63.0105C133.93 62.9017 133.715 62.7639 133.447 62.597C133.2 62.4448 132.987 62.3033 132.806 62.1728C132.623 62.0422 132.472 61.9116 132.348 61.7811C132.226 61.6432 132.13 61.4982 132.065 61.3459C132.008 61.1935 131.978 61.0158 131.978 60.8127C131.978 60.5662 132.018 60.3413 132.098 60.1381C132.185 59.9278 132.301 59.7501 132.446 59.605C132.591 59.46 132.762 59.3476 132.957 59.2678C133.153 59.1808 133.368 59.1372 133.599 59.1372C133.795 59.1372 133.998 59.1699 134.209 59.2351C134.419 59.2932 134.604 59.373 134.763 59.4746L134.981 59.246H135.189V60.8127H134.905C134.746 60.3703 134.572 60.0548 134.382 59.8661C134.194 59.6776 133.962 59.5833 133.686 59.5833C133.44 59.5833 133.24 59.6486 133.088 59.7791C132.943 59.9097 132.871 60.091 132.871 60.3232C132.871 60.4465 132.888 60.5553 132.925 60.6495C132.969 60.7366 133.034 60.8236 133.121 60.9106C133.208 60.9977 133.317 61.0884 133.447 61.1826C133.586 61.2697 133.748 61.3713 133.936 61.4873C134.248 61.6832 134.513 61.8572 134.731 62.0095C134.956 62.1619 135.137 62.3142 135.275 62.4664C135.413 62.6116 135.514 62.7639 135.58 62.9235C135.645 63.083 135.677 63.2644 135.677 63.4675C135.677 63.9824 135.511 64.3886 135.177 64.686C134.843 64.9761 134.404 65.1212 133.861 65.1212C133.295 65.1212 132.809 64.958 132.403 64.6316L132.185 65.0124Z" fill="white"/>
<path d="M0 46.2231H30.6139" stroke="white" stroke-width="1.14667"/>
<path d="M140.816 62.2686H171.43" stroke="white" stroke-width="1.14667"/>
</g>
<defs>
<clipPath id="clip0_1066_2572">
<rect width="172" height="65.36" fill="white" transform="translate(0 0.0541992)"/>
</clipPath>
</defs>
</svg>
