<svg width="133" height="32" viewBox="0 0 133 32" fill="none" xmlns="http://www.w3.org/2000/svg">
<path d="M14.0051 31.962C11.8484 31.962 9.90753 31.6196 8.18227 30.9347C6.45702 30.2499 4.98548 29.2859 3.76765 28.0429C2.54982 26.7746 1.61108 25.2399 0.951427 23.4389C0.317142 21.6378 0 19.6338 0 17.427C0 15.1187 0.355199 13.0132 1.0656 11.1107C1.776 9.20819 2.76548 7.57204 4.03405 6.20224C5.32799 4.83244 6.86296 3.77972 8.63896 3.04409C10.4403 2.28308 12.4193 1.90259 14.5759 1.90259C16.0981 1.90259 17.5316 2.1182 18.8763 2.54944C20.221 2.98067 21.6798 3.67825 23.2529 4.64219L24.0521 2.28308H25.384L24.8893 11.0346H23.0625C23.0625 9.79163 22.8216 8.72622 22.3395 7.8384C21.8828 6.9252 21.2739 6.17688 20.5128 5.59344C19.7516 5.01001 18.8763 4.57878 17.8869 4.29974C16.9227 4.0207 15.9332 3.8812 14.9184 3.8812C13.3707 3.8812 11.988 4.1856 10.7702 4.7944C9.55233 5.4032 8.52479 6.27834 7.68753 7.41984C6.85027 8.56134 6.2033 9.95651 5.74662 11.6053C5.31531 13.2542 5.09965 15.1187 5.09965 17.1987C5.09965 21.2828 5.94959 24.4282 7.64948 26.6351C9.34936 28.8166 11.8104 29.9074 15.0326 29.9074C16.2503 29.9074 17.3413 29.7678 18.3055 29.4889C19.2696 29.1845 20.0815 28.7913 20.7411 28.3093C21.4261 27.8019 21.9336 27.2312 22.2634 26.5971C22.6186 25.9375 22.7961 25.2527 22.7961 24.5423C22.7961 23.0711 22.4917 22.0818 21.8828 21.5744C21.2992 21.0418 20.3351 20.7754 18.9905 20.7754V19.3295H29.7987V20.7754C29.1897 20.7754 28.6824 20.8261 28.2764 20.9276C27.8705 21.029 27.5406 21.2193 27.2869 21.4983C27.0586 21.752 26.8937 22.0945 26.7922 22.5256C26.7161 22.9569 26.6781 23.5023 26.6781 24.1619V28.4234C26.1959 28.4234 25.752 28.4489 25.346 28.4995C24.9654 28.525 24.5596 28.6136 24.1282 28.7658C23.6969 28.8927 23.2148 29.083 22.682 29.3367C22.1745 29.565 21.5656 29.882 20.8553 30.2879C19.9673 30.7953 18.9397 31.2011 17.7727 31.5055C16.6309 31.8098 15.3751 31.962 14.0051 31.962Z" fill="#4C4C4C"/>
<path d="M38.7845 25.6457C38.7845 26.6096 38.8226 27.3833 38.8987 27.9667C38.9748 28.5502 39.127 29.0068 39.3554 29.3366C39.6092 29.6663 39.9517 29.8946 40.383 30.0215C40.8397 30.1482 41.4358 30.2243 42.1716 30.2498V31.5815H31.6679V30.2498C32.429 30.2243 33.0379 30.1482 33.4947 30.0215C33.9514 29.8693 34.3065 29.641 34.5603 29.3366C34.8394 29.0321 35.0169 28.6136 35.093 28.0809C35.1945 27.5229 35.2453 26.7998 35.2453 25.912V9.5125C35.2453 8.14269 35.2199 7.0012 35.1691 6.088C35.1438 5.14943 35.093 4.51527 35.0169 4.1855C34.89 3.60207 34.5856 3.20888 34.1036 3.00595C33.6469 2.80301 32.8096 2.70155 31.5918 2.70155V1.40786L38.7845 0V25.6457Z" fill="#4C4C4C"/>
<path d="M55.575 11.0344C57.0212 11.0344 58.3912 11.3008 59.6852 11.8335C60.9791 12.3408 62.1082 13.051 63.0723 13.9643C64.0617 14.8775 64.8356 15.9683 65.3938 17.2366C65.9772 18.4795 66.2691 19.8494 66.2691 21.346C66.2691 22.8934 65.9772 24.3139 65.3938 25.6075C64.8356 26.9013 64.0617 28.0174 63.0723 28.9559C62.1082 29.8945 60.9791 30.6302 59.6852 31.1629C58.3912 31.6955 57.0212 31.9619 55.575 31.9619C54.1542 31.9619 52.7969 31.7083 51.5029 31.2009C50.2343 30.6682 49.118 29.9326 48.1539 28.994C47.1898 28.0555 46.4287 26.9394 45.8704 25.6456C45.3123 24.3266 45.0332 22.8934 45.0332 21.346C45.0332 19.8494 45.3123 18.4669 45.8704 17.1986C46.4287 15.9301 47.1898 14.8394 48.1539 13.9263C49.118 13.013 50.2343 12.3028 51.5029 11.7954C52.7969 11.2881 54.1542 11.0344 55.575 11.0344ZM55.575 12.8608C54.6363 12.8608 53.7736 13.0638 52.9872 13.4696C52.2259 13.8755 51.5664 14.459 51.0082 15.2199C50.4754 15.9556 50.0568 16.856 49.7523 17.9215C49.4732 18.9615 49.3336 20.1157 49.3336 21.384C49.3336 22.7031 49.4732 23.8954 49.7523 24.9607C50.0568 26.0261 50.4754 26.9394 51.0082 27.7003C51.5664 28.436 52.2259 29.0067 52.9872 29.4126C53.7483 29.8184 54.6108 30.0214 55.575 30.0214C56.5391 30.0214 57.4145 29.8184 58.2009 29.4126C58.9875 29.0067 59.6598 28.4232 60.218 27.6623C60.7761 26.9013 61.2074 25.988 61.5119 24.9227C61.8163 23.8573 61.9687 22.6777 61.9687 21.384C61.9687 20.1157 61.8163 18.9615 61.5119 17.9215C61.2074 16.8815 60.7761 15.9936 60.218 15.258C59.6598 14.497 58.9875 13.9136 58.2009 13.5076C57.4145 13.0765 56.5391 12.8608 55.575 12.8608Z" fill="#4C4C4C"/>
<path d="M76.518 25.4934C76.518 26.5589 76.5434 27.3959 76.5941 28.0047C76.6449 28.6135 76.7718 29.0828 76.9747 29.4126C77.203 29.717 77.5202 29.9199 77.9262 30.0214C78.3321 30.1228 78.9029 30.1989 79.6387 30.2497V31.5814H69.5156V30.2497C70.2513 30.1989 70.8349 30.1228 71.2661 30.0214C71.6975 29.9199 72.0274 29.717 72.2557 29.4126C72.484 29.1081 72.6235 28.677 72.6743 28.1189C72.7504 27.5354 72.7885 26.7617 72.7885 25.7978V20.9274C72.7885 19.4815 72.7631 18.2767 72.7124 17.3127C72.687 16.3488 72.6235 15.6892 72.5221 15.3341C72.446 15.0044 72.3571 14.7506 72.2557 14.5731C72.1541 14.3701 71.9893 14.2179 71.761 14.1165C71.5325 13.9897 71.2281 13.9136 70.8475 13.8882C70.4923 13.8375 70.023 13.812 69.4395 13.812V12.4803L75.6428 11.0344L76.1375 14.8394H76.3278C77.4694 13.5457 78.6619 12.5945 79.9051 11.9857C81.1737 11.3515 82.5691 11.0344 84.0915 11.0344C85.6898 11.0344 87.0345 11.3642 88.1255 12.0237C89.2165 12.6579 89.9776 13.5837 90.4089 14.8014H90.5612C91.4998 13.6092 92.6416 12.6833 93.9863 12.0237C95.3309 11.3642 96.7645 11.0344 98.2867 11.0344C99.4791 11.0344 100.557 11.2374 101.522 11.6432C102.511 12.0237 103.259 12.5564 103.767 13.2413C104.224 13.8247 104.541 14.5984 104.718 15.5624C104.921 16.501 105.023 17.7946 105.023 19.4434V25.4934C105.023 26.5334 105.048 27.3579 105.099 27.9667C105.175 28.5754 105.315 29.0447 105.517 29.3746C105.72 29.7043 106.025 29.9199 106.431 30.0214C106.862 30.1228 107.446 30.1989 108.181 30.2497V31.5814H98.0583V30.2497C98.7688 30.2242 99.3396 30.1609 99.771 30.0595C100.202 29.9326 100.532 29.717 100.76 29.4126C100.989 29.0828 101.128 28.6389 101.179 28.0808C101.255 27.5228 101.293 26.7617 101.293 25.7978V21.0035C101.293 19.5576 101.217 18.34 101.065 17.3508C100.913 16.3361 100.659 15.5243 100.304 14.9155C99.9485 14.2813 99.4791 13.8247 98.8956 13.5457C98.3375 13.2667 97.6525 13.1271 96.8406 13.1271C95.7242 13.1271 94.6713 13.4443 93.6818 14.0785C92.7177 14.6873 91.9565 15.5116 91.3984 16.5516C91.2715 16.8054 91.1573 17.059 91.0559 17.3127C90.9798 17.541 90.9163 17.8074 90.8656 18.1117C90.8148 18.3908 90.7768 18.7332 90.7514 19.139C90.7514 19.545 90.7514 20.0523 90.7514 20.6611V25.4934C90.7514 26.5334 90.7768 27.3579 90.8275 27.9667C90.8782 28.5754 91.0051 29.0447 91.2081 29.3746C91.4364 29.7043 91.7662 29.9199 92.1975 30.0214C92.6289 30.1228 93.2124 30.1989 93.9482 30.2497V31.5814H83.8251V30.2497C84.5354 30.1989 85.1062 30.1228 85.5376 30.0214C85.9689 29.9199 86.2861 29.717 86.489 29.4126C86.7173 29.1081 86.8569 28.677 86.9076 28.1189C86.9838 27.5354 87.0219 26.7617 87.0219 25.7978V21.0035C87.0219 19.5323 86.9458 18.302 86.7935 17.3127C86.6412 16.298 86.3875 15.4863 86.0323 14.8775C85.7025 14.2433 85.2585 13.7994 84.7003 13.5457C84.1421 13.2667 83.4571 13.1271 82.6452 13.1271C81.5036 13.1271 80.4253 13.4443 79.4104 14.0785C78.4209 14.6873 77.6724 15.5116 77.165 16.5516C77.0382 16.8054 76.924 17.059 76.8225 17.3127C76.7464 17.541 76.683 17.8074 76.6322 18.1117C76.5814 18.3908 76.5435 18.7332 76.518 19.139C76.518 19.545 76.518 20.0523 76.518 20.6611V25.4934Z" fill="#4C4C4C"/>
<path d="M116.145 23.6291C116.145 24.593 116.284 25.4809 116.564 26.2926C116.843 27.0789 117.223 27.7638 117.705 28.3472C118.213 28.9054 118.809 29.3492 119.494 29.679C120.204 30.0088 120.966 30.1737 121.777 30.1737C122.665 30.1737 123.465 29.9707 124.175 29.5649C124.911 29.159 125.532 28.5882 126.04 27.8526C126.573 27.0916 126.978 26.1911 127.258 25.151C127.562 24.0857 127.714 22.906 127.714 21.6124C127.714 20.3188 127.562 19.1391 127.258 18.0738C126.953 16.983 126.535 16.0571 126.002 15.2961C125.469 14.5097 124.822 13.9009 124.061 13.4697C123.325 13.0385 122.513 12.8229 121.625 12.8229C120.585 12.8229 119.659 13.0766 118.847 13.5838C118.035 14.0658 117.414 14.7507 116.982 15.6385C116.424 16.7547 116.145 18.2893 116.145 20.2427V23.6291ZM116.069 14.1166H116.221C117.033 13.0511 117.921 12.2775 118.885 11.7955C119.875 11.2882 121.016 11.0345 122.31 11.0345C123.68 11.0345 124.949 11.3009 126.116 11.8335C127.308 12.3662 128.336 13.1019 129.199 14.0405C130.086 14.979 130.771 16.0951 131.253 17.3889C131.761 18.6572 132.014 20.027 132.014 21.4983C132.014 22.9949 131.761 24.3901 131.253 25.6837C130.747 26.952 130.049 28.0556 129.16 28.994C128.298 29.9327 127.27 30.6683 126.078 31.201C124.885 31.7337 123.591 32 122.196 32C120.75 32 119.392 31.7337 118.124 31.201C116.881 30.6683 115.853 29.9454 115.041 29.0321L113.253 31.5815H112.415V8.5993C112.415 6.03727 112.25 4.40112 111.921 3.69085C111.844 3.51328 111.756 3.37376 111.654 3.27231C111.553 3.14547 111.401 3.044 111.198 2.9679C110.995 2.86643 110.716 2.77765 110.36 2.70155C110.005 2.62546 109.523 2.54935 108.914 2.47325V1.522L116.069 0V14.1166Z" fill="#4C4C4C"/>
</svg>
