<svg width="29" height="29" viewBox="0 0 29 29" fill="none" xmlns="https://www.w3.org/2000/svg">
<path fill-rule="evenodd" clip-rule="evenodd" d="M4.54755 0.375366L24.3297 0.375366C26.6312 0.381804 28.4953 2.24593 28.5017 4.54742L28.5017 24.3295C28.4953 26.631 26.6312 28.4952 24.3297 28.5016L4.54755 28.5016C2.24605 28.4952 0.381926 26.631 0.375489 24.3295L0.375488 4.54742C0.381926 2.24593 2.24605 0.381804 4.54755 0.375366ZM24.3296 26.1578C25.3393 26.1578 26.1578 25.3393 26.1578 24.3296L26.1578 4.54747C26.1578 3.53778 25.3393 2.71926 24.3296 2.71926L4.54747 2.71926C3.53778 2.71926 2.71926 3.53778 2.71926 4.54747L2.71926 24.3296C2.71926 25.3393 3.53778 26.1578 4.54747 26.1578L24.3296 26.1578ZM7.40746 14.4384C7.40746 10.555 10.5556 7.40684 14.439 7.40684C16.3039 7.40684 18.0924 8.14767 19.4111 9.46634C20.7297 10.785 21.4706 12.5735 21.4706 14.4384C21.4706 18.3218 18.3224 21.47 14.439 21.47C10.5556 21.47 7.40746 18.3218 7.40746 14.4384ZM9.75138 14.4384C9.75138 17.0274 11.8501 19.1261 14.4391 19.1261C15.6823 19.1261 16.8747 18.6322 17.7538 17.7531C18.6329 16.874 19.1268 15.6817 19.1268 14.4384C19.1268 11.8495 17.028 9.75072 14.4391 9.75072C11.8501 9.75072 9.75138 11.8495 9.75138 14.4384ZM22.056 8.57893C23.0269 8.57893 23.8139 7.7919 23.8139 6.82105C23.8139 5.85019 23.0269 5.06316 22.056 5.06316C21.0852 5.06316 20.2982 5.85019 20.2982 6.82105C20.2982 7.7919 21.0852 8.57893 22.056 8.57893Z" fill="#1862B2"/>
</svg>
