<svg width="25" height="24" viewBox="0 0 25 24" fill="none" xmlns="http://www.w3.org/2000/svg">
<path d="M12.4879 23.611C9.33897 23.611 8.96777 23.5944 7.73897 23.5406C6.78073 23.5091 5.8349 23.3143 4.94217 22.9646C3.39761 22.3635 2.17627 21.1418 1.57577 19.597C1.23953 18.701 1.05817 17.7544 1.03945 16.7976C0.967773 15.5714 0.967773 15.1694 0.967773 12.045C0.967773 8.88719 0.984413 8.5185 1.03945 7.2961C1.05858 6.34062 1.23993 5.39532 1.57577 4.50058C2.17562 2.95374 3.39894 1.73089 4.94601 1.13162C5.84029 0.793971 6.78582 0.612134 7.74153 0.594022C8.96393 0.524902 9.36585 0.524902 12.4879 0.524902C15.6623 0.524902 16.0271 0.541542 17.2367 0.594022C18.1948 0.612288 19.1429 0.794099 20.0399 1.13162C21.5865 1.73157 22.8096 2.95419 23.4101 4.50058C23.752 5.40836 23.9343 6.36843 23.949 7.33834C24.0207 8.56458 24.0207 8.96527 24.0207 12.0885C24.0207 15.2117 24.0028 15.6213 23.949 16.8334C23.9299 17.7911 23.748 18.7386 23.4114 19.6354C22.8093 21.1812 21.5861 22.4035 20.0399 23.0043C19.1441 23.3399 18.1981 23.5213 17.2418 23.5406C16.0194 23.611 15.6188 23.611 12.4879 23.611ZM12.4444 2.55114C9.31337 2.55114 8.98825 2.5665 7.76585 2.62154C7.03624 2.63122 6.31367 2.76586 5.62953 3.01962C4.61931 3.40619 3.81991 4.20234 3.42921 5.21098C3.1735 5.90257 3.03883 6.63304 3.03113 7.37034C2.96329 8.61066 2.96329 8.93583 2.96329 12.045C2.96329 15.117 2.97481 15.4894 3.03113 16.7221C3.0426 17.4519 3.17718 18.1746 3.42921 18.8597C3.82048 19.8677 4.61974 20.6632 5.62953 21.0498C6.31321 21.3052 7.03606 21.4399 7.76585 21.4478C9.00489 21.5195 9.33129 21.5195 12.4444 21.5195C15.5842 21.5195 15.9093 21.5042 17.1215 21.4478C17.8516 21.439 18.5747 21.3043 19.2591 21.0498C20.2631 20.6599 21.0574 19.8661 21.4479 18.8622C21.7031 18.1701 21.8376 17.4393 21.846 16.7016H21.86C21.9151 15.4779 21.9151 15.1515 21.9151 12.0245C21.9151 8.89743 21.901 8.56842 21.846 7.34602C21.8344 6.61701 21.6998 5.89517 21.4479 5.21098C21.0583 4.20564 20.2639 3.41041 19.2591 3.01962C18.5748 2.76458 17.8516 2.6299 17.1215 2.62154C15.8837 2.55114 15.5599 2.55114 12.4444 2.55114ZM12.4879 17.9573C10.0942 17.9588 7.93535 16.5182 7.01817 14.3074C6.10097 12.0964 6.60606 9.55062 8.29786 7.85734C9.98971 6.16407 12.535 5.65678 14.7467 6.57206C16.9584 7.48733 18.4008 9.64495 18.4015 12.0386C18.3979 15.304 15.7532 17.9509 12.4879 17.9573ZM12.4879 8.19594C10.3671 8.19594 8.64777 9.91529 8.64777 12.036C8.64777 14.1568 10.3671 15.876 12.4879 15.876C14.6086 15.876 16.3279 14.1568 16.3279 12.036C16.3229 9.91721 14.6065 8.20087 12.4879 8.19594ZM18.6319 7.28332C17.8708 7.28049 17.2558 6.66198 17.2572 5.90091C17.2586 5.13985 17.8759 4.52364 18.637 4.52364C19.398 4.52364 20.0153 5.13984 20.0168 5.9009C20.0171 6.2681 19.8712 6.6203 19.6113 6.87969C19.3515 7.1391 18.999 7.28433 18.6319 7.28332Z" fill="white"/>
</svg>
