<svg width="33" height="29" viewBox="0 0 33 29" fill="none" xmlns="https://www.w3.org/2000/svg">
<path d="M6.29455 18.5981L10.0713 18.5981C10.7666 18.5981 11.3302 18.0345 11.3302 17.3392C11.3302 16.6439 10.7666 16.0803 10.0713 16.0803L6.29455 16.0803C5.59926 16.0803 5.03564 16.6439 5.03564 17.3392C5.03564 18.0345 5.59926 18.5981 6.29455 18.5981Z" fill="#1862B2"/>
<path d="M6.29455 13.5625L10.0713 13.5625C10.7666 13.5625 11.3302 12.9989 11.3302 12.3036C11.3302 11.6083 10.7666 11.0447 10.0713 11.0447L6.29455 11.0447C5.59926 11.0447 5.03564 11.6083 5.03564 12.3036C5.03564 12.9989 5.59926 13.5625 6.29455 13.5625Z" fill="#1862B2"/>
<path d="M13.687 17.3392C13.687 18.0345 14.2506 18.5981 14.9459 18.5981C17.5784 18.5981 20.0532 17.573 21.9146 15.7116L31.121 6.50434C32.597 5.02846 32.5972 2.63937 31.121 1.16324C29.6485 -0.309297 27.2525 -0.309297 25.7799 1.16324L16.5736 10.3705C14.7122 12.232 13.687 14.7068 13.687 17.3392ZM27.5604 2.94365C28.0511 2.4528 28.8499 2.4528 29.3407 2.94365C29.8327 3.4355 29.8328 4.23195 29.3407 4.72399L20.1342 13.9312C19.0819 14.9837 17.766 15.677 16.3354 15.9498C16.6081 14.5192 17.3015 13.2033 18.3538 12.1509L27.5604 2.94365Z" fill="#1862B2"/>
<path d="M3.77672 28.6693C4.70679 28.6693 5.60074 28.328 6.29402 27.7081L8.03427 26.1515L20.8978 26.1515C24.3687 26.1515 27.1924 23.3278 27.1924 19.857L27.1924 17.0331C27.1923 16.3378 26.6287 15.7742 25.9334 15.7742C25.2382 15.7742 24.6745 16.3378 24.6745 17.0331L24.6745 19.857C24.6745 21.9395 22.9803 23.6337 20.8978 23.6337L7.55343 23.6337C7.24374 23.6337 6.94494 23.7478 6.71412 23.9543L4.61565 25.8314C4.3847 26.0378 4.08678 26.1515 3.77672 26.1515C3.08256 26.1515 2.51781 25.5868 2.51781 24.8926L2.51781 9.78574C2.51781 7.70326 4.21204 6.00902 6.29453 6.00902L16.8535 6.00902C17.5488 6.00902 18.1124 5.44541 18.1124 4.75012C18.1124 4.05482 17.5488 3.49121 16.8535 3.49121L6.29453 3.49121C2.82366 3.49121 4.56652e-08 6.31494 1.01795e-07 9.78574L3.46103e-07 24.8926C3.7978e-07 26.9751 1.69423 28.6693 3.77672 28.6693Z" fill="#1862B2"/>
</svg>
