<svg width="62" height="62" viewBox="0 0 62 62" fill="none" xmlns="http://www.w3.org/2000/svg">
<g filter="url(#filter0_d_80_515)">
<circle cx="31" cy="30" r="28" fill="white"/>
<g clip-path="url(#clip0_80_515)">
<path d="M23.2945 34.5981L27.0713 34.5981C27.7666 34.5981 28.3302 34.0345 28.3302 33.3392C28.3302 32.6439 27.7666 32.0803 27.0713 32.0803L23.2945 32.0803C22.5993 32.0803 22.0356 32.6439 22.0356 33.3392C22.0356 34.0345 22.5993 34.5981 23.2945 34.5981Z" fill="#1862B2"/>
<path d="M23.2945 29.5625L27.0713 29.5625C27.7666 29.5625 28.3302 28.9989 28.3302 28.3036C28.3302 27.6083 27.7666 27.0447 27.0713 27.0447L23.2945 27.0447C22.5993 27.0447 22.0356 27.6083 22.0356 28.3036C22.0356 28.9989 22.5993 29.5625 23.2945 29.5625Z" fill="#1862B2"/>
<path d="M30.687 33.3392C30.687 34.0345 31.2506 34.5981 31.9459 34.5981C34.5784 34.5981 37.0532 33.573 38.9146 31.7116L48.121 22.5043C49.597 21.0285 49.5972 18.6394 48.121 17.1632C46.6485 15.6907 44.2525 15.6907 42.7799 17.1632L33.5736 26.3705C31.7122 28.232 30.687 30.7068 30.687 33.3392ZM44.5604 18.9437C45.0511 18.4528 45.8499 18.4528 46.3407 18.9437C46.8327 19.4355 46.8328 20.232 46.3407 20.724L37.1342 29.9312C36.0819 30.9837 34.766 31.677 33.3354 31.9498C33.6081 30.5192 34.3015 29.2033 35.3538 28.1509L44.5604 18.9437Z" fill="#1862B2"/>
<path d="M20.7767 44.6693C21.7068 44.6693 22.6007 44.328 23.294 43.7081L25.0343 42.1515L37.8978 42.1515C41.3687 42.1515 44.1924 39.3278 44.1924 35.857L44.1924 33.0331C44.1924 32.3378 43.6287 31.7742 42.9334 31.7742C42.2382 31.7742 41.6745 32.3378 41.6745 33.0331L41.6745 35.857C41.6745 37.9395 39.9803 39.6337 37.8978 39.6337L24.5534 39.6337C24.2437 39.6337 23.9449 39.7478 23.7141 39.9543L21.6157 41.8314C21.3847 42.0378 21.0868 42.1515 20.7767 42.1515C20.0826 42.1515 19.5178 41.5868 19.5178 40.8926L19.5178 25.7857C19.5178 23.7033 21.212 22.009 23.2945 22.009L33.8535 22.009C34.5488 22.009 35.1124 21.4454 35.1124 20.7501C35.1124 20.0548 34.5488 19.4912 33.8535 19.4912L23.2945 19.4912C19.8237 19.4912 17 22.3149 17 25.7857L17 40.8926C17 42.9751 18.6942 44.6693 20.7767 44.6693Z" fill="#1862B2"/>
</g>
</g>
<defs>
<filter id="filter0_d_80_515" x="0" y="0" width="62" height="62" filterUnits="userSpaceOnUse" color-interpolation-filters="sRGB">
<feFlood flood-opacity="0" result="BackgroundImageFix"/>
<feColorMatrix in="SourceAlpha" type="matrix" values="0 0 0 0 0 0 0 0 0 0 0 0 0 0 0 0 0 0 127 0" result="hardAlpha"/>
<feOffset dy="1"/>
<feGaussianBlur stdDeviation="1.5"/>
<feComposite in2="hardAlpha" operator="out"/>
<feColorMatrix type="matrix" values="0 0 0 0 0 0 0 0 0 0 0 0 0 0 0 0 0 0 0.25 0"/>
<feBlend mode="normal" in2="BackgroundImageFix" result="effect1_dropShadow_80_515"/>
<feBlend mode="normal" in="SourceGraphic" in2="effect1_dropShadow_80_515" result="shape"/>
</filter>
<clipPath id="clip0_80_515">
<rect width="32.228" height="32.228" fill="white" transform="translate(17 14.25)"/>
</clipPath>
</defs>
</svg>
