<svg width="62" height="62" viewBox="0 0 62 62" fill="none" xmlns="http://www.w3.org/2000/svg">
<g filter="url(#filter0_d_80_526)">
<circle cx="31" cy="30" r="28" fill="white"/>
<rect opacity="0.01" x="8" y="7" width="46.877" height="46.877" fill="#1862B2"/>
<path fill-rule="evenodd" clip-rule="evenodd" d="M21.5475 16.3754L41.3297 16.3754C43.6312 16.3818 45.4953 18.2459 45.5017 20.5474L45.5017 40.3295C45.4953 42.631 43.6312 44.4952 41.3297 44.5016L21.5475 44.5016C19.2461 44.4952 17.3819 42.631 17.3755 40.3295L17.3755 20.5474C17.3819 18.2459 19.2461 16.3818 21.5475 16.3754ZM41.3296 42.1578C42.3393 42.1578 43.1578 41.3393 43.1578 40.3296L43.1578 20.5475C43.1578 19.5378 42.3393 18.7193 41.3296 18.7193L21.5475 18.7193C20.5378 18.7193 19.7193 19.5378 19.7193 20.5475L19.7193 40.3296C19.7193 41.3393 20.5378 42.1578 21.5475 42.1578L41.3296 42.1578ZM24.4075 30.4384C24.4075 26.555 27.5556 23.4068 31.439 23.4068C33.3039 23.4068 35.0924 24.1477 36.4111 25.4663C37.7297 26.785 38.4706 28.5735 38.4706 30.4384C38.4706 34.3218 35.3224 37.47 31.439 37.47C27.5556 37.47 24.4075 34.3218 24.4075 30.4384ZM26.7514 30.4384C26.7514 33.0274 28.8501 35.1261 31.4391 35.1261C32.6823 35.1261 33.8747 34.6322 34.7538 33.7531C35.6329 32.874 36.1268 31.6817 36.1268 30.4384C36.1268 27.8495 34.028 25.7507 31.4391 25.7507C28.8501 25.7507 26.7514 27.8495 26.7514 30.4384ZM39.056 24.5789C40.0269 24.5789 40.8139 23.7919 40.8139 22.821C40.8139 21.8502 40.0269 21.0632 39.056 21.0632C38.0852 21.0632 37.2982 21.8502 37.2982 22.821C37.2982 23.7919 38.0852 24.5789 39.056 24.5789Z" fill="#1862B2"/>
</g>
<defs>
<filter id="filter0_d_80_526" x="0" y="0" width="62" height="62" filterUnits="userSpaceOnUse" color-interpolation-filters="sRGB">
<feFlood flood-opacity="0" result="BackgroundImageFix"/>
<feColorMatrix in="SourceAlpha" type="matrix" values="0 0 0 0 0 0 0 0 0 0 0 0 0 0 0 0 0 0 127 0" result="hardAlpha"/>
<feOffset dy="1"/>
<feGaussianBlur stdDeviation="1.5"/>
<feComposite in2="hardAlpha" operator="out"/>
<feColorMatrix type="matrix" values="0 0 0 0 0 0 0 0 0 0 0 0 0 0 0 0 0 0 0.25 0"/>
<feBlend mode="normal" in2="BackgroundImageFix" result="effect1_dropShadow_80_526"/>
<feBlend mode="normal" in="SourceGraphic" in2="effect1_dropShadow_80_526" result="shape"/>
</filter>
</defs>
</svg>
