<svg width="22" height="23" viewBox="0 0 22 23" fill="none" xmlns="https://www.w3.org/2000/svg">
<path fill-rule="evenodd" clip-rule="evenodd" d="M3.6707 0.862793L18.6192 0.862793C20.3583 0.867658 21.7669 2.27629 21.7718 4.01543L21.7718 18.9639C21.7669 20.703 20.3583 22.1116 18.6192 22.1165L3.6707 22.1165C1.93157 22.1116 0.522931 20.703 0.518067 18.9639L0.518066 4.01543C0.522931 2.27629 1.93157 0.867658 3.6707 0.862793ZM18.6193 20.3454C19.3822 20.3454 20.0007 19.7268 20.0007 18.9639L20.0007 4.01541C20.0007 3.25243 19.3822 2.63392 18.6193 2.63392L3.6708 2.63392C2.90783 2.63392 2.28931 3.25243 2.28931 4.01541L2.28931 18.9639C2.28931 19.7268 2.90783 20.3454 3.6708 20.3454L18.6193 20.3454ZM5.83197 11.4895C5.83197 8.55501 8.21087 6.17611 11.1454 6.17611C12.5546 6.17611 13.9061 6.73592 14.9026 7.73238C15.899 8.72884 16.4588 10.0803 16.4588 11.4895C16.4588 14.4241 14.0799 16.803 11.1454 16.803C8.21087 16.803 5.83197 14.4241 5.83197 11.4895ZM7.60293 11.4895C7.60293 13.4459 9.18886 15.0318 11.1452 15.0318C12.0847 15.0318 12.9857 14.6586 13.65 13.9943C14.3143 13.33 14.6875 12.429 14.6875 11.4895C14.6875 9.53318 13.1016 7.94725 11.1452 7.94725C9.18886 7.94725 7.60293 9.53318 7.60293 11.4895ZM16.9012 7.06181C17.6349 7.06181 18.2296 6.46708 18.2296 5.73345C18.2296 4.99982 17.6349 4.40509 16.9012 4.40509C16.1676 4.40509 15.5729 4.99982 15.5729 5.73345C15.5729 6.46708 16.1676 7.06181 16.9012 7.06181Z" fill="#1862B2"/>
</svg>
