<svg width="60" height="77" viewBox="0 0 60 77" fill="none" xmlns="http://www.w3.org/2000/svg">
<path d="M29.3807 76.0115C23.7453 76.0115 18.7481 75.0482 14.3892 73.1215C10.0542 71.1708 6.63448 68.4856 4.12986 65.0658C1.62524 61.6461 0.348855 57.7085 0.300689 53.2532H18.2906C18.3628 54.8667 18.8806 56.2997 19.8439 57.552C20.8072 58.7802 22.1197 59.7435 23.7815 60.4419C25.4432 61.1403 27.3337 61.4895 29.453 61.4895C31.5723 61.4895 33.4387 61.1162 35.0522 60.3697C36.6899 59.599 37.9663 58.5514 38.8814 57.2269C39.7965 55.8782 40.2421 54.3369 40.218 52.603C40.2421 50.869 39.7484 49.3277 38.7369 47.9791C37.7254 46.6304 36.2925 45.5828 34.4381 44.8362C32.6078 44.0897 30.4404 43.7164 27.9357 43.7164H20.747V31.0006H27.9357C30.1273 31.0006 32.0539 30.6394 33.7156 29.9169C35.4014 29.1944 36.7139 28.183 37.6532 26.8825C38.5924 25.5579 39.05 24.0407 39.0259 22.3308C39.05 20.6691 38.6526 19.2121 37.8338 17.9598C37.0391 16.6834 35.9192 15.696 34.4742 14.9976C33.0534 14.2992 31.4037 13.95 29.5252 13.95C27.5504 13.95 25.7563 14.2992 24.1427 14.9976C22.5532 15.696 21.2889 16.6834 20.3497 17.9598C19.4104 19.2362 18.9167 20.7173 18.8686 22.4031H1.78178C1.82995 17.9959 3.05817 14.1186 5.46646 10.7711C7.87474 7.39947 11.15 4.7624 15.2923 2.85985C19.4586 0.957308 24.2029 0.00603508 29.5252 0.00603508C34.8234 0.00603508 39.4835 0.933224 43.5053 2.7876C47.5271 4.64198 50.6579 7.17068 52.8976 10.3737C55.1373 13.5526 56.2572 17.153 56.2572 21.1749C56.2813 25.3412 54.9206 28.773 52.1751 31.4703C49.4538 34.1675 45.9497 35.8293 41.663 36.4554V37.0334C47.3947 37.7077 51.7176 39.5621 54.6316 42.5965C57.5697 45.631 59.0267 49.424 59.0026 53.9757C59.0026 58.2624 57.7383 62.0675 55.2096 65.3909C52.7049 68.6903 49.2129 71.2912 44.7335 73.1938C40.2782 75.0722 35.1606 76.0115 29.3807 76.0115Z" fill="#DFDFDF"/>
</svg>
