<svg width="39" height="52" viewBox="0 0 39 52" fill="none" xmlns="http://www.w3.org/2000/svg">
<path d="M0.753551 51.9091V43.0596L19.3224 26.8025C20.7145 25.5431 21.8994 24.3913 22.8771 23.3473C23.8549 22.2867 24.6006 21.2261 25.1143 20.1654C25.6281 19.0883 25.8849 17.9199 25.8849 16.6605C25.8849 15.2519 25.5784 14.0504 24.9652 13.0561C24.352 12.0452 23.5069 11.2663 22.4297 10.7194C21.3525 10.1726 20.1179 9.89911 18.7259 9.89911C17.3172 9.89911 16.0826 10.1891 15.022 10.7691C13.9614 11.3326 13.1328 12.1529 12.5362 13.2301C11.9562 14.3073 11.6662 15.6164 11.6662 17.1576H0.0078125C0.0078125 13.6941 0.786695 10.7029 2.34446 8.18392C3.90223 5.66498 6.08973 3.72605 8.90696 2.36715C11.7408 0.991679 15.0303 0.303942 18.7756 0.303942C22.6368 0.303942 25.9927 0.950249 28.843 2.24286C31.6934 3.53548 33.8975 5.34182 35.4553 7.6619C37.0296 9.9654 37.8168 12.6418 37.8168 15.691C37.8168 17.6299 37.4273 19.5523 36.6484 21.4581C35.8696 23.3638 34.4692 25.4685 32.4474 27.772C30.4422 30.0755 27.5919 32.8347 23.8963 36.0497L17.8061 41.6676V41.9907H38.4382V51.9091H0.753551Z" fill="#DFDFDF"/>
</svg>
