<svg width="41" height="53" viewBox="0 0 41 53" fill="none" xmlns="http://www.w3.org/2000/svg">
<path d="M20.1179 52.6051C16.2401 52.6051 12.8014 51.9422 9.80185 50.6164C6.81889 49.2741 4.46567 47.4263 2.74219 45.0731C1.0187 42.7199 0.140388 40.0104 0.107244 36.9446H12.4865C12.5362 38.0549 12.8925 39.0409 13.5554 39.9027C14.2183 40.7478 15.1214 41.4107 16.2649 41.8913C17.4084 42.3719 18.7093 42.6122 20.1676 42.6122C21.6259 42.6122 22.9103 42.3553 24.0206 41.8416C25.1475 41.3113 26.0258 40.5904 26.6555 39.6789C27.2853 38.7509 27.5919 37.6903 27.5753 36.4971C27.5919 35.3039 27.2521 34.2433 26.5561 33.3153C25.8601 32.3873 24.8741 31.6664 23.598 31.1527C22.3385 30.6389 20.8471 30.3821 19.1236 30.3821H14.1768V21.6321H19.1236C20.6316 21.6321 21.9574 21.3835 23.1009 20.8863C24.2609 20.3892 25.1641 19.6931 25.8104 18.7983C26.4567 17.8868 26.7715 16.8428 26.755 15.6662C26.7715 14.5227 26.4981 13.5201 25.9347 12.6583C25.3878 11.78 24.6172 11.1006 23.6229 10.62C22.6451 10.1394 21.5099 9.89911 20.2173 9.89911C18.8584 9.89911 17.6238 10.1394 16.5135 10.62C15.4197 11.1006 14.5497 11.78 13.9034 12.6583C13.2571 13.5367 12.9174 14.5558 12.8842 15.7159H1.12642C1.15956 12.6832 2.00474 10.0151 3.66193 7.71161C5.31913 5.39154 7.57292 3.57691 10.4233 2.26772C13.2902 0.958535 16.5549 0.303942 20.2173 0.303942C23.8632 0.303942 27.0698 0.941963 29.8374 2.218C32.6049 3.49405 34.7592 5.2341 36.3004 7.43818C37.8416 9.62568 38.6122 12.1032 38.6122 14.8707C38.6288 17.7377 37.6925 20.0992 35.8033 21.9552C33.9306 23.8113 31.5194 24.9547 28.5696 25.3856V25.7833C32.5137 26.2474 35.4884 27.5234 37.4936 29.6115C39.5154 31.6995 40.518 34.3096 40.5014 37.4417C40.5014 40.3915 39.6314 43.0099 37.8913 45.2968C36.1679 47.5672 33.7649 49.357 30.6825 50.6662C27.6167 51.9588 24.0952 52.6051 20.1179 52.6051Z" fill="#DFDFDF"/>
</svg>
