<svg width="57" height="75" viewBox="0 0 57 75" fill="none" xmlns="http://www.w3.org/2000/svg">
<path d="M1.90203 75V62.1398L28.8869 38.5145C30.9098 36.6842 32.6317 35.0104 34.0526 33.4932C35.4735 31.9519 36.5572 30.4106 37.3038 28.8693C38.0504 27.3039 38.4237 25.6061 38.4237 23.7758C38.4237 21.7288 37.9781 19.9828 37.0871 18.5378C36.196 17.0687 34.9678 15.9368 33.4024 15.1421C31.837 14.3474 30.0428 13.95 28.0199 13.95C25.9728 13.95 24.1787 14.3715 22.6374 15.2144C21.0961 16.0332 19.8919 17.2253 19.0249 18.7907C18.182 20.356 17.7606 22.2586 17.7606 24.4983H0.818301C0.818301 19.465 1.95019 15.118 4.21398 11.4574C6.47777 7.79683 9.6567 4.97914 13.7508 3.00435C17.869 1.00547 22.6494 0.00603508 28.0921 0.00603508C33.7034 0.00603508 38.5802 0.945266 42.7224 2.82373C46.8647 4.70219 50.0677 7.32722 52.3315 10.6988C54.6194 14.0463 55.7633 17.9357 55.7633 22.367C55.7633 25.1846 55.1974 27.9783 54.0655 30.7478C52.9336 33.5173 50.8986 36.5758 47.9605 39.9233C45.0464 43.2709 40.9042 47.2807 35.5337 51.9527L26.6833 60.1168V60.5864H56.6664V75H1.90203Z" fill="#DFDFDF"/>
</svg>
