<svg width="24" height="25" viewBox="0 0 24 25" fill="none" xmlns="https://www.w3.org/2000/svg">
<g clip-path="url(#clip0_115_152)">
<path d="M12 24.0377C13.6392 24.0377 15.1824 23.724 16.6294 23.0965C18.0765 22.4691 19.3529 21.6024 20.4588 20.4965C21.5647 19.3907 22.4314 18.1142 23.0588 16.6671C23.6863 15.2201 24 13.677 24 12.0377C24 10.3985 23.6863 8.85535 23.0588 7.40829C22.4314 5.96124 21.5647 4.68477 20.4588 3.57889C19.3529 2.47301 18.0745 1.60635 16.6235 0.978895C15.1725 0.351445 13.6274 0.0377197 11.9882 0.0377197C10.349 0.0377197 8.80587 0.351445 7.35882 0.978895C5.91176 1.60635 4.63725 2.47301 3.53529 3.57889C2.43333 4.68477 1.56863 5.96124 0.941175 7.40829C0.313725 8.85535 0 10.3985 0 12.0377C0 13.677 0.313725 15.2201 0.941175 16.6671C1.56863 18.1142 2.43529 19.3907 3.54117 20.4965C4.64706 21.6024 5.92352 22.4691 7.37057 23.0965C8.81763 23.724 10.3608 24.0377 12 24.0377ZM12 22.0377C10.6118 22.0377 9.31371 21.7789 8.10588 21.2612C6.89803 20.7436 5.83725 20.0279 4.92352 19.1142C4.0098 18.2005 3.29608 17.1397 2.78235 15.9319C2.26862 14.724 2.01176 13.426 2.01176 12.0377C2.01176 10.6495 2.26862 9.35143 2.78235 8.1436C3.29608 6.93575 4.00784 5.87301 4.91764 4.95536C5.82744 4.03771 6.88626 3.32202 8.09411 2.8083C9.30195 2.29458 10.6 2.03772 11.9882 2.03772C13.3765 2.03772 14.6745 2.29458 15.8823 2.8083C17.0902 3.32202 18.1529 4.03771 19.0706 4.95536C19.9883 5.87301 20.7059 6.93575 21.2235 8.1436C21.7411 9.35143 22 10.6495 22 12.0377C22 13.426 21.7431 14.724 21.2294 15.9319C20.7157 17.1397 20.0019 18.2005 19.0882 19.1142C18.1745 20.0279 17.1117 20.7436 15.8999 21.2612C14.6882 21.7789 13.3883 22.0377 12 22.0377ZM14.3177 17.8495C14.4981 17.6769 14.5882 17.4651 14.5882 17.2142C14.5882 16.9632 14.502 16.7553 14.3294 16.5906L9.49411 12.0377L14.3294 7.49654C14.5097 7.32399 14.596 7.11222 14.5882 6.86124C14.5804 6.61026 14.4862 6.40241 14.3059 6.23771C14.1411 6.07301 13.9392 5.99458 13.7 6.00242C13.4608 6.01026 13.2509 6.10046 13.0706 6.273L8.16469 10.8848C7.94509 11.0887 7.79803 11.3318 7.72352 11.6142C7.64901 11.8965 7.64901 12.1789 7.72352 12.4612C7.79803 12.7436 7.94509 12.9868 8.16469 13.1907L13.0706 17.8142C13.2353 17.9711 13.4451 18.0534 13.7 18.0612C13.9549 18.0691 14.1608 17.9985 14.3177 17.8495Z" fill="#6D6E76"/>
</g>
<defs>
<clipPath id="clip0_115_152">
<rect width="24" height="24.0117" fill="white" transform="translate(0 0.0377197)"/>
</clipPath>
</defs>
</svg>
